<?xml version="1.0" encoding="UTF-8" standalone="no"?>
<svg
   xmlns:dc="http://purl.org/dc/elements/1.1/"
   xmlns:cc="http://creativecommons.org/ns#"
   xmlns:rdf="http://www.w3.org/1999/02/22-rdf-syntax-ns#"
   xmlns:svg="http://www.w3.org/2000/svg"
   xmlns="http://www.w3.org/2000/svg"
   xmlns:sodipodi="http://sodipodi.sourceforge.net/DTD/sodipodi-0.dtd"
   xmlns:inkscape="http://www.inkscape.org/namespaces/inkscape"
   version="1.1"
   id="Layer_1"
   x="0px"
   y="0px"
   viewBox="0 0 512 512"
   style="enable-background:new 0 0 512 512;"
   xml:space="preserve"
   sodipodi:docname="bedroom-key-vertical.svg"
   inkscape:version="1.0.2 (1.0.2+r75+1)"><metadata
   id="metadata45"><rdf:RDF><cc:Work
       rdf:about=""><dc:format>image/svg+xml</dc:format><dc:type
         rdf:resource="http://purl.org/dc/dcmitype/StillImage" /><dc:title></dc:title></cc:Work></rdf:RDF></metadata><defs
   id="defs43" /><sodipodi:namedview
   pagecolor="#ffffff"
   bordercolor="#666666"
   borderopacity="1"
   objecttolerance="10"
   gridtolerance="10"
   guidetolerance="10"
   inkscape:pageopacity="0"
   inkscape:pageshadow="2"
   inkscape:window-width="1391"
   inkscape:window-height="839"
   id="namedview41"
   showgrid="false"
   inkscape:zoom="1.1857737"
   inkscape:cx="256"
   inkscape:cy="256"
   inkscape:window-x="49"
   inkscape:window-y="24"
   inkscape:window-maximized="1"
   inkscape:current-layer="Layer_1" />


















<g
   id="g66"
   transform="rotate(-90,256,256)"><path
     style="fill:#f07057"
     d="m 501.801,268.694 c 0,-32.504 -26.35,-58.853 -58.853,-58.853 H 194.845 c -16.513,-30.898 -49.073,-51.929 -86.556,-51.929 -54.174,-0.001 -98.09,43.916 -98.09,98.089 0,54.173 43.916,98.09 98.09,98.09 37.482,0 70.043,-21.031 86.556,-51.929 h 306.956 z m -435.056,8.078 c -11.472,0 -20.772,-9.3 -20.772,-20.772 0,-11.472 9.3,-20.772 20.772,-20.772 11.472,0 20.773,9.3 20.773,20.772 -0.001,11.472 -9.301,20.772 -20.773,20.772 z"
     id="path2" /><path
     d="M 108.289,364.289 C 48.578,364.289 0,315.71 0,256 0,196.29 48.578,147.711 108.289,147.711 c 37.966,0 72.848,19.746 92.47,51.93 h 242.188 c 38.076,0 69.053,30.977 69.053,69.053 v 33.466 c 0,5.632 -4.566,10.199 -10.199,10.199 H 200.759 c -19.622,32.183 -54.505,51.93 -92.47,51.93 z m 0,-196.18 c -48.464,0 -87.891,39.427 -87.891,87.891 0,48.464 39.427,87.891 87.891,87.891 32.501,0 62.219,-17.832 77.561,-46.538 1.774,-3.32 5.231,-5.392 8.995,-5.392 h 296.757 v -23.266 c 0,-26.828 -21.826,-48.654 -48.654,-48.654 H 194.845 c -3.764,0 -7.221,-2.072 -8.995,-5.392 -15.342,-28.706 -45.06,-46.54 -77.561,-46.54 z M 66.745,286.971 c -17.078,0 -30.971,-13.893 -30.971,-30.971 0,-17.078 13.893,-30.971 30.971,-30.971 17.078,0 30.972,13.893 30.972,30.971 0,17.078 -13.894,30.971 -30.972,30.971 z m 0,-41.543 c -5.83,0 -10.572,4.743 -10.572,10.572 0,5.83 4.743,10.572 10.572,10.572 5.829,0 10.572,-4.742 10.572,-10.572 0,-5.83 -4.743,-10.572 -10.572,-10.572 z"
     id="path4" /><path
     d="m 439.485,275.432 h -28.85 c -1.415,0 -2.813,-0.294 -4.107,-0.864 l -24.742,-10.888 -24.742,10.888 c -1.294,0.57 -2.694,0.864 -4.107,0.864 H 249.88 c -5.633,0 -10.199,-4.567 -10.199,-10.199 0,-5.632 4.566,-10.199 10.199,-10.199 h 100.91 l 26.887,-11.831 c 2.617,-1.151 5.597,-1.151 8.215,0 l 26.886,11.831 h 26.706 c 5.633,0 10.199,4.567 10.199,10.199 0.001,5.631 -4.565,10.199 -10.198,10.199 z"
     id="path6" /><path
     d="m 211.124,275.432 h -8.207 c -5.633,0 -10.199,-4.567 -10.199,-10.199 0,-5.632 4.566,-10.199 10.199,-10.199 h 8.207 c 5.633,0 10.199,4.567 10.199,10.199 0,5.631 -4.566,10.199 -10.199,10.199 z"
     id="path8" /><g
     id="g10">
</g><g
     id="g12">
</g><g
     id="g14">
</g><g
     id="g16">
</g><g
     id="g18">
</g><g
     id="g20">
</g><g
     id="g22">
</g><g
     id="g24">
</g><g
     id="g26">
</g><g
     id="g28">
</g><g
     id="g30">
</g><g
     id="g32">
</g><g
     id="g34">
</g><g
     id="g36">
</g><g
     id="g38">
</g></g>
</svg>
