<?xml version="1.0" encoding="UTF-8" standalone="no"?>
<svg
   xmlns:dc="http://purl.org/dc/elements/1.1/"
   xmlns:cc="http://creativecommons.org/ns#"
   xmlns:rdf="http://www.w3.org/1999/02/22-rdf-syntax-ns#"
   xmlns:svg="http://www.w3.org/2000/svg"
   xmlns="http://www.w3.org/2000/svg"
   xmlns:sodipodi="http://sodipodi.sourceforge.net/DTD/sodipodi-0.dtd"
   xmlns:inkscape="http://www.inkscape.org/namespaces/inkscape"
   version="1.1"
   id="Capa_1"
   x="0px"
   y="0px"
   viewBox="0 0 489.4 489.4"
   style="enable-background:new 0 0 489.4 489.4;"
   xml:space="preserve"
   sodipodi:docname="book.svg"
   inkscape:version="1.0.2 (1.0.2+r75+1)"><metadata
   id="metadata43"><rdf:RDF><cc:Work
       rdf:about=""><dc:format>image/svg+xml</dc:format><dc:type
         rdf:resource="http://purl.org/dc/dcmitype/StillImage" /><dc:title></dc:title></cc:Work></rdf:RDF></metadata><defs
   id="defs41" /><sodipodi:namedview
   pagecolor="#ffffff"
   bordercolor="#666666"
   borderopacity="1"
   objecttolerance="10"
   gridtolerance="10"
   guidetolerance="10"
   inkscape:pageopacity="0"
   inkscape:pageshadow="2"
   inkscape:window-width="1391"
   inkscape:window-height="839"
   id="namedview39"
   showgrid="false"
   inkscape:zoom="1.3138537"
   inkscape:cx="244.7"
   inkscape:cy="244.7"
   inkscape:window-x="49"
   inkscape:window-y="24"
   inkscape:window-maximized="1"
   inkscape:current-layer="Capa_1" />
<g
   id="g6">
	<g
   id="g4">
		<path
   d="M453.7,20.4c0-11.2-9.2-20.4-20.4-20.4H114.2C70.4,0,35.7,34.7,35.7,77.5c0,0,0,349.5,0,349.7c0,34.7,28.5,62.2,63.2,62.2    h333.4c8.2,0,16.3-5.1,19.4-13.3c3.1-8.2,1-17.3-6.1-22.4c-18.1-11.5-19.2-36.7-3.1-47.9c3.4-3.4,11.1-10.4,10.5-20.4    C453.5,383.8,453.7,20.4,453.7,20.4z M76.5,427.2c0-12.2,10.2-21.4,22.4-21.4h293.7c-9,15-7.1,32.6,0,42.8H98.9    C86.7,448.6,76.5,439.5,76.5,427.2z M413,365H99c-7.9,0-15.4,1.5-22.4,4.2V77.5c0-20.4,17.3-36.7,37.7-36.7h298.8V365H413z"
   id="path2" />
	</g>
</g>
<g
   id="g8">
</g>
<g
   id="g10">
</g>
<g
   id="g12">
</g>
<g
   id="g14">
</g>
<g
   id="g16">
</g>
<g
   id="g18">
</g>
<g
   id="g20">
</g>
<g
   id="g22">
</g>
<g
   id="g24">
</g>
<g
   id="g26">
</g>
<g
   id="g28">
</g>
<g
   id="g30">
</g>
<g
   id="g32">
</g>
<g
   id="g34">
</g>
<g
   id="g36">
</g>
<path
   style="fill:#2a7fff;stroke-width:0.76112"
   d="m 77.253654,220.04378 c 0,-144.907576 0.03082,-148.057334 1.494935,-152.79479 3.242077,-10.490407 10.795707,-18.534768 22.099781,-23.535512 l 4.18615,-1.851892 153.93647,-0.19936 153.93647,-0.199361 V 203.20989 364.95692 l -161.16711,0.005 c -158.344683,0.005 -161.277909,0.0319 -167.494553,1.52224 -3.480099,0.8343 -6.477008,1.51692 -6.659798,1.51692 -0.18279,0 -0.332345,-66.58093 -0.332345,-147.95762 z"
   id="path45" /><path
   style="fill:#aaccff;stroke-width:0.76112"
   d="m 89.81213,446.12684 c -8.439935,-3.94156 -12.563898,-10.09159 -12.551041,-18.71727 0.01292,-8.66895 4.4761,-15.50367 12.551041,-19.22012 l 3.805598,-1.75151 148.989192,-0.1978 c 81.94405,-0.1088 148.98919,-0.01 148.98919,0.2206 0,0.23012 -0.68647,1.76399 -1.52548,3.4086 -4.96611,9.73436 -4.95942,25.27755 0.0151,35.02836 l 1.54135,3.02127 -149.00467,-0.007 -149.004652,-0.007 z"
   id="path47" /><g
   id="g158"
   transform="matrix(0.53738932,0,0,0.50906423,110.2849,80.42635)"
   style="fill:#1c2224"><circle
     style="fill:#1c2224"
     cx="251.565"
     cy="332.31201"
     r="151.158"
     id="circle67" /><path
     style="fill:#1c2224"
     d="m 251.565,181.169 c 83.48,0 151.142,67.663 151.142,151.142 0,83.464 -67.663,151.127 -151.142,151.127"
     id="path69" /><path
     style="fill:#1c2224"
     d="m 251.565,503.131 c -94.2,0 -170.835,-76.635 -170.835,-170.819 0,-94.2 76.635,-170.835 170.835,-170.835 94.2,0 170.835,76.634 170.835,170.835 0,94.184 -76.635,170.819 -170.835,170.819 z m 0,-302.269 c -72.476,0 -131.45,58.967 -131.45,131.45 0,72.468 58.967,131.434 131.45,131.434 72.483,0 131.45,-58.959 131.45,-131.434 0,-72.475 -58.974,-131.45 -131.45,-131.45 z"
     id="path71" /><path
     style="fill:#1c2224"
     d="m 251.565,199.546 c -10.878,0 -19.692,-8.814 -19.692,-19.692 V 19.692 C 231.873,8.814 240.687,0 251.565,0 c 10.878,0 19.692,8.814 19.692,19.692 v 160.154 c 10e-4,10.878 -8.814,19.7 -19.692,19.7 z"
     id="path73" /><path
     style="fill:#1c2224"
     d="M 325.734,105.677 H 177.396 c -10.878,0 -19.692,-8.814 -19.692,-19.692 0,-10.878 8.814,-19.692 19.692,-19.692 h 148.338 c 10.878,0 19.692,8.814 19.692,19.692 0,10.878 -8.814,19.692 -19.692,19.692 z"
     id="path75" /><path
     style="fill:#1c2224"
     d="m 115.688,28.231 c 31.909,0 57.769,25.844 57.769,57.754 0,31.91 -25.86,57.769 -57.769,57.769"
     id="path77" /><path
     style="fill:#1c2224"
     d="m 115.688,163.446 c -10.878,0 -19.692,-8.814 -19.692,-19.692 0,-10.878 8.814,-19.692 19.692,-19.692 21,0 38.077,-17.085 38.077,-38.077 0,-20.984 -17.077,-38.061 -38.077,-38.061 -10.878,0 -19.692,-8.814 -19.692,-19.692 0,-10.878 8.814,-19.692 19.692,-19.692 42.709,0 77.462,34.737 77.462,77.446 0,42.715 -34.753,77.46 -77.462,77.46 z"
     id="path79" /><path
     style="fill:#1c2224"
     d="m 387.442,143.754 c -31.909,0 -57.769,-25.86 -57.769,-57.769 0,-31.909 25.86,-57.754 57.769,-57.754"
     id="path81" /><path
     style="fill:#1c2224"
     d="m 387.442,163.446 c -42.709,0 -77.462,-34.745 -77.462,-77.462 0,-42.709 34.753,-77.446 77.462,-77.446 10.878,0 19.692,8.814 19.692,19.692 0,10.878 -8.814,19.692 -19.692,19.692 -20.984,0 -38.077,17.077 -38.077,38.061 0,20.992 17.093,38.077 38.077,38.077 10.878,0 19.692,8.814 19.692,19.692 0,10.878 -8.814,19.694 -19.692,19.694 z"
     id="path83" /><g
     id="g91"
     style="fill:#1c2224">
	<circle
   style="fill:#1c2224"
   cx="290.272"
   cy="330.33499"
   r="8.3649998"
   id="circle85" />
	<circle
   style="fill:#1c2224"
   cx="322.26099"
   cy="330.33499"
   r="8.3649998"
   id="circle87" />
	<path
   style="fill:#1c2224"
   d="m 362.646,330.335 c 0,4.624 -3.757,8.365 -8.381,8.365 -4.6,0 -8.357,-3.749 -8.357,-8.365 0,-4.616 3.757,-8.365 8.357,-8.365 4.623,-0.001 8.381,3.741 8.381,8.365 z"
   id="path89" />
</g><g
     id="g93"
     style="fill:#1c2224">
</g><g
     id="g95"
     style="fill:#1c2224">
</g><g
     id="g97"
     style="fill:#1c2224">
</g><g
     id="g99"
     style="fill:#1c2224">
</g><g
     id="g101"
     style="fill:#1c2224">
</g><g
     id="g103"
     style="fill:#1c2224">
</g><g
     id="g105"
     style="fill:#1c2224">
</g><g
     id="g107"
     style="fill:#1c2224">
</g><g
     id="g109"
     style="fill:#1c2224">
</g><g
     id="g111"
     style="fill:#1c2224">
</g><g
     id="g113"
     style="fill:#1c2224">
</g><g
     id="g115"
     style="fill:#1c2224">
</g><g
     id="g117"
     style="fill:#1c2224">
</g><g
     id="g119"
     style="fill:#1c2224">
</g><g
     id="g121"
     style="fill:#1c2224">
</g></g></svg>
