<?xml version="1.0" encoding="UTF-8" standalone="no"?>
<svg
   xmlns:dc="http://purl.org/dc/elements/1.1/"
   xmlns:cc="http://creativecommons.org/ns#"
   xmlns:rdf="http://www.w3.org/1999/02/22-rdf-syntax-ns#"
   xmlns:svg="http://www.w3.org/2000/svg"
   xmlns="http://www.w3.org/2000/svg"
   xmlns:sodipodi="http://sodipodi.sourceforge.net/DTD/sodipodi-0.dtd"
   xmlns:inkscape="http://www.inkscape.org/namespaces/inkscape"
   version="1.1"
   id="Layer_1"
   x="0px"
   y="0px"
   viewBox="0 0 64 64"
   style="enable-background:new 0 0 64 64;"
   xml:space="preserve"
   sodipodi:docname="bookshelf.svg"
   inkscape:version="1.0.2 (1.0.2+r75+1)"><metadata
   id="metadata61"><rdf:RDF><cc:Work
       rdf:about=""><dc:format>image/svg+xml</dc:format><dc:type
         rdf:resource="http://purl.org/dc/dcmitype/StillImage" /><dc:title></dc:title></cc:Work></rdf:RDF></metadata><defs
   id="defs59" /><sodipodi:namedview
   pagecolor="#ffffff"
   bordercolor="#666666"
   borderopacity="1"
   objecttolerance="10"
   gridtolerance="10"
   guidetolerance="10"
   inkscape:pageopacity="0"
   inkscape:pageshadow="2"
   inkscape:window-width="1391"
   inkscape:window-height="839"
   id="namedview57"
   showgrid="false"
   inkscape:zoom="10.046875"
   inkscape:cx="45.228455"
   inkscape:cy="32.214873"
   inkscape:window-x="49"
   inkscape:window-y="24"
   inkscape:window-maximized="1"
   inkscape:current-layer="Layer_1" />
<g
   id="g6">
	<g
   id="g4">
		<path
   d="M59,0H5C2.243,0,0,2.243,0,5v54c0,2.757,2.243,5,5,5h54c2.757,0,5-2.243,5-5V5C64,2.243,61.757,0,59,0z M62,59    c0,1.654-1.346,3-3,3H5c-1.654,0-3-1.346-3-3V5c0-1.654,1.346-3,3-3h54c1.654,0,3,1.346,3,3V59z"
   id="path2" />
	</g>
</g>
<g
   id="g12">
	<g
   id="g10">
		<path
   d="M59,4H5C4.448,4,4,4.448,4,5v5v11c0,0.552,0.448,1,1,1h4h4h4h4h4h4h4h4h22c0.552,0,1-0.448,1-1V5C60,4.448,59.552,4,59,4z     M8,20H6v-9h2V20z M12,20h-2v-9h2V20z M16,20h-2v-9h2V20z M20,20h-2v-9h2V20z M24,20h-2v-9h2V20z M28,20h-2v-9h2V20z M32,20h-2v-9    h2V20z M36,20h-2v-9h2V20z M38,20v-4.566L42.581,20H38z M44.999,19.587l-6.586-6.566l1.59-1.604l2.241,2.241    c0.02,0.023,0.028,0.053,0.05,0.075l4.286,4.273L44.999,19.587z M47.414,20l0.582-0.582L48.581,20H47.414z M50.999,19.587    l-2.274-2.267c-0.008-0.008-0.01-0.019-0.018-0.027l-4.283-4.283l1.579-1.593L52.586,18L50.999,19.587z M58,20h-4.586l1.293-1.293    c0.391-0.391,0.391-1.023,0-1.414l-8-8C46.519,9.105,46.265,9,46,9h-0.002c-0.266,0-0.521,0.107-0.708,0.296l-2.28,2.299    l-2.303-2.302C40.519,9.105,40.265,9,40,9h-0.002c-0.266,0-0.521,0.107-0.708,0.296L38,10.597V10c0-0.552-0.448-1-1-1h-4h-4h-4h-4    h-4h-4H9H6V6h52V20z"
   id="path8" />
	</g>
</g>
<g
   id="g18">
	<g
   id="g16">
		<path
   d="M59,24H5c-0.552,0-1,0.448-1,1v4v12c0,0.552,0.448,1,1,1h4h4h4h4h4h4h6h6h6h6h6c0.552,0,1-0.448,1-1V29v-4    C60,24.448,59.552,24,59,24z M8,40H6V30h2V40z M12,40h-2V30h2V40z M16,40h-2V30h2V40z M20,40h-2V30h2V40z M22,40v-4.837L23.612,40    H22z M25.721,40l-3.333-10h1.892l3.333,10H25.721z M34,40h-4V30h4V40z M40,40h-4V30h4V40z M46,40h-4V30h4V40z M52,40h-4V30h4V40z     M58,40h-4V30h4V40z M58,28h-5h-6h-6h-6h-6c-0.552,0-1,0.448-1,1v5.837l-2.051-6.154C25.812,28.275,25.431,28,25,28h-4h-4h-4H9H6    v-2h52V28z"
   id="path14" />
	</g>
</g>
<g
   id="g24">
	<g
   id="g22">
		<path
   d="M59,44H5c-0.552,0-1,0.448-1,1v4v10c0,0.552,0.448,1,1,1h4h4h4h4h4h4h4h4h4h4h4h4h6c0.552,0,1-0.448,1-1V45    C60,44.448,59.552,44,59,44z M8,58H6v-8h2V58z M12,58h-2v-8h2V58z M16,58h-2v-8h2V58z M20,58h-2v-8h2V58z M24,58h-2v-8h2V58z     M28,58h-2v-8h2V58z M32,58h-2v-8h2V58z M36,58h-2v-8h2V58z M40,58h-2v-8h2V58z M44,58h-2v-8h2V58z M48,58h-2v-8h2V58z M52,58h-2    v-8h2V58z M58,58h-4v-9c0-0.552-0.448-1-1-1h-4h-4h-4h-4h-4h-4h-4h-4h-4h-4H9H6v-2h52V58z"
   id="path20" />
	</g>
</g>
<g
   id="g26">
</g>
<g
   id="g28">
</g>
<g
   id="g30">
</g>
<g
   id="g32">
</g>
<g
   id="g34">
</g>
<g
   id="g36">
</g>
<g
   id="g38">
</g>
<g
   id="g40">
</g>
<g
   id="g42">
</g>
<g
   id="g44">
</g>
<g
   id="g46">
</g>
<g
   id="g48">
</g>
<g
   id="g50">
</g>
<g
   id="g52">
</g>
<g
   id="g54">
</g>
<path
   style="fill:#a02c2c;stroke-width:0.0995334"
   d="m 6.0217729,53.99689 v -3.981338 h 0.9455677 0.9455676 v 3.981338 3.981337 H 6.9673406 6.0217729 Z"
   id="path65" /><path
   style="fill:#aa4400;stroke-width:0.0995334"
   d="m 6.0217729,34.986003 v -4.976672 h 0.9455677 0.9455676 v 4.976672 4.976672 H 6.9673406 6.0217729 Z"
   id="path67" /><path
   style="fill:#c83737;stroke-width:0.0995334"
   d="m 54.096423,34.986003 v -4.976672 h 1.940902 1.940902 v 4.976672 4.976672 h -1.940902 -1.940902 z"
   id="path69" /><path
   style="fill:#88aa00;stroke-width:0.0995334"
   d="m 50.015552,53.99689 v -3.981338 h 0.945568 0.945567 v 3.981338 3.981337 H 50.96112 50.015552 Z"
   id="path71" /><path
   style="fill:#89a02c;stroke-width:0.0995334"
   d="m 34.090202,53.99689 v -3.981338 h 0.945568 0.945567 v 3.981338 3.981337 H 35.03577 34.090202 Z"
   id="path73" /><path
   style="fill:#a0892c;stroke-width:0.0995334"
   d="m 42.052877,53.99689 v -3.981338 h 0.945568 0.945567 v 3.981338 3.981337 h -0.945567 -0.945568 z"
   id="path75" /><path
   style="fill:#ffcc00;stroke-width:0.0995334"
   d="m 22.046656,53.99689 v -3.981338 h 0.945568 0.945568 v 3.981338 3.981337 h -0.945568 -0.945568 z"
   id="path77" /><path
   style="fill:#676c53;stroke-width:0.0995334"
   d="m 18.065319,53.99689 v -3.981338 h 0.945567 0.945568 v 3.981338 3.981337 h -0.945568 -0.945567 z"
   id="path81" /><path
   style="fill:#2a7fff;stroke-width:0.0995334"
   d="M 30.009331,53.99689 V 50.015552 H 31.004666 32 v 3.981338 3.981337 h -0.995334 -0.995335 z"
   id="path83" /><path
   style="fill:#0044aa;stroke-width:0.0995334"
   d="m 38.07154,53.99689 v -3.981338 h 0.945567 0.945568 v 3.981338 3.981337 H 39.017107 38.07154 Z"
   id="path85" /><path
   style="fill:#0055d4;stroke-width:0.0995334"
   d="m 46.034215,53.99689 v -3.981338 h 0.945567 0.945568 v 3.981338 3.981337 h -0.945568 -0.945567 z"
   id="path87" /><path
   style="fill:#214478;stroke-width:0.0995334"
   d="m 26.027994,53.99689 v -3.981338 h 0.945567 0.945568 v 3.981338 3.981337 h -0.945568 -0.945567 z"
   id="path89" /><path
   style="fill:#2a7fff;stroke-width:0.0995334"
   d="m 14.083981,53.99689 v -3.981338 h 0.945568 0.945568 v 3.981338 3.981337 h -0.945568 -0.945568 z"
   id="path91" /><path
   style="fill:#800033;stroke-width:0.0995334"
   d="m 10.00311,53.99689 v -3.981338 h 0.995335 0.995334 v 3.981338 3.981337 H 10.998445 10.00311 Z"
   id="path93" /><path
   style="fill:#ff0000;stroke-width:0.0995334"
   d="m 48.024883,34.986003 v -4.976672 h 1.940902 1.940902 v 4.976672 4.976672 h -1.940902 -1.940902 z"
   id="path95" /><path
   style="fill:#ff8080;stroke-width:0.0995334"
   d="m 47.727245,16.224912 -3.232727,-3.233875 0.743437,-0.748432 0.743438,-0.748433 3.260363,3.25924 3.260363,3.25924 -0.718242,0.723068 c -0.395033,0.397687 -0.742016,0.723067 -0.771074,0.723067 -0.02906,0 -1.507559,-1.455244 -3.285558,-3.233875 z"
   id="path97" /><path
   style="fill:#ff8080;stroke-width:0.0995334"
   d="m 36.080871,34.986003 v -4.976672 h 1.940902 1.940902 v 4.976672 4.976672 h -1.940902 -1.940902 z"
   id="path99" /><path
   style="fill:#c83737;stroke-width:0.0995334"
   d="m 42.052877,34.986003 v -4.976672 h 1.940902 1.940902 v 4.976672 4.976672 h -1.940902 -1.940902 z"
   id="path101" /><path
   style="fill:#ff00ff;stroke-width:0.0995334"
   d="M 30.009331,34.986003 V 30.009331 H 32 33.990669 v 4.976672 4.976672 H 32 30.009331 Z"
   id="path103" /><path
   style="fill:#ff00ff;stroke-width:0.0995334"
   d=""
   id="path105" /><path
   style="fill:#005544;stroke-width:0.0995334"
   d="m 24.119771,34.986003 -1.658152,-4.976672 h 0.879096 0.879095 l 1.615486,4.852255 c 0.888518,2.668741 1.636076,4.908243 1.661242,4.976672 0.03443,0.09362 -0.172635,0.124417 -0.83643,0.124417 h -0.882186 z"
   id="path107" /><path
   style="fill:#00d455;stroke-width:0.0995334"
   d="m 18.004758,35.015394 v -4.976672 h 0.995334 0.995335 v 4.976672 4.976671 h -0.995335 -0.995334 z"
   id="path109" /><path
   style="fill:#80ffb3;stroke-width:0.0995334"
   d="m 26.066966,15.50684 v -4.479005 h 0.945568 0.945568 v 4.479005 4.479005 h -0.945568 -0.945568 z"
   id="path111" /><path
   style="fill:#217821;stroke-width:0.0995334"
   d="m 14.02342,35.015394 v -4.976672 h 0.945568 0.945568 v 4.976672 4.976671 H 14.968988 14.02342 Z"
   id="path113" /><path
   style="fill:#80e5ff;stroke-width:0.0995334"
   d="m 10.042083,35.015394 v -4.976672 h 0.945568 0.945567 v 4.976672 4.976671 h -0.945567 -0.945568 z"
   id="path115" /><path
   style="fill:#00ccff;stroke-width:0.0995334"
   d="m 30.048304,15.50684 v -4.479005 h 0.945567 0.945568 v 4.479005 4.479005 h -0.945568 -0.945567 z"
   id="path117" /><path
   style="fill:#37abc8;stroke-width:0.0995334"
   d="m 34.029641,15.50684 v -4.479005 h 0.945568 0.945568 v 4.479005 4.479005 h -0.945568 -0.945568 z"
   id="path119" /><path
   style="fill:#0044aa;stroke-width:0.0995334"
   d="m 41.743483,16.246883 -3.284604,-3.224744 0.768399,-0.769414 0.768399,-0.769414 3.261702,3.256134 3.261701,3.256133 -0.745497,0.738024 -0.745497,0.738025 z"
   id="path121" /><path
   style="fill:#37abc8;stroke-width:0.0995334"
   d="m 22.085629,15.50684 v -4.479005 h 0.945568 0.945567 v 4.479005 4.479005 h -0.945567 -0.945568 z"
   id="path123" /><path
   style="fill:#ff2a7f;stroke-width:0.0995334"
   d="m 18.004758,15.50684 v -4.479005 h 0.995334 0.995335 v 4.479005 4.479005 h -0.995335 -0.995334 z"
   id="path125" /><path
   style="fill:#916f8a;stroke-width:0.0995334"
   d="m 14.02342,15.50684 v -4.479005 h 0.945568 0.945568 v 4.479005 4.479005 H 14.968988 14.02342 Z"
   id="path127" /><path
   style="fill:#ff80e5;stroke-width:0.0995334"
   d="m 10.042083,15.50684 v -4.479005 h 0.945568 0.945567 v 4.479005 4.479005 h -0.945567 -0.945568 z"
   id="path129" /><path
   style="fill:#aaffaa;stroke-width:0.0995334"
   d="m 6.0607455,15.50684 v -4.479005 h 0.9455677 0.9455676 v 4.479005 4.479005 H 7.0063132 6.0607455 Z"
   id="path131" /><path
   style="fill:#ff6600;stroke-width:0.0995334"
   d="m 54.086931,53.425882 c 0,-4.810896 -0.01452,-4.962278 -0.5093,-5.308833 C 53.364974,47.968098 51.398182,47.95474 29.679091,47.95474 H 6.0122805 V 47.009173 46.063605 H 31.990508 57.968735 v 5.92224 5.922239 h -1.940902 -1.940902 z"
   id="path133" /><path
   style="fill:#ff6600;stroke-width:0.0995334"
   d="m 38.062047,17.772074 v -2.213771 l 2.189736,2.188039 c 1.204354,1.203422 2.189735,2.199618 2.189735,2.213771 0,0.01415 -0.985381,0.02573 -2.189735,0.02573 h -2.189736 z"
   id="path137" /><path
   style="fill:#ff6600;stroke-width:0.0995334"
   d="m 47.774954,19.761894 c 0.103702,-0.123172 0.192582,-0.234971 0.197512,-0.248441 0.0049,-0.01347 0.113991,0.08731 0.242361,0.22395 l 0.233398,0.248442 h -0.43091 -0.430911 z"
   id="path139" /><path
   style="fill:#ff6600;stroke-width:0.0995334"
   d="m 54.208672,19.313994 c 0.727529,-0.736311 0.91529,-1.09465 0.817436,-1.560059 C 54.977273,17.521663 53.962875,16.4457 50.824334,13.297147 48.548765,11.01432 46.56108,9.0944206 46.407255,9.0307042 45.837268,8.7946077 45.553326,8.9579511 44.232915,10.28154 L 42.99183,11.525612 41.719901,10.256506 C 40.47114,9.0105167 40.439884,8.9873997 40.004018,8.9873997 c -0.418437,0 -0.486204,0.041968 -1.179051,0.7301915 L 38.089869,10.447783 38.037097,9.9795929 C 38.000355,9.6536195 37.904743,9.4318179 37.722332,9.2494014 L 37.460339,8.9873997 21.736309,8.9616033 6.0122805,8.9358071 V 7.4934851 6.0511633 H 31.990508 57.968735 v 6.9673407 6.967341 h -2.21195 -2.211949 z"
   id="path141" /><path
   style="fill:#ff6600;stroke-width:0.0995334"
   d="m 26.879196,31.280148 c -0.915784,-2.753734 -1.001401,-2.961494 -1.293935,-3.139869 -0.303149,-0.18485 -0.6241,-0.191027 -9.94312,-0.191387 L 6.0122805,27.948519 V 27.002952 26.057384 H 31.990508 57.968735 v 0.945568 0.945567 H 43.393566 c -9.021926,0 -14.670462,0.03623 -14.825277,0.09509 -0.137559,0.0523 -0.330833,0.218155 -0.429497,0.368565 -0.15859,0.241768 -0.185159,0.594828 -0.229155,3.045151 l -0.04977,2.771676 z"
   id="path143" /><path
   style="fill:#ff6600;stroke-width:0.0995334"
   d="m 22.044875,37.777446 0.0077,-2.214619 0.689926,2.040436 c 0.379459,1.122239 0.714933,2.118818 0.745497,2.214619 0.04959,0.155439 -0.02548,0.174183 -0.697638,0.174183 h -0.753208 z"
   id="path145" /><path
   style="fill:#803300;stroke-width:0.0995334"
   d="M 4.3933161,61.881105 C 3.4588738,61.659837 2.6110407,60.925436 2.2703991,60.042215 2.0854729,59.562736 2.0807098,58.85683 2.0807098,31.929857 V 4.3093282 L 2.3584166,3.7438187 C 2.6595005,3.130705 3.0915526,2.6963505 3.7506623,2.3441539 L 4.1709119,2.1195926 31.876969,2.0940093 59.583025,2.0684261 60.170522,2.3320792 c 0.634512,0.2847521 1.139818,0.7727911 1.501522,1.4502135 l 0.228261,0.427502 V 31.979624 59.749453 l -0.225594,0.457839 c -0.307123,0.6233 -0.860203,1.160181 -1.516241,1.471835 l -0.547434,0.260061 -27.421462,0.01533 C 16.416147,61.96334 4.6089073,61.932155 4.3933161,61.881105 Z M 59.566783,59.895803 c 0.498735,-0.266916 0.492154,-0.161138 0.492154,-7.909958 0,-7.84413 0.01416,-7.638919 -0.544653,-7.893531 -0.200315,-0.09127 -6.610632,-0.118911 -27.576657,-0.118911 H 4.621953 l -0.3250539,0.290405 -0.325054,0.290404 -0.029028,7.14972 c -0.015966,3.932346 -0.0018,7.300292 0.03148,7.484324 0.03328,0.184033 0.1674789,0.441575 0.2982211,0.572317 l 0.2377129,0.237713 H 31.94276 c 18.624549,0 27.494014,-0.03291 27.624023,-0.102483 z M 59.460352,41.90793 c 0.19084,-0.09572 0.402932,-0.286005 0.471316,-0.422863 0.09638,-0.192896 0.124664,-2.102518 0.125802,-8.494752 0.0013,-7.516375 -0.0132,-8.270743 -0.164283,-8.526511 -0.09116,-0.154326 -0.27243,-0.329199 -0.402817,-0.388607 -0.168615,-0.07683 -8.124373,-0.108015 -27.552743,-0.108015 H 4.621953 l -0.3250539,0.290412 -0.325054,0.290411 -0.026569,8.268627 c -0.029435,9.160694 -0.050695,8.835067 0.5951602,9.115677 0.2808416,0.12202 4.1707038,0.142697 27.4500717,0.145908 25.62778,0.0035 27.141988,-0.0059 27.469844,-0.170287 z m 0.07852,-20.031368 c 0.179279,-0.109307 0.369637,-0.313611 0.423017,-0.454008 0.06022,-0.158388 0.09705,-3.391914 0.09705,-8.520016 V 4.6377885 L 59.720523,4.2993748 59.382109,3.9609612 H 32.002032 4.621953 L 4.2968991,4.2513724 3.9718451,4.5417836 3.9420926,12.736598 c -0.020923,5.762871 0.00284,8.306995 0.080072,8.572824 0.072783,0.250519 0.2170976,0.44342 0.4278862,0.571946 0.3132096,0.190976 0.7333729,0.193934 27.5404572,0.193934 27.032308,0 27.224671,-0.0014 27.54836,-0.19874 z"
   id="path147" /></svg>
