<?xml version="1.0" encoding="iso-8859-1"?>
<!-- Generator: Adobe Illustrator 19.0.0, SVG Export Plug-In . SVG Version: 6.00 Build 0)  -->
<svg version="1.1" id="Layer_1" xmlns="http://www.w3.org/2000/svg" xmlns:xlink="http://www.w3.org/1999/xlink" x="0px" y="0px"
	 viewBox="0 0 512 512" style="enable-background:new 0 0 512 512;" xml:space="preserve">
<path style="fill:#ED6350;" d="M348.029,309.809v68.554h19.63c12.037,0,21.787-9.75,21.787-21.787v-14.081L348.029,309.809z"/>
<g>
	<path style="fill:#F37C4A;" d="M365.982,244.447v112.128c0,12.037-8.039,21.787-17.953,21.787H144.34
		c-12.037,0-21.787-9.75-21.787-21.787V342.49L365.982,244.447z"/>
	<path style="fill:#F37C4A;" d="M460.255,133.637l-94.273,208.857h23.465c68.782-44.032,114.383-121.12,114.383-208.857
		L460.255,133.637L460.255,133.637z"/>
</g>
<path style="fill:#F7A676;" d="M8.17,133.637c0,87.737,45.601,164.82,114.383,208.852l243.429,0.004
	c56.69-44.032,94.273-121.12,94.273-208.857L8.17,133.637L8.17,133.637z"/>
<path d="M503.83,125.467H8.17c-4.513,0-8.17,3.657-8.17,8.17c0,86.222,42.672,165.612,114.383,213.281v9.657
	c0,16.518,13.439,29.957,29.957,29.957H367.66c16.518,0,29.957-13.439,29.957-29.957v-9.657C469.328,299.25,512,219.859,512,133.637
	C512,129.124,508.343,125.467,503.83,125.467z M385.041,335.613c-2.345,1.502-3.765,4.096-3.765,6.88v14.082
	c0,7.509-6.108,13.617-13.617,13.617H144.34c-7.509,0-13.617-6.108-13.617-13.617v-14.082c0-2.785-1.419-5.379-3.765-6.88
	C59.997,292.741,19.123,220.747,16.478,141.808h479.045C492.877,220.747,452.003,292.741,385.041,335.613z"/>
<path d="M155.234,350.663h201.532c4.513,0,8.17-3.657,8.17-8.17s-3.657-8.17-8.17-8.17H155.234c-4.513,0-8.17,3.657-8.17,8.17
	S150.721,350.663,155.234,350.663z"/>
<g>
</g>
<g>
</g>
<g>
</g>
<g>
</g>
<g>
</g>
<g>
</g>
<g>
</g>
<g>
</g>
<g>
</g>
<g>
</g>
<g>
</g>
<g>
</g>
<g>
</g>
<g>
</g>
<g>
</g>
</svg>
