<?xml version="1.0" encoding="UTF-8" standalone="no"?>
<svg
   xmlns:dc="http://purl.org/dc/elements/1.1/"
   xmlns:cc="http://creativecommons.org/ns#"
   xmlns:rdf="http://www.w3.org/1999/02/22-rdf-syntax-ns#"
   xmlns:svg="http://www.w3.org/2000/svg"
   xmlns="http://www.w3.org/2000/svg"
   xmlns:sodipodi="http://sodipodi.sourceforge.net/DTD/sodipodi-0.dtd"
   xmlns:inkscape="http://www.inkscape.org/namespaces/inkscape"
   version="1.1"
   id="Layer_1"
   x="0px"
   y="0px"
   viewBox="0 0 512.031 512.031"
   style="enable-background:new 0 0 512.031 512.031;"
   xml:space="preserve"
   sodipodi:docname="cabinet-open.svg"
   inkscape:version="1.0.2 (1.0.2+r75+1)"><metadata
   id="metadata61"><rdf:RDF><cc:Work
       rdf:about=""><dc:format>image/svg+xml</dc:format><dc:type
         rdf:resource="http://purl.org/dc/dcmitype/StillImage" /><dc:title></dc:title></cc:Work></rdf:RDF></metadata><defs
   id="defs59" /><sodipodi:namedview
   pagecolor="#ffffff"
   bordercolor="#666666"
   borderopacity="1"
   objecttolerance="10"
   gridtolerance="10"
   guidetolerance="10"
   inkscape:pageopacity="0"
   inkscape:pageshadow="2"
   inkscape:window-width="1391"
   inkscape:window-height="839"
   id="namedview57"
   showgrid="false"
   inkscape:zoom="1.2557833"
   inkscape:cx="256.0155"
   inkscape:cy="256.0155"
   inkscape:window-x="49"
   inkscape:window-y="24"
   inkscape:window-maximized="1"
   inkscape:current-layer="g24" />
<polygon
   style="fill:#FF6A5E;"
   points="7.604,25.847 7.604,449.699 34.64,449.699 34.64,486.184 477.393,486.184 477.393,449.699   504.427,449.699 504.427,25.847 "
   id="polygon2" />

<g
   id="g10">
	<rect
   x="466.401"
   y="317.87"
   style="fill:#FFFFFF;"
   width="15.209"
   height="101.413"
   id="rect6" />
	<polygon
   style="fill:#FFFFFF;"
   points="481.614,297.587 466.405,297.587 466.405,63.87 369.575,63.87 369.575,48.661    481.614,48.661  "
   id="polygon8" />
</g>
<g
   id="g16">
	<circle
   style="fill:#34B6D0;"
   cx="208.357"
   cy="237.77"
   r="17.237"
   id="circle12" />
	<circle
   style="fill:#34B6D0;"
   cx="303.676"
   cy="237.77"
   r="17.237"
   id="circle14" />
</g>
<g
   id="g24">
	<path
   style="fill:#311363"
   d="M 263.62,18.243 H 248.411 0 v 439.06 h 27.034 v 36.485 h 457.963 v -36.485 h 27.034 V 18.243 Z M 469.788,478.58 H 42.244 v -21.276 h 48.457 v 0 h 157.711 15.209 206.168 v 21.276 z"
   id="path18"
   sodipodi:nodetypes="ccccccccccccccccccccc" />
	<path
   style="fill:#311363;"
   d="M208.359,262.614c13.697,0,24.841-11.143,24.841-24.841c0-13.698-11.144-24.841-24.841-24.841   s-24.841,11.143-24.841,24.841C183.518,251.471,194.661,262.614,208.359,262.614z M208.359,228.14c5.311,0,9.632,4.321,9.632,9.632   c0,5.311-4.321,9.632-9.632,9.632s-9.632-4.321-9.632-9.632C198.727,232.462,203.047,228.14,208.359,228.14z"
   id="path20" />
	<path
   style="fill:#311363;"
   d="M303.673,262.614c13.697,0,24.841-11.143,24.841-24.841c0-13.698-11.144-24.841-24.841-24.841   c-13.697,0-24.841,11.143-24.841,24.841C278.832,251.471,289.976,262.614,303.673,262.614z M303.673,228.14   c5.311,0,9.632,4.321,9.632,9.632c0,5.311-4.321,9.632-9.632,9.632s-9.632-4.321-9.632-9.632   C294.041,232.462,298.362,228.14,303.673,228.14z"
   id="path22" />
</g>
<g
   id="g26">
</g>
<g
   id="g28">
</g>
<g
   id="g30">
</g>
<g
   id="g32">
</g>
<g
   id="g34">
</g>
<g
   id="g36">
</g>
<g
   id="g38">
</g>
<g
   id="g40">
</g>
<g
   id="g42">
</g>
<g
   id="g44">
</g>
<g
   id="g46">
</g>
<g
   id="g48">
</g>
<g
   id="g50">
</g>
<g
   id="g52">
</g>
<g
   id="g54">
</g>
</svg>
