<?xml version="1.0" encoding="iso-8859-1"?>
<!-- Generator: Adobe Illustrator 19.0.0, SVG Export Plug-In . SVG Version: 6.00 Build 0)  -->
<svg version="1.1" id="Layer_1" xmlns="http://www.w3.org/2000/svg" xmlns:xlink="http://www.w3.org/1999/xlink" x="0px" y="0px"
	 viewBox="0 0 512 512" style="enable-background:new 0 0 512 512;" xml:space="preserve">
<polygon style="fill:#BDCED4;" points="118.88,37.623 118.88,466.251 137.162,501.801 374.839,501.801 393.121,466.251 
	393.121,37.623 374.839,10.199 137.162,10.199 "/>
<path style="fill:#FF2E48;" d="M256.001,151.383c-46.559,0-84.304,37.744-84.304,84.304c0,23.28,9.436,44.355,24.692,59.611
	l119.224-119.224C300.356,160.818,279.28,151.383,256.001,151.383z"/>
<path style="fill:#8C4F39;" d="M196.389,295.298c15.256,15.256,36.332,24.692,59.611,24.692c46.559,0,84.304-37.744,84.304-84.304
	c0-23.28-9.436-44.355-24.692-59.611L196.389,295.298z"/>
<path d="M401.607,31.966L383.324,4.542C381.432,1.704,378.248,0,374.839,0H137.162c-3.411,0-6.595,1.704-8.486,4.542l-18.283,27.425
	c-1.117,1.676-1.713,3.644-1.713,5.657v428.628c0,1.623,0.387,3.222,1.129,4.664l18.283,35.55c1.748,3.398,5.249,5.534,9.07,5.534
	h237.675c3.822,0,7.322-2.137,9.07-5.534l18.283-35.55c0.742-1.443,1.129-3.041,1.129-4.664V37.624
	C403.32,35.611,402.724,33.641,401.607,31.966z M142.621,20.398h226.758l6.038,9.057H136.582L142.621,20.398z M368.615,491.602
	H143.386l-9.359-18.198h173.774c5.633,0,10.199-4.566,10.199-10.199s-4.566-10.199-10.199-10.199H129.08V49.854h253.843v413.928
	L368.615,491.602z"/>
<path d="M355.54,453.005h-10.156c-5.633,0-10.199,4.566-10.199,10.199s4.566,10.199,10.199,10.199h10.156
	c5.633,0,10.199-4.566,10.199-10.199S361.173,453.005,355.54,453.005z"/>
<path d="M322.825,168.862c-17.849-17.849-41.581-27.679-66.824-27.679c-52.109,0-94.503,42.393-94.503,94.503
	c0,25.243,9.83,48.975,27.68,66.824c0.003,0.003,0.007,0.006,0.01,0.009c17.849,17.844,41.576,27.669,66.814,27.669
	c52.109,0,94.503-42.394,94.503-94.503C350.503,210.443,340.673,186.712,322.825,168.862z M256.001,161.582
	c16.352,0,31.896,5.261,44.698,14.982L196.878,280.384c-9.721-12.802-14.982-28.347-14.982-44.699
	C181.896,194.825,215.139,161.582,256.001,161.582z M256.001,309.791c-16.351,0-31.896-5.262-44.698-14.982l103.821-103.822
	c9.721,12.802,14.982,28.347,14.982,44.698C330.105,276.547,296.862,309.791,256.001,309.791z"/>
<g>
</g>
<g>
</g>
<g>
</g>
<g>
</g>
<g>
</g>
<g>
</g>
<g>
</g>
<g>
</g>
<g>
</g>
<g>
</g>
<g>
</g>
<g>
</g>
<g>
</g>
<g>
</g>
<g>
</g>
</svg>
