<?xml version="1.0" encoding="UTF-8" standalone="no"?>
<svg
   xmlns:dc="http://purl.org/dc/elements/1.1/"
   xmlns:cc="http://creativecommons.org/ns#"
   xmlns:rdf="http://www.w3.org/1999/02/22-rdf-syntax-ns#"
   xmlns:svg="http://www.w3.org/2000/svg"
   xmlns="http://www.w3.org/2000/svg"
   version="1.1"
   id="Layer_1"
   x="0px"
   y="0px"
   viewBox="0 0 512 512"
   style="enable-background:new 0 0 512 512;"
   xml:space="preserve"><metadata
   id="metadata87"><rdf:RDF><cc:Work
       rdf:about=""><dc:format>image/svg+xml</dc:format><dc:type
         rdf:resource="http://purl.org/dc/dcmitype/StillImage" /><dc:title></dc:title></cc:Work></rdf:RDF></metadata><defs
   id="defs85" />
<g
   id="g6">
	<rect
   x="456"
   y="392"
   style="fill:#5D4037;"
   width="16"
   height="24"
   id="rect2" />
	<rect
   x="44"
   y="392"
   style="fill:#5D4037;"
   width="16"
   height="24"
   id="rect4" />
</g>
<polygon
   style="fill:#BD8150;"
   points="508,96 508,112 492,112 256,112 20,112 4,112 4,96 "
   id="polygon8" />



<path
   d="M472,420h-16c-2.4,0-4-1.6-4-4v-24c0-2.4,1.6-4,4-4s4,1.6,4,4v20h8v-20c0-2.4,1.6-4,4-4s4,1.6,4,4v24  C476,418.4,474.4,420,472,420z"
   id="path20" />
<path
   style="fill:#222222;fill-opacity:1;stroke-width:0.772798"
   d="M 22.421659,251.63436 V 114.67606 H 256.55743 490.69319 v 136.9583 136.95831 H 256.55743 22.421659 Z"
   id="path37" /><path
   d="M44,396h-7.2c-11.2,0-20.8-9.2-20.8-20V112c0-2.4,1.6-4,4-4s4,1.6,4,4v264c0,6.4,6,12,12.8,12H44c2.4,0,4,1.6,4,4  S46.4,396,44,396z"
   id="path22" />
<path
   d="M456,396H60c-2.4,0-4-1.6-4-4s1.6-4,4-4h396c2.4,0,4,1.6,4,4S458.4,396,456,396z"
   id="path24" />
<path
   d="M476.8,396H472c-2.4,0-4-1.6-4-4s1.6-4,4-4h4.8c6.4,0,11.2-5.2,11.2-12V112c0-2.4,1.6-4,4-4s4,1.6,4,4v264  C496,387.2,487.6,396,476.8,396z"
   id="path26" />






<path
   d="M60,420H44c-2.4,0-4-1.6-4-4v-24c0-2.4,1.6-4,4-4s4,1.6,4,4v20h8v-20c0-2.4,1.6-4,4-4s4,1.6,4,4v24  C64,418.4,62.4,420,60,420z"
   id="path40" />


<path
   d="M508,116H4c-2.4,0-4-1.6-4-4V96c0-2.4,1.6-4,4-4h504c2.4,0,4,1.6,4,4v16C512,114.4,510.4,116,508,116z M8,108h496v-8H8V108z  "
   id="path46" />
<path
   d="M60,396H44c-2.4,0-4-1.6-4-4s1.6-4,4-4h16c2.4,0,4,1.6,4,4S62.4,396,60,396z"
   id="path48" />
<path
   d="M474,396h-18c-2.4,0-4-1.6-4-4s1.6-4,4-4h18c2.4,0,4,1.6,4,4S476.4,396,474,396z"
   id="path50" />
<g
   id="g52">
</g>
<g
   id="g54">
</g>
<g
   id="g56">
</g>
<g
   id="g58">
</g>
<g
   id="g60">
</g>
<g
   id="g62">
</g>
<g
   id="g64">
</g>
<g
   id="g66">
</g>
<g
   id="g68">
</g>
<g
   id="g70">
</g>
<g
   id="g72">
</g>
<g
   id="g74">
</g>
<g
   id="g76">
</g>
<g
   id="g78">
</g>
<g
   id="g80">
</g>
<path
   style="fill:#222222;fill-opacity:1;stroke-width:0.65343"
   d="m 33.227701,387.08491 c -2.98286,-0.89533 -6.381684,-3.88855 -7.692082,-6.77414 -1.179685,-2.59775 -1.221876,-7.1459 -1.235736,-133.21213 L 24.285532,116.57608 H 255.92632 487.56711 v 130.97009 c 0,90.9473 -0.21238,131.53221 -0.695,132.80956 -0.94578,2.50323 -3.76557,5.40596 -6.30838,6.49396 -1.77252,0.75841 -36.91171,0.89084 -223.79963,0.8435 -121.93334,-0.0309 -222.524718,-0.30461 -223.536399,-0.60828 z"
   id="path924" /></svg>
