<svg id="Capa_1" enable-background="new 0 0 512 512" height="512" viewBox="0 0 512 512" width="512" xmlns="http://www.w3.org/2000/svg"><g><g><g fill="#fff5f5"><path d="m63.355 41.256h46v30.08h-46z" transform="matrix(0 1 -1 0 142.651 -30.059)"/><path d="m119.907 41.256h46v30.08h-46z" transform="matrix(0 1 -1 0 199.204 -86.611)"/><path d="m176.46 41.256h46v30.08h-46z" transform="matrix(0 1 -1 0 255.756 -143.164)"/><path d="m233.013 41.256h46v30.08h-46z" transform="matrix(0 1 -1 0 312.309 -199.717)"/></g><path d="m240.533 48.776h46v15.04h-46z" fill="#efe2dd" transform="matrix(0 1 -1 0 319.829 -207.237)"/><path d="m289.566 41.256h46v30.08h-46z" fill="#fff5f5" transform="matrix(0 1 -1 0 368.862 -256.27)"/><path d="m346.119 41.256h46v30.08h-46z" fill="#fff5f5" transform="matrix(0 1 -1 0 425.415 -312.823)"/><path d="m402.672 41.256h46v30.08h-46z" fill="#fff5f5" transform="matrix(0 1 -1 0 481.968 -369.376)"/><g><path d="m102.095 512c-17 0-30.781-13.781-30.781-30.781 0-140.638 0-281.276 0-421.914 17.728 17.296 43.834 17.296 61.562 0 0 73.565 10.031 147.13 10.031 220.695 0 67.073-10.031 134.146-10.031 201.219 0 17-13.781 30.781-30.781 30.781z" fill="#8ebdfd"/><path d="m225.219 512c-17 0-30.781-13.781-30.781-30.781 0-70.073-10.018-140.146-10.018-210.219 0-70.565 10.018-141.13 10.018-211.695 17.728 17.296 43.834 17.296 61.562 0 0 70.565 7.533 141.13 7.533 211.695 0 70.073-7.533 140.146-7.533 210.219 0 17-13.781 30.781-30.781 30.781z" fill="#8ebdfd"/><path d="m348.343 512c-17 0-30.781-13.781-30.781-30.781 0-65.189-4.996-130.378-4.996-195.567 0-75.449 4.996-150.898 4.996-226.347 17.728 17.296 43.834 17.296 61.562 0 0 75.449 5.036 150.898 5.036 226.347 0 65.189-5.036 130.378-5.035 195.567-.001 17-13.782 30.781-30.782 30.781z" fill="#1e669f"/></g><path d="m485.602 0c-8.97 0-16.905 4.5-21.677 11.358h-415.851c-4.773-6.858-12.707-11.358-21.676-11.358-14.556 0-26.398 11.842-26.398 26.398s11.842 26.398 26.398 26.398c8.969 0 16.903-4.5 21.676-11.358h415.852c4.773 6.857 12.707 11.358 21.677 11.358 14.555 0 26.398-11.842 26.398-26.398-.001-14.556-11.843-26.398-26.399-26.398z" fill="#fabe2c"/><path d="m485.602 0c-8.97 0-16.905 4.5-21.677 11.358h-207.925v30.08h207.925c4.773 6.857 12.707 11.358 21.677 11.358 14.555 0 26.398-11.842 26.398-26.398s-11.842-26.398-26.398-26.398z" fill="#fd9025"/></g><g fill="#429bdf"><path d="m163.657 512c-17 0-30.781-13.781-30.781-30.781 0-140.638 0-281.276 0-421.914 17.728 17.296 43.834 17.296 61.562 0v421.914c0 17-13.781 30.781-30.781 30.781z"/><path d="m286.781 512c-17 0-30.781-13.781-30.781-30.781 0-140.638 0-281.276 0-421.914 17.728 17.296 43.834 17.296 61.562 0v421.914c0 17-13.781 30.781-30.781 30.781z"/><path d="m409.905 512c-17 0-30.781-13.781-30.781-30.781 0-140.638 0-281.276 0-421.914 17.728 17.296 43.834 17.296 61.562 0v421.914c0 17-13.781 30.781-30.781 30.781z"/></g></g></svg>