<?xml version="1.0" encoding="UTF-8" standalone="no"?>
<svg
   xmlns:dc="http://purl.org/dc/elements/1.1/"
   xmlns:cc="http://creativecommons.org/ns#"
   xmlns:rdf="http://www.w3.org/1999/02/22-rdf-syntax-ns#"
   xmlns:svg="http://www.w3.org/2000/svg"
   xmlns="http://www.w3.org/2000/svg"
   xmlns:sodipodi="http://sodipodi.sourceforge.net/DTD/sodipodi-0.dtd"
   xmlns:inkscape="http://www.inkscape.org/namespaces/inkscape"
   version="1.1"
   id="Layer_1"
   x="0px"
   y="0px"
   viewBox="0 0 310.66 512"
   xml:space="preserve"
   sodipodi:docname="door.svg"
   inkscape:version="1.0.2 (1.0.2+r75+1)"
   width="310.66"
   height="512"><metadata
   id="metadata45"><rdf:RDF><cc:Work
       rdf:about=""><dc:format>image/svg+xml</dc:format><dc:type
         rdf:resource="http://purl.org/dc/dcmitype/StillImage" /><dc:title></dc:title></cc:Work></rdf:RDF></metadata><defs
   id="defs43" /><sodipodi:namedview
   pagecolor="#ffffff"
   bordercolor="#666666"
   borderopacity="1"
   objecttolerance="10"
   gridtolerance="10"
   guidetolerance="10"
   inkscape:pageopacity="0"
   inkscape:pageshadow="2"
   inkscape:window-width="1391"
   inkscape:window-height="839"
   id="namedview41"
   showgrid="false"
   inkscape:zoom="1.1195993"
   inkscape:cx="155.33"
   inkscape:cy="256"
   inkscape:window-x="49"
   inkscape:window-y="24"
   inkscape:window-maximized="1"
   inkscape:current-layer="Layer_1"
   inkscape:document-rotation="0"
   fit-margin-top="0"
   fit-margin-left="0"
   fit-margin-right="0"
   fit-margin-bottom="0" />
<rect
   x="8.2369976"
   y="8.2329998"
   style="fill:#9a6b58"
   width="294.194"
   height="495.53"
   id="rect2" />
<rect
   x="228.80501"
   y="231.07401"
   style="fill:#fed771"
   width="46.356998"
   height="79.597"
   id="rect4" />
<circle
   style="fill:#e5ab46"
   cx="251.989"
   cy="251.40401"
   r="12.246"
   id="circle6" />
<path
   style="fill:#1e252b"
   d="m 225.423,324.71 h 53.125 c 4.547,0 8.233,-3.686 8.233,-8.233 v -91.213 c 0,-4.547 -3.686,-8.233 -8.233,-8.233 h -53.125 c -4.547,0 -8.233,3.686 -8.233,8.233 v 91.213 c 0,4.546 3.686,8.233 8.233,8.233 z m 8.233,-91.214 h 36.659 v 74.747 h -36.659 z m 24.453,49.401 c 0,-3.381 -2.741,-6.123 -6.123,-6.123 -3.382,0 -6.123,2.742 -6.123,6.123 0,2.054 1.021,3.862 2.573,4.973 l -1.474,12.412 h 10.049 l -1.473,-12.412 c 1.55,-1.11 2.571,-2.919 2.571,-4.973 z m -6.123,-39.307 c -4.317,0 -7.817,3.5 -7.817,7.817 0,4.319 3.5,7.818 7.817,7.818 4.319,0 7.818,-3.5 7.818,-7.818 -10e-4,-4.317 -3.501,-7.817 -7.818,-7.817 z M 302.427,0 H 8.233 C 3.686,0 0,3.686 0,8.233 V 503.767 C 0,508.314 3.686,512 8.233,512 h 294.194 c 4.547,0 8.233,-3.686 8.233,-8.233 V 8.233 C 310.66,3.686 306.974,0 302.427,0 Z m -8.233,495.534 H 16.466 V 389.27 h 5.048 V 357.543 H 16.466 V 154.456 h 5.048 V 122.73 H 16.466 V 16.466 h 277.727 v 479.068 z"
   id="path8"
   sodipodi:nodetypes="ssssssssscccccsssccccsssscsssssssssscccccccccccccc" />
<g
   id="g10"
   transform="translate(-100.67)">
</g>
<g
   id="g12"
   transform="translate(-100.67)">
</g>
<g
   id="g14"
   transform="translate(-100.67)">
</g>
<g
   id="g16"
   transform="translate(-100.67)">
</g>
<g
   id="g18"
   transform="translate(-100.67)">
</g>
<g
   id="g20"
   transform="translate(-100.67)">
</g>
<g
   id="g22"
   transform="translate(-100.67)">
</g>
<g
   id="g24"
   transform="translate(-100.67)">
</g>
<g
   id="g26"
   transform="translate(-100.67)">
</g>
<g
   id="g28"
   transform="translate(-100.67)">
</g>
<g
   id="g30"
   transform="translate(-100.67)">
</g>
<g
   id="g32"
   transform="translate(-100.67)">
</g>
<g
   id="g34"
   transform="translate(-100.67)">
</g>
<g
   id="g36"
   transform="translate(-100.67)">
</g>
<g
   id="g38"
   transform="translate(-100.67)">
</g>
</svg>
