<?xml version="1.0" encoding="UTF-8" standalone="no"?>
<svg
   xmlns:dc="http://purl.org/dc/elements/1.1/"
   xmlns:cc="http://creativecommons.org/ns#"
   xmlns:rdf="http://www.w3.org/1999/02/22-rdf-syntax-ns#"
   xmlns:svg="http://www.w3.org/2000/svg"
   xmlns="http://www.w3.org/2000/svg"
   xmlns:sodipodi="http://sodipodi.sourceforge.net/DTD/sodipodi-0.dtd"
   xmlns:inkscape="http://www.inkscape.org/namespaces/inkscape"
   version="1.1"
   id="Capa_1"
   x="0px"
   y="0px"
   viewBox="0 0 54.585 54.585"
   style="enable-background:new 0 0 54.585 54.585;"
   xml:space="preserve"
   sodipodi:docname="flower1.svg"
   inkscape:version="1.0.2 (1.0.2+r75+1)"><metadata
   id="metadata57"><rdf:RDF><cc:Work
       rdf:about=""><dc:format>image/svg+xml</dc:format><dc:type
         rdf:resource="http://purl.org/dc/dcmitype/StillImage" /><dc:title></dc:title></cc:Work></rdf:RDF></metadata><defs
   id="defs55" /><sodipodi:namedview
   pagecolor="#ffffff"
   bordercolor="#666666"
   borderopacity="1"
   objecttolerance="10"
   gridtolerance="10"
   guidetolerance="10"
   inkscape:pageopacity="0"
   inkscape:pageshadow="2"
   inkscape:window-width="1391"
   inkscape:window-height="839"
   id="namedview53"
   showgrid="false"
   inkscape:zoom="11.122399"
   inkscape:cx="10.929123"
   inkscape:cy="27.2925"
   inkscape:window-x="49"
   inkscape:window-y="24"
   inkscape:window-maximized="1"
   inkscape:current-layer="Capa_1" />
























<g
   id="g86"
   transform="matrix(1.781738,0,0,1.6188884,-21.336476,0.10731683)"><path
     style="fill:#dc691d"
     d="M 27.293,1.762 22.301,0 C 22.3,0.029 22.292,0.056 22.292,0.085 v 8 c 0,2.475 2.025,4.5 4.5,4.5 0.171,0 0.334,-0.032 0.5,-0.051 V 1.762 Z"
     id="path4" /><g
     id="g63"><line
       style="fill:none;stroke:#23a24d;stroke-width:2;stroke-linecap:round;stroke-miterlimit:10"
       x1="27.292999"
       y1="32.584999"
       x2="27.292999"
       y2="11.585"
       id="line2" /><path
       style="fill:#ed8a19"
       d="m 27.293,4.585 4.991,-1.762 c 10e-4,0.029 0.009,0.056 0.009,0.085 v 5.176 c 0,2.475 -2.025,4.5 -4.5,4.5 -0.171,0 -0.334,-0.032 -0.5,-0.051 z"
       id="path6" /><path
       style="fill:#88c057"
       d="m 27.293,22.585 c 3.316,0 6,-2.684 6,-6 -3.317,0 -6,2.684 -6,6 z"
       id="path8" /><path
       style="fill:#88c057"
       d="m 27.293,29.585 c 0,-3.316 -2.684,-6 -6,-6 0,3.317 2.683,6 6,6 z"
       id="path10" /></g><g
     id="g22">
</g><g
     id="g24">
</g><g
     id="g26">
</g><g
     id="g28">
</g><g
     id="g30">
</g><g
     id="g32">
</g><g
     id="g34">
</g><g
     id="g36">
</g><g
     id="g38">
</g><g
     id="g40">
</g><g
     id="g42">
</g><g
     id="g44">
</g><g
     id="g46">
</g><g
     id="g48">
</g><g
     id="g50">
</g></g>
</svg>
