<?xml version="1.0" encoding="iso-8859-1"?>
<!-- Generator: Adobe Illustrator 19.0.0, SVG Export Plug-In . SVG Version: 6.00 Build 0)  -->
<svg version="1.1" id="Layer_1" xmlns="http://www.w3.org/2000/svg" xmlns:xlink="http://www.w3.org/1999/xlink" x="0px" y="0px"
	 viewBox="0 0 512 512" style="enable-background:new 0 0 512 512;" xml:space="preserve">
<path style="fill:#E6E7E8;" d="M312.8,40c4.4,0,8-3.6,8-8s-3.6-8-8-8s-8,3.6-8,8C305.2,36.4,308.4,40,312.8,40z M273.2,32
	c0,4.4,3.6,8,8,8s8-3.6,8-8s-3.6-8-8-8S273.2,27.6,273.2,32z M164,36c0,4.4,3.6,8,8,8h16h32h16c4.4,0,8-3.6,8-8v-8c0-4.4-3.6-8-8-8
	h-16h-32h-16c-4.4,0-8,3.6-8,8V36z M376,60v280v168H136V340V60V32.8c0-16,14-28.8,30-28.8h182.4c16,0,27.6,12.8,27.6,28.8V60z
	 M161.6,372c0,4.4,3.6,8,8,8h59.6c4.4,0,8-3.6,8-8s-3.6-8-8-8h-59.6C164.8,364,161.6,367.6,161.6,372z M169.6,316h59.6
	c4.4,0,8-3.6,8-8s-3.6-8-8-8h-59.6c-4.4,0-8,3.6-8,8S164.8,316,169.6,316z"/>
<g>
	<path style="fill:#6D6E71;" d="M305.2,32c0-4.4,3.6-8,8-8s8,3.6,8,8s-3.6,8-8,8S305.2,36.4,305.2,32z"/>
	<path style="fill:#6D6E71;" d="M281.2,24c4.4,0,8,3.6,8,8s-3.6,8-8,8s-8-3.6-8-8S276.8,24,281.2,24z"/>
</g>
<path style="fill:#EAAA0A;" d="M188,20v24h-16c-4.4,0-8-3.6-8-8v-8c0-4.4,3.6-8,8-8H188z"/>
<path style="fill:#97A0AF;" d="M229.2,364c4.4,0,8,3.6,8,8s-3.6,8-8,8h-59.6c-4.4,0-8-3.6-8-8s3.6-8,8-8H229.2z"/>
<rect x="188" y="20" style="fill:#F23B3B;" width="32" height="24"/>
<path style="fill:#97A0AF;" d="M229.2,300c4.4,0,8,3.6,8,8s-3.6,8-8,8h-59.6c-4.4,0-8-3.6-8-8s3.6-8,8-8H229.2z"/>
<path style="fill:#EAAA0A;" d="M236,20c4.4,0,8,3.6,8,8v8c0,4.4-3.6,8-8,8h-16V20H236z"/>
<path d="M376,512H136c-2.4,0-4-1.6-4-4V32.8c0-18,15.6-32.8,34-32.8h182.4C366,0,380,14.4,380,32.8V508C380,510.4,378.4,512,376,512
	z M140,504h232V32.8c0-14-10.4-24.8-23.6-24.8H166c-14,0-26,11.2-26,24.8V504z"/>
<path d="M376,344h-24c-2.4,0-4-1.6-4-4s1.6-4,4-4h24c2.4,0,4,1.6,4,4S378.4,344,376,344z"/>
<path d="M324,344H136c-2.4,0-4-1.6-4-4s1.6-4,4-4h188c2.4,0,4,1.6,4,4S326.4,344,324,344z"/>
<path d="M376,64h-24c-2.4,0-4-1.6-4-4s1.6-4,4-4h24c2.4,0,4,1.6,4,4S378.4,64,376,64z"/>
<path d="M324,64H136c-2.4,0-4-1.6-4-4s1.6-4,4-4h188c2.4,0,4,1.6,4,4S326.4,64,324,64z"/>
<path d="M229.2,320h-59.6c-6.8,0-12-5.2-12-12s5.2-12,12-12h59.6c6.8,0,12,5.2,12,12S235.6,320,229.2,320z M169.6,304
	c-2.4,0-4,1.6-4,4s1.6,4,4,4h59.6c2.4,0,4-1.6,4-4s-1.6-4-4-4H169.6z"/>
<path d="M229.2,384h-59.6c-6.8,0-12-5.2-12-12s5.2-12,12-12h59.6c6.8,0,12,5.2,12,12S235.6,384,229.2,384z M169.6,368
	c-2.4,0-4,1.6-4,4s1.6,4,4,4h59.6c2.4,0,4-1.6,4-4s-1.6-4-4-4H169.6z"/>
<path d="M236,48h-64c-6.8,0-12-5.2-12-12v-8c0-6.8,5.2-12,12-12h64c6.8,0,12,5.2,12,12v8C248,42.8,242.8,48,236,48z M172,24
	c-2.4,0-4,1.6-4,4v8c0,2.4,1.6,4,4,4h64c2.4,0,4-1.6,4-4v-8c0-2.4-1.6-4-4-4H172z"/>
<path d="M188,48c-2.4,0-4-1.6-4-4V20c0-2.4,1.6-4,4-4s4,1.6,4,4v24C192,46.4,190.4,48,188,48z"/>
<path d="M220,48c-2.4,0-4-1.6-4-4V20c0-2.4,1.6-4,4-4s4,1.6,4,4v24C224,46.4,222.4,48,220,48z"/>
<path d="M281.2,44c-6.4,0-12-5.2-12-12c0-3.2,1.2-6,3.6-8.4c2.4-2.4,5.2-3.6,8.4-3.6c6.4,0,12,5.2,12,12
	C292.8,38.4,287.6,44,281.2,44z M281.2,28c-1.2,0-2,0.4-2.8,1.2c-0.8,0.8-1.2,1.6-1.2,2.8c0,2,1.6,4,4,4c2,0,4-1.6,4-4
	C284.8,29.6,283.2,28,281.2,28z"/>
<path d="M312.8,44c-6.4,0-12-5.2-12-12c0-6.4,5.2-12,12-12s12,5.2,12,12C324.8,38.4,319.6,44,312.8,44z M312.8,28c-2,0-4,1.6-4,4
	c0,2,1.6,4,4,4s4-1.6,4-4S315.2,28,312.8,28z"/>
<g>
</g>
<g>
</g>
<g>
</g>
<g>
</g>
<g>
</g>
<g>
</g>
<g>
</g>
<g>
</g>
<g>
</g>
<g>
</g>
<g>
</g>
<g>
</g>
<g>
</g>
<g>
</g>
<g>
</g>
</svg>
