<?xml version="1.0" encoding="UTF-8" standalone="no"?>
<svg
   xmlns:dc="http://purl.org/dc/elements/1.1/"
   xmlns:cc="http://creativecommons.org/ns#"
   xmlns:rdf="http://www.w3.org/1999/02/22-rdf-syntax-ns#"
   xmlns:svg="http://www.w3.org/2000/svg"
   xmlns="http://www.w3.org/2000/svg"
   xmlns:sodipodi="http://sodipodi.sourceforge.net/DTD/sodipodi-0.dtd"
   xmlns:inkscape="http://www.inkscape.org/namespaces/inkscape"
   version="1.1"
   id="Layer_1"
   x="0px"
   y="0px"
   viewBox="0 0 512 512"
   style="enable-background:new 0 0 512 512;"
   xml:space="preserve"
   sodipodi:docname="fridge-open.svg"
   inkscape:version="1.0.2 (1.0.2+r75+1)"><metadata
   id="metadata79"><rdf:RDF><cc:Work
       rdf:about=""><dc:format>image/svg+xml</dc:format><dc:type
         rdf:resource="http://purl.org/dc/dcmitype/StillImage" /><dc:title></dc:title></cc:Work></rdf:RDF></metadata><defs
   id="defs77" /><sodipodi:namedview
   pagecolor="#ffffff"
   bordercolor="#666666"
   borderopacity="1"
   objecttolerance="10"
   gridtolerance="10"
   guidetolerance="10"
   inkscape:pageopacity="0"
   inkscape:pageshadow="2"
   inkscape:window-width="1391"
   inkscape:window-height="839"
   id="namedview75"
   showgrid="false"
   inkscape:zoom="1.2558594"
   inkscape:cx="303.58971"
   inkscape:cy="255.31241"
   inkscape:window-x="49"
   inkscape:window-y="24"
   inkscape:window-maximized="1"
   inkscape:current-layer="Layer_1" />
<path
   style="fill:#E6E7E8;"
   d="M312.8,40c4.4,0,8-3.6,8-8s-3.6-8-8-8s-8,3.6-8,8C305.2,36.4,308.4,40,312.8,40z M273.2,32  c0,4.4,3.6,8,8,8s8-3.6,8-8s-3.6-8-8-8S273.2,27.6,273.2,32z M164,36c0,4.4,3.6,8,8,8h16h32h16c4.4,0,8-3.6,8-8v-8c0-4.4-3.6-8-8-8  h-16h-32h-16c-4.4,0-8,3.6-8,8V36z M376,60v280v168H136V340V60V32.8c0-16,14-28.8,30-28.8h182.4c16,0,27.6,12.8,27.6,28.8V60z   M161.6,372c0,4.4,3.6,8,8,8h59.6c4.4,0,8-3.6,8-8s-3.6-8-8-8h-59.6C164.8,364,161.6,367.6,161.6,372z M169.6,316h59.6  c4.4,0,8-3.6,8-8s-3.6-8-8-8h-59.6c-4.4,0-8,3.6-8,8S164.8,316,169.6,316z"
   id="path2" /><rect
   style="fill:#80e5ff"
   id="rect81"
   width="241.12714"
   height="447.82782"
   x="134.87286"
   y="60.172192" />
<g
   id="g8">
	<path
   style="fill:#6D6E71;"
   d="M305.2,32c0-4.4,3.6-8,8-8s8,3.6,8,8s-3.6,8-8,8S305.2,36.4,305.2,32z"
   id="path4" />
	<path
   style="fill:#6D6E71;"
   d="M281.2,24c4.4,0,8,3.6,8,8s-3.6,8-8,8s-8-3.6-8-8S276.8,24,281.2,24z"
   id="path6" />
</g>
<path
   style="fill:#EAAA0A;"
   d="M188,20v24h-16c-4.4,0-8-3.6-8-8v-8c0-4.4,3.6-8,8-8H188z"
   id="path10" />

<rect
   x="188"
   y="20"
   style="fill:#F23B3B;"
   width="32"
   height="24"
   id="rect14" />

<path
   style="fill:#EAAA0A;"
   d="M236,20c4.4,0,8,3.6,8,8v8c0,4.4-3.6,8-8,8h-16V20H236z"
   id="path18" />
<path
   d="M376,512H136c-2.4,0-4-1.6-4-4V32.8c0-18,15.6-32.8,34-32.8h182.4C366,0,380,14.4,380,32.8V508C380,510.4,378.4,512,376,512  z M140,504h232V32.8c0-14-10.4-24.8-23.6-24.8H166c-14,0-26,11.2-26,24.8V504z"
   id="path20" />
<path
   d="M376,344h-24c-2.4,0-4-1.6-4-4s1.6-4,4-4h24c2.4,0,4,1.6,4,4S378.4,344,376,344z"
   id="path22" />
<path
   d="M324,344H136c-2.4,0-4-1.6-4-4s1.6-4,4-4h188c2.4,0,4,1.6,4,4S326.4,344,324,344z"
   id="path24" />
<path
   d="M376,64h-24c-2.4,0-4-1.6-4-4s1.6-4,4-4h24c2.4,0,4,1.6,4,4S378.4,64,376,64z"
   id="path26" />
<path
   d="M324,64H136c-2.4,0-4-1.6-4-4s1.6-4,4-4h188c2.4,0,4,1.6,4,4S326.4,64,324,64z"
   id="path28" />


<path
   d="M236,48h-64c-6.8,0-12-5.2-12-12v-8c0-6.8,5.2-12,12-12h64c6.8,0,12,5.2,12,12v8C248,42.8,242.8,48,236,48z M172,24  c-2.4,0-4,1.6-4,4v8c0,2.4,1.6,4,4,4h64c2.4,0,4-1.6,4-4v-8c0-2.4-1.6-4-4-4H172z"
   id="path34" />
<path
   d="M188,48c-2.4,0-4-1.6-4-4V20c0-2.4,1.6-4,4-4s4,1.6,4,4v24C192,46.4,190.4,48,188,48z"
   id="path36" />
<path
   d="M220,48c-2.4,0-4-1.6-4-4V20c0-2.4,1.6-4,4-4s4,1.6,4,4v24C224,46.4,222.4,48,220,48z"
   id="path38" />
<path
   d="M281.2,44c-6.4,0-12-5.2-12-12c0-3.2,1.2-6,3.6-8.4c2.4-2.4,5.2-3.6,8.4-3.6c6.4,0,12,5.2,12,12  C292.8,38.4,287.6,44,281.2,44z M281.2,28c-1.2,0-2,0.4-2.8,1.2c-0.8,0.8-1.2,1.6-1.2,2.8c0,2,1.6,4,4,4c2,0,4-1.6,4-4  C284.8,29.6,283.2,28,281.2,28z"
   id="path40" />
<path
   d="M312.8,44c-6.4,0-12-5.2-12-12c0-6.4,5.2-12,12-12s12,5.2,12,12C324.8,38.4,319.6,44,312.8,44z M312.8,28c-2,0-4,1.6-4,4  c0,2,1.6,4,4,4s4-1.6,4-4S315.2,28,312.8,28z"
   id="path42" />
<g
   id="g44">
</g>
<g
   id="g46">
</g>
<g
   id="g48">
</g>
<g
   id="g50">
</g>
<g
   id="g52">
</g>
<g
   id="g54">
</g>
<g
   id="g56">
</g>
<g
   id="g58">
</g>
<g
   id="g60">
</g>
<g
   id="g62">
</g>
<g
   id="g64">
</g>
<g
   id="g66">
</g>
<g
   id="g68">
</g>
<g
   id="g70">
</g>
<g
   id="g72">
</g>
<path
   style="fill:#aaeeff;stroke-width:0.796268"
   d="m 140.35487,424.12112 v -79.62675 h 92.70829 c 83.21857,0 92.83637,-0.12808 93.95956,-1.25128 1.48079,-1.48079 1.64863,-5.19927 0.29576,-6.55215 -0.73227,-0.73227 -22.68478,-0.95552 -93.95956,-0.95552 H 140.35487 V 199.9751 64.214787 l 93.36237,-0.202357 93.36236,-0.202357 0.78602,-1.791601 c 0.75104,-1.71187 1.20285,-1.791602 10.15241,-1.791602 5.23309,0 9.36639,0.326286 9.36639,0.739391 0,0.406665 0.56307,1.302466 1.25128,1.990669 1.01328,1.013284 3.28503,1.251277 11.94401,1.251277 h 10.69274 v 135.763613 135.7636 h -10.73126 c -10.69409,0 -10.73598,0.007 -12.09571,2.08243 -1.22361,1.86747 -1.24304,2.29898 -0.18818,4.1804 1.17094,2.08845 1.22588,2.09899 12.09571,2.31952 l 10.91944,0.22154 v 79.60428 79.60428 H 255.81366 140.35487 Z"
   id="path101" /></svg>
