<svg height="512" viewBox="0 0 64 64" width="512" xmlns="http://www.w3.org/2000/svg"><g id="Filled_outline" data-name="Filled outline"><rect fill="#aabece" height="18" rx="2" transform="matrix(-1 0 0 -1 64 68)" width="58" x="3" y="25"/><path d="m6 43h6v4h-6z" fill="#143441"/><path d="m53 43h6v4h-6z" fill="#143441"/><circle cx="52" cy="34" fill="#394d5c" r="5"/><path d="m39 29h4v10h-4z" fill="#f4f4e6"/><g fill="#195c85"><path d="m29 17h6v8h-6z"/><path d="m15 17h-8v3 1 4h4v-4h4z"/><path d="m49 17h8v3 1 4h-4v-4h-4z"/></g><path d="m19 21h10v4h-10z" fill="#143441"/><path d="m35 21h10v4h-10z" fill="#143441"/><path d="m59 24h-1v-7a1 1 0 0 0 -1-1h-8a1 1 0 0 0 -1 1v4a1 1 0 0 0 1 1h3v2h-6v-3a1 1 0 0 0 -1-1h-9v-3a1 1 0 0 0 -1-1h-6a1 1 0 0 0 -1 1v3h-9a1 1 0 0 0 -1 1v3h-6v-2h3a1 1 0 0 0 1-1v-4a1 1 0 0 0 -1-1h-8a1 1 0 0 0 -1 1v7h-1a2.87 2.87 0 0 0 -3 3v14a2.87 2.87 0 0 0 3 3v3a1 1 0 0 0 1 1h6a1 1 0 0 0 1-1v-3h39v3a1 1 0 0 0 1 1h6a1 1 0 0 0 1-1v-3.16a2.835 2.835 0 0 0 2-2.84v-14a2.87 2.87 0 0 0 -3-3zm-9-4v-2h6v6h-2v-3a1 1 0 0 0 -1-1zm-9 2h3v2h-3zm-5 0h3v2h-3zm-6-4h4v6h-4zm-5 4h3v2h-3zm-5 0h3v2h-3zm-12-4h6v2h-3a1 1 0 0 0 -1 1v3h-2zm3 28h-4v-2h4zm47 0h-4v-2h4zm2-5a.879.879 0 0 1 -1 1h-54a.879.879 0 0 1 -1-1v-14a.879.879 0 0 1 1-1h54a.879.879 0 0 1 1 1z"/><path d="m52 28a6 6 0 1 0 6 6 6.006 6.006 0 0 0 -6-6zm0 10a3.992 3.992 0 0 1 -1-7.858v3.858h2v-3.858a3.992 3.992 0 0 1 -1 7.858z"/><path d="m43 28h-4a1 1 0 0 0 -1 1v10a1 1 0 0 0 1 1h4a1 1 0 0 0 1-1v-10a1 1 0 0 0 -1-1zm-1 10h-2v-4h2zm0-6h-2v-2h2z"/><path d="m6 28h6v2h-6z"/><path d="m6 38h2v2h-2z"/><path d="m10 38h2v2h-2z"/><path d="m14 38h2v2h-2z"/><path d="m18 38h2v2h-2z"/><path d="m22 38h2v2h-2z"/><path d="m26 38h2v2h-2z"/></g></svg>