<?xml version="1.0" encoding="UTF-8" standalone="no"?>
<svg
   xmlns:dc="http://purl.org/dc/elements/1.1/"
   xmlns:cc="http://creativecommons.org/ns#"
   xmlns:rdf="http://www.w3.org/1999/02/22-rdf-syntax-ns#"
   xmlns:svg="http://www.w3.org/2000/svg"
   xmlns="http://www.w3.org/2000/svg"
   xmlns:sodipodi="http://sodipodi.sourceforge.net/DTD/sodipodi-0.dtd"
   xmlns:inkscape="http://www.inkscape.org/namespaces/inkscape"
   version="1.1"
   id="Capa_1"
   x="0px"
   y="0px"
   viewBox="0 0 130 453.517"
   xml:space="preserve"
   sodipodi:docname="hat-stand.svg"
   width="130"
   height="453.517"
   inkscape:version="1.0.2 (1.0.2+r75+1)"><metadata
   id="metadata39"><rdf:RDF><cc:Work
       rdf:about=""><dc:format>image/svg+xml</dc:format><dc:type
         rdf:resource="http://purl.org/dc/dcmitype/StillImage" /><dc:title></dc:title></cc:Work></rdf:RDF></metadata><defs
   id="defs37" /><sodipodi:namedview
   pagecolor="#ffffff"
   bordercolor="#666666"
   borderopacity="1"
   objecttolerance="10"
   gridtolerance="10"
   guidetolerance="10"
   inkscape:pageopacity="0"
   inkscape:pageshadow="2"
   inkscape:window-width="1391"
   inkscape:window-height="839"
   id="namedview35"
   showgrid="false"
   inkscape:zoom="1.3386844"
   inkscape:cx="5.8531096"
   inkscape:cy="183.87632"
   inkscape:window-x="49"
   inkscape:window-y="24"
   inkscape:window-maximized="1"
   inkscape:current-layer="Capa_1" />
<path
   d="m 125.4605,444.898 c -27.725,-12.237 -43.829,-28.421 -47.861,-48.1 -6.372,-31.092 19.119,-62.408 24.261,-68.336 1.539,-0.716 2.611,-2.264 2.611,-4.072 0,-2.485 -2.015,-4.5 -4.5,-4.5 H 75.8985 V 117.611 c 1.89,1.294 3.996,2.018 6.25,2.018 1.159,0 2.205,-0.45 3.002,-1.17 2.363,0.757 4.88,1.17 7.492,1.17 2.485,0 4.5,-2.015 4.5,-4.5 0,-2.485 -2.015,-4.5 -4.5,-4.5 -8.581,0 -15.562,-6.953 -15.562,-15.5 0,-8.548 6.981,-15.502 15.562,-15.502 22.184,0 35.444,-11.626 35.49,-31.104 0.064,-1.714 0.131,-14.404 -11.322,-21.074 -2.147,-1.251 -4.902,-0.523 -6.153,1.624 -1.25,2.147 -0.523,4.902 1.624,6.153 7.182,4.183 6.874,12.599 6.859,12.924 -0.005,0.091 -0.008,0.183 -0.008,0.273 0,15.456 -10.218,20.626 -20.662,21.873 2.804,-4.649 4.775,-11.554 4.784,-21.805 0.047,-1.684 0.14,-13.466 -6.057,-20.201 -1.683,-1.829 -4.529,-1.947 -6.358,-0.265 -1.829,1.683 -1.947,4.529 -0.265,6.358 3.247,3.529 3.759,11.231 3.683,13.893 -10e-4,0.049 -0.002,0.098 -0.002,0.146 0,8.292 -1.573,22.203 -12.106,22.203 -2.253,0 -4.361,0.713 -6.25,2.005 V 20.206 c 1.355,-2.057 2.15,-4.515 2.15,-7.157 C 78.0485,5.853 72.1955,0 65.0005,0 c -7.195,0 -13.049,5.853 -13.049,13.049 0,2.644 0.795,5.102 2.151,7.159 v 52.446 c -1.891,-1.296 -3.995,-2.027 -6.251,-2.027 -10.533,0 -12.106,-13.911 -12.106,-22.203 0,-0.043 -10e-4,-0.095 -0.002,-0.138 -0.077,-2.67 0.436,-10.372 3.682,-13.901 1.683,-1.829 1.564,-4.676 -0.265,-6.358 -1.829,-1.683 -4.675,-1.563 -6.358,0.265 -6.197,6.735 -6.104,18.518 -6.057,20.201 0.008,10.251 1.98,17.155 4.784,21.805 -10.444,-1.247 -20.662,-6.417 -20.662,-21.873 0,-0.091 -0.003,-0.183 -0.008,-0.273 -0.005,-0.086 -0.441,-8.673 6.859,-12.924 2.147,-1.251 2.875,-4.006 1.624,-6.153 -1.251,-2.147 -4.004,-2.876 -6.153,-1.624 -11.453,6.67 -11.385,19.36 -11.322,21.074 0.045,19.478 13.305,31.104 35.49,31.104 8.581,0 15.562,6.954 15.562,15.502 0,8.547 -6.981,15.5 -15.562,15.5 -2.485,0 -4.5,2.015 -4.5,4.5 0,2.485 2.015,4.5 4.5,4.5 2.612,0 5.129,-0.413 7.492,-1.17 0.797,0.72 1.843,1.17 3.002,1.17 2.255,0 4.362,-0.716 6.251,-2.01 v 202.271 h -24.074 c -2.485,0 -4.5,2.015 -4.5,4.5 0,1.81 1.075,3.359 2.615,4.074 5.145,5.916 30.625,37.145 24.265,68.299 -4.021,19.694 -20.126,35.89 -47.869,48.135 -2.273,1.004 -3.303,3.661 -2.299,5.935 0.743,1.683 2.391,2.684 4.119,2.684 0.607,0 1.224,-0.123 1.815,-0.384 15.602,-6.887 27.878,-15.046 36.785,-24.402 h 40.081 c 8.907,9.356 21.184,17.516 36.785,24.402 0.591,0.261 1.208,0.384 1.815,0.384 1.728,0 3.376,-1.001 4.119,-2.684 1.004,-2.275 -0.026,-4.933 -2.299,-5.937 z M 75.8975,328.891 h 14.019 c -4.121,5.44 -9.544,13.483 -14.019,23.13 z M 65.0005,9 c 2.232,0 4.048,1.816 4.048,4.049 0,2.233 -1.816,4.049 -4.048,4.049 -2.232,0 -4.049,-1.816 -4.049,-4.049 0,-2.233 1.816,-4.049 4.049,-4.049 z m -1.898,310.891 V 25.943 c 0.621,0.092 1.251,0.154 1.897,0.154 0.646,0 1.276,-0.063 1.897,-0.154 V 319.89 h -3.794 z m 3.795,9 v 61.65 h -3.795 v -61.65 z m -26.814,0 h 14.02 v 23.132 c -4.476,-9.648 -9.9,-17.693 -14.02,-23.132 z m 12.154,90.839 c 4.242,-6.279 7.175,-13.013 8.77,-20.19 h 7.985 c 1.594,7.177 4.528,13.91 8.769,20.19 z"
   id="path2" />
<g
   id="g4">
</g>
<g
   id="g6">
</g>
<g
   id="g8">
</g>
<g
   id="g10">
</g>
<g
   id="g12">
</g>
<g
   id="g14">
</g>
<g
   id="g16">
</g>
<g
   id="g18">
</g>
<g
   id="g20">
</g>
<g
   id="g22">
</g>
<g
   id="g24">
</g>
<g
   id="g26">
</g>
<g
   id="g28">
</g>
<g
   id="g30">
</g>
<g
   id="g32">
</g>
</svg>
