<?xml version="1.0" encoding="UTF-8" standalone="no"?>
<svg
   xmlns:dc="http://purl.org/dc/elements/1.1/"
   xmlns:cc="http://creativecommons.org/ns#"
   xmlns:rdf="http://www.w3.org/1999/02/22-rdf-syntax-ns#"
   xmlns:svg="http://www.w3.org/2000/svg"
   xmlns="http://www.w3.org/2000/svg"
   version="1.1"
   id="Capa_1"
   x="0px"
   y="0px"
   viewBox="0 0 439.376 439.376"
   style="enable-background:new 0 0 439.376 439.376;"
   xml:space="preserve"><metadata
   id="metadata38"><rdf:RDF><cc:Work
       rdf:about=""><dc:format>image/svg+xml</dc:format><dc:type
         rdf:resource="http://purl.org/dc/dcmitype/StillImage" /><dc:title></dc:title></cc:Work></rdf:RDF></metadata><defs
   id="defs36" />
<path
   style="fill:#4d4d4d;stroke-width:0.72371"
   d="m 98.587201,260.457 c -0.265361,-0.26536 -0.485655,-0.99812 -0.489544,-1.62835 -0.02397,-3.88517 -6.181635,-12.693 -11.659667,-16.67782 l -2.620364,-1.9061 16.448664,-35.78914 c 21.62135,-47.0439 24.74157,-53.51165 28.65633,-59.4003 8.03899,-12.09237 23.30465,-23.86884 36.84899,-28.42661 3.61348,-1.21597 3.63526,-1.24256 15.55976,-19.00349 13.0527,-19.44131 16.626,-23.420029 22.63668,-25.20501 6.59656,-1.958969 9.48247,-1.167411 15.4822,4.246517 5.37211,4.847591 6.9758,8.542663 6.63517,15.288118 l -0.27143,5.375043 -12.29029,18.200682 c -6.75967,10.01037 -12.38027,18.43355 -12.49025,18.71816 -0.10997,0.28461 3.26979,2.90086 7.51056,5.81388 6.00374,4.12401 7.84238,5.07257 8.30627,4.28521 0.32767,-0.55616 5.25397,-7.85025 10.94734,-16.2091 l 10.35158,-15.19791 39.80075,-0.2187 c 27.5517,-0.1514 41.47122,0.0389 45.22858,0.61838 24.03004,3.70591 44.69312,18.94468 55.39317,40.85179 7.36553,15.08003 7.12805,13.05313 7.39799,63.1437 l 0.23498,43.60352 H 286.03677 185.86888 l -20.72041,-14.65512 -20.72041,-14.65513 52.10417,-0.18569 52.10417,-0.18568 v -9.40348 -9.40347 h -65.09566 -65.09566 l -2.93308,9.01556 c -1.61319,4.95855 -2.92235,9.43651 -2.90924,9.95102 0.0131,0.51449 8.96902,7.24533 19.90203,14.95742 10.933,7.71207 19.87819,14.14405 19.87819,14.29327 0,0.49159 -53.302245,0.28236 -53.795779,-0.21117 z M 173.37056,156.00153 v -9.40823 h -11.2175 -11.2175 v 9.40823 9.40823 h 11.2175 11.2175 z"
   id="path42" /><rect
   style="fill:#4d4d4d"
   id="rect48"
   width="31.222118"
   height="33.900494"
   x="55.26955"
   y="252.44475" /><rect
   style="fill:#4d4d4d"
   id="rect50"
   width="45.843143"
   height="47.040928"
   x="100.44466"
   y="66.108589" /><rect
   style="fill:#4d4d4d"
   id="rect52"
   width="300.67535"
   height="76.869225"
   x="90.514305"
   y="186.70839"
   ry="0" /><rect
   style="fill:#4d4d4d"
   id="rect56"
   width="106.40838"
   height="183.22264"
   x="122.54821"
   y="86.486588" /><rect
   style="fill:#4d4d4d"
   id="rect58"
   width="46.074627"
   height="27.164612"
   x="183.98387"
   y="69.042168" /><rect
   style="fill:#4d4d4d"
   id="rect60"
   width="31.841295"
   height="20.909494"
   x="107.59634"
   y="105.99432" /><rect
   style="fill:#4d4d4d"
   id="rect64"
   width="35.001541"
   height="39.767628"
   x="73.536095"
   y="220.13582" /><rect
   style="fill:#4d4d4d"
   id="rect68"
   width="35.70089"
   height="42.896336"
   x="107.41082"
   y="151.22282" /><rect
   style="fill:#4d4d4d"
   id="rect70"
   width="140.15829"
   height="19.459312"
   x="212.04843"
   y="111.8338" /><rect
   style="fill:#4d4d4d"
   id="rect72"
   width="45.590679"
   height="63.811527"
   x="344.76788"
   y="136.61264" /><rect
   style="fill:#4d4d4d"
   id="rect74"
   width="39.41684"
   height="26.978693"
   x="329.04019"
   y="123.15945" /><path
   id="XMLID_195_"
   d="M404.767,261.139v-74.563c0-51.009-41.5-92.508-92.509-92.508h-67.479  c0.281-3.339,0.105-6.741-0.543-10.129c-1.802-9.412-7.037-17.579-14.778-23.086c-6.138-5.778-14.414-8.485-23.404-7.631  c-11.168,1.06-22.066,7.556-28.443,16.953l-11.02,16.241l-13.83-20.38c-11.406-16.807-34.356-21.201-51.166-9.796  c-8.115,5.507-13.606,13.875-15.46,23.561c-1.854,9.686,0.158,19.488,5.665,27.602l20.178,29.738  c-3.34,5.218-6.165,10.779-8.394,16.602c-3.071,5.748-5.874,11.873-8.587,17.802l-6.241,13.637l-58.731-41.61l-10.405,14.688  l61.513,43.581l-7.942,17.354l-73.188-0.004l-0.001,18l64.952,0.004l-0.211,0.461c-13.738,2.347-24.228,14.339-24.228,28.736  c0,16.074,13.078,29.151,29.152,29.151c11.526,0,21.512-6.725,26.24-16.456h83.591l38.93,27.582l10.406-14.688l-18.2-12.895h192.146  c10.255,0,18.598,8.344,18.598,18.6c0,10.255-8.343,18.598-18.598,18.598H298.264c-20.18,0-36.598,16.418-36.598,36.599  s16.417,36.599,36.598,36.599h58.18v-18h-58.18c-10.255,0-18.598-8.344-18.598-18.6c0-10.255,8.343-18.598,18.598-18.598h104.515  c20.18,0,36.598-16.418,36.598-36.599C439.376,278.17,424.027,262.174,404.767,261.139z M69.666,277.541  c-6.149,0-11.152-5.002-11.152-11.151c0-6.149,5.003-11.152,11.152-11.152s11.152,5.003,11.152,11.152  C80.817,272.539,75.815,277.541,69.666,277.541z M106.693,97.294c-2.807-4.136-3.83-9.147-2.879-14.11s3.752-9.244,7.89-12.051  c3.13-2.124,6.76-3.227,10.49-3.227c1.202,0,2.414,0.115,3.622,0.346c4.963,0.95,9.242,3.752,12.05,7.89l16.928,24.946  c-11.713,4.883-22.309,12.193-31.101,21.261L106.693,97.294z M386.767,261.086h-201.54l-42.406-30.044l105.631,0.008l0.001-18  l-129.798-0.01l-6.003,18.687l41.439,29.359H98.334c-1.646-8.913-7.358-16.418-15.134-20.511l28.165-61.541  c2.8-6.119,5.445-11.899,8.348-17.282l0.292-0.54l0.215-0.574c7.771-20.734,24.902-37.399,45.828-44.579l2.84-0.975l23.616-34.803  c3.39-4.995,9.375-8.583,15.249-9.14c2.731-0.259,6.615,0.059,9.604,3.048l0.604,0.604l0.707,0.479  c4.137,2.808,6.939,7.087,7.889,12.051c0.95,4.963-0.073,9.975-2.88,14.111l-22.468,33.109l14.895,10.107l22.112-32.584h74.042  c41.084,0,74.509,33.424,74.509,74.508V261.086z M151.593,146.855h21.763v18h-21.763V146.855z" />
<g
   id="g3">
</g>
<g
   id="g5">
</g>
<g
   id="g7">
</g>
<g
   id="g9">
</g>
<g
   id="g11">
</g>
<g
   id="g13">
</g>
<g
   id="g15">
</g>
<g
   id="g17">
</g>
<g
   id="g19">
</g>
<g
   id="g21">
</g>
<g
   id="g23">
</g>
<g
   id="g25">
</g>
<g
   id="g27">
</g>
<g
   id="g29">
</g>
<g
   id="g31">
</g>
<path
   style="fill:#4d4d4d;stroke-width:0.72371"
   d="M 115.07327,108.84206 C 105.39602,94.634685 103.9324,91.796713 103.9103,87.197071 c -0.0781,-16.257046 19.45192,-24.869997 30.93534,-13.642825 1.71383,1.675584 15.8811,21.949403 18.53023,26.517344 0.34058,0.58727 -1.24109,1.76368 -4.74087,3.52614 -7.3403,3.69652 -14.25111,8.37272 -19.78407,13.38691 -2.59682,2.35335 -4.85546,4.27881 -5.0192,4.27881 -0.16375,0 -4.10505,-5.58963 -8.75846,-12.42139 z"
   id="path44" /><path
   style="fill:#4d4d4d;stroke-width:0.72371"
   d="m 64.264671,275.41758 c -6.904726,-4.20986 -6.904726,-13.80784 0,-18.14356 3.70985,-2.32955 9.242722,-1.65366 12.527816,1.53038 5.278041,5.11568 4.546014,12.63931 -1.6257,16.70864 -2.725969,1.79737 -7.871527,1.75231 -10.902116,-0.0955 z"
   id="path46" /></svg>
