<?xml version="1.0" encoding="UTF-8" standalone="no"?>
<svg
   xmlns:dc="http://purl.org/dc/elements/1.1/"
   xmlns:cc="http://creativecommons.org/ns#"
   xmlns:rdf="http://www.w3.org/1999/02/22-rdf-syntax-ns#"
   xmlns:svg="http://www.w3.org/2000/svg"
   xmlns="http://www.w3.org/2000/svg"
   xmlns:sodipodi="http://sodipodi.sourceforge.net/DTD/sodipodi-0.dtd"
   xmlns:inkscape="http://www.inkscape.org/namespaces/inkscape"
   version="1.1"
   id="Layer_1"
   x="0px"
   y="0px"
   viewBox="0 0 297 297"
   style="enable-background:new 0 0 297 297;"
   xml:space="preserve"
   sodipodi:docname="mouse-spray.svg"
   inkscape:version="1.0.2 (1.0.2+r75+1)"><metadata
   id="metadata50"><rdf:RDF><cc:Work
       rdf:about=""><dc:format>image/svg+xml</dc:format><dc:type
         rdf:resource="http://purl.org/dc/dcmitype/StillImage" /><dc:title></dc:title></cc:Work></rdf:RDF></metadata><defs
   id="defs48" /><sodipodi:namedview
   pagecolor="#ffffff"
   bordercolor="#666666"
   borderopacity="1"
   objecttolerance="10"
   gridtolerance="10"
   guidetolerance="10"
   inkscape:pageopacity="0"
   inkscape:pageshadow="2"
   inkscape:window-width="1391"
   inkscape:window-height="839"
   id="namedview46"
   showgrid="false"
   inkscape:zoom="2.0441621"
   inkscape:cx="148.5"
   inkscape:cy="148.5"
   inkscape:window-x="49"
   inkscape:window-y="24"
   inkscape:window-maximized="1"
   inkscape:current-layer="Layer_1" />
<g
   id="XMLID_24_">
	<g
   id="g12">
		<path
   style="fill:#D35400;"
   d="M159.625,9.67v22.26h-22.25v-6.29h4.35c2.67,0,4.84-2.17,4.84-4.84s-2.17-4.84-4.84-4.84h-4.35    V9.67H159.625z"
   id="path2" />
		<path
   d="M217.185,68.69v208.56c0,10.89-8.86,19.75-19.75,19.75h-97.87c-10.89,0-19.75-8.86-19.75-19.75V68.69    c0-2.67,2.16-4.84,4.83-4.84h3.67c11.55-11.71,25.84-19.6,41.49-23.1c-1.27-0.87-2.11-2.33-2.11-3.99V4.84    c0-2.67,2.17-4.84,4.84-4.84h31.93c2.67,0,4.83,2.17,4.83,4.84v31.92c0,1.66-0.83,3.12-2.1,3.99c15.64,3.5,29.93,11.39,41.49,23.1    h3.66C215.015,63.85,217.185,66.02,217.185,68.69z M207.515,277.25V73.52H89.485v38.22h90.94c2.67,0,4.84,2.16,4.84,4.83v79.82    c0,2.67-2.17,4.83-4.84,4.83h-90.94v76.03c0,5.56,4.52,10.08,10.08,10.08h97.87C202.995,287.33,207.515,282.81,207.515,277.25z     M102.885,63.85h91.23c-13.01-10.04-28.83-15.48-45.62-15.48C131.715,48.37,115.895,53.81,102.885,63.85z M175.585,191.55v-70.14    h-86.1v70.14H175.585z M159.625,31.93V9.67h-22.25v6.29h4.35c2.67,0,4.84,2.17,4.84,4.84s-2.17,4.84-4.84,4.84h-4.35v6.29H159.625    z"
   id="path4" />
		<path
   style="fill:#FFCD02;"
   d="M207.515,73.52v203.73c0,5.56-4.52,10.08-10.08,10.08h-97.87c-5.56,0-10.08-4.52-10.08-10.08    v-76.03h90.94c2.67,0,4.84-2.16,4.84-4.83v-79.82c0-2.67-2.17-4.83-4.84-4.83h-90.94V73.52H207.515z"
   id="path6" />
		<path
   style="fill:#D5C295;"
   d="M194.115,63.85h-91.23c13.01-10.04,28.83-15.48,45.61-15.48    C165.285,48.37,181.105,53.81,194.115,63.85z"
   id="path8" />
		<rect
   x="89.485"
   y="121.41"
   style="fill:#D35400;"
   width="86.1"
   height="70.14"
   id="rect10" />
	</g>
</g>
<g
   id="g15">
</g>
<g
   id="g17">
</g>
<g
   id="g19">
</g>
<g
   id="g21">
</g>
<g
   id="g23">
</g>
<g
   id="g25">
</g>
<g
   id="g27">
</g>
<g
   id="g29">
</g>
<g
   id="g31">
</g>
<g
   id="g33">
</g>
<g
   id="g35">
</g>
<g
   id="g37">
</g>
<g
   id="g39">
</g>
<g
   id="g41">
</g>
<g
   id="g43">
</g>
<g
   id="g929"
   transform="matrix(0.1706625,0,0,0.16558923,95.228086,120.74234)"><path
     id="XMLID_195_"
     d="m 404.767,261.139 v -74.563 c 0,-51.009 -41.5,-92.508 -92.509,-92.508 h -67.479 c 0.281,-3.339 0.105,-6.741 -0.543,-10.129 -1.802,-9.412 -7.037,-17.579 -14.778,-23.086 -6.138,-5.778 -14.414,-8.485 -23.404,-7.631 -11.168,1.06 -22.066,7.556 -28.443,16.953 l -11.02,16.241 -13.83,-20.38 C 141.355,49.229 118.405,44.835 101.595,56.24 93.48,61.747 87.989,70.115 86.135,79.801 c -1.854,9.686 0.158,19.488 5.665,27.602 l 20.178,29.738 c -3.34,5.218 -6.165,10.779 -8.394,16.602 -3.071,5.748 -5.874,11.873 -8.587,17.802 l -6.241,13.637 -58.731,-41.61 -10.405,14.688 61.513,43.581 -7.942,17.354 -73.188,-0.004 -0.001,18 64.952,0.004 -0.211,0.461 c -13.738,2.347 -24.228,14.339 -24.228,28.736 0,16.074 13.078,29.151 29.152,29.151 11.526,0 21.512,-6.725 26.24,-16.456 h 83.591 l 38.93,27.582 10.406,-14.688 -18.2,-12.895 H 402.78 c 10.255,0 18.598,8.344 18.598,18.6 0,10.255 -8.343,18.598 -18.598,18.598 H 298.264 c -20.18,0 -36.598,16.418 -36.598,36.599 0,20.181 16.417,36.599 36.598,36.599 h 58.18 v -18 h -58.18 c -10.255,0 -18.598,-8.344 -18.598,-18.6 0,-10.255 8.343,-18.598 18.598,-18.598 h 104.515 c 20.18,0 36.598,-16.418 36.598,-36.599 -0.001,-19.515 -15.35,-35.511 -34.61,-36.546 z M 69.666,277.541 c -6.149,0 -11.152,-5.002 -11.152,-11.151 0,-6.149 5.003,-11.152 11.152,-11.152 6.149,0 11.152,5.003 11.152,11.152 -0.001,6.149 -5.003,11.151 -11.152,11.151 z M 106.693,97.294 c -2.807,-4.136 -3.83,-9.147 -2.879,-14.11 0.951,-4.963 3.752,-9.244 7.89,-12.051 3.13,-2.124 6.76,-3.227 10.49,-3.227 1.202,0 2.414,0.115 3.622,0.346 4.963,0.95 9.242,3.752 12.05,7.89 l 16.928,24.946 c -11.713,4.883 -22.309,12.193 -31.101,21.261 z m 280.074,163.792 h -201.54 l -42.406,-30.044 105.631,0.008 0.001,-18 -129.798,-0.01 -6.003,18.687 41.439,29.359 H 98.334 C 96.688,252.173 90.976,244.668 83.2,240.575 l 28.165,-61.541 c 2.8,-6.119 5.445,-11.899 8.348,-17.282 l 0.292,-0.54 0.215,-0.574 c 7.771,-20.734 24.902,-37.399 45.828,-44.579 l 2.84,-0.975 23.616,-34.803 c 3.39,-4.995 9.375,-8.583 15.249,-9.14 2.731,-0.259 6.615,0.059 9.604,3.048 l 0.604,0.604 0.707,0.479 c 4.137,2.808 6.939,7.087 7.889,12.051 0.95,4.963 -0.073,9.975 -2.88,14.111 l -22.468,33.109 14.895,10.107 22.112,-32.584 h 74.042 c 41.084,0 74.509,33.424 74.509,74.508 z M 151.593,146.855 h 21.763 v 18 h -21.763 z" /><g
     id="g876">
</g><g
     id="g878">
</g><g
     id="g880">
</g><g
     id="g882">
</g><g
     id="g884">
</g><g
     id="g886">
</g><g
     id="g888">
</g><g
     id="g890">
</g><g
     id="g892">
</g><g
     id="g894">
</g><g
     id="g896">
</g><g
     id="g898">
</g><g
     id="g900">
</g><g
     id="g902">
</g><g
     id="g904">
</g></g></svg>
