<?xml version="1.0" encoding="iso-8859-1"?>
<!-- Generator: Adobe Illustrator 19.0.0, SVG Export Plug-In . SVG Version: 6.00 Build 0)  -->
<svg version="1.1" id="Layer_1" xmlns="http://www.w3.org/2000/svg" xmlns:xlink="http://www.w3.org/1999/xlink" x="0px" y="0px"
	 viewBox="0 0 512 512" style="enable-background:new 0 0 512 512;" xml:space="preserve">
<g>
	<polygon style="fill:#4B92B9;" points="82.547,397.061 40.751,397.061 40.751,370.939 92.996,370.939 	"/>
	<rect x="7.837" y="114.939" style="fill:#4B92B9;" width="370.939" height="256"/>
</g>
<rect x="33.959" y="141.061" style="fill:#CAF9F4;" width="287.347" height="203.755"/>
<polygon style="fill:#4B92B9;" points="471.249,397.061 429.453,397.061 419.004,370.939 471.249,370.939 "/>
<rect x="378.775" y="114.939" style="fill:#79CAE8;" width="125.388" height="256"/>
<rect x="415.347" y="151.51" style="fill:#FFFFFF;" width="52.245" height="39.706"/>
<path d="M26.122,352.653h303.02V133.224H26.122V352.653z M41.796,148.898h271.673V336.98H41.796V148.898z"/>
<path d="M512,107.102H0v271.673h32.914v26.122h54.939l10.449-26.122h315.396l10.449,26.122h54.939v-26.122H512V107.102z
	 M77.241,389.224H48.588v-10.449h32.833L77.241,389.224z M15.673,363.102V122.776h355.265v240.327H15.673z M463.412,389.224h-28.653
	l-4.18-10.449h32.833V389.224z M496.327,363.102H386.612V122.776h109.714V363.102z"/>
<rect x="341.744" y="141.061" width="15.673" height="203.755"/>
<rect x="417.959" y="326.531" width="15.673" height="15.673"/>
<rect x="449.306" y="326.531" width="15.673" height="15.673"/>
<rect x="417.959" y="295.184" width="15.673" height="15.673"/>
<rect x="449.306" y="295.184" width="15.673" height="15.673"/>
<rect x="417.959" y="263.837" width="15.673" height="15.673"/>
<rect x="449.306" y="263.837" width="15.673" height="15.673"/>
<path d="M475.429,143.673H407.51v55.38h67.918V143.673z M459.755,183.38h-36.571v-24.033h36.571V183.38z"/>
<g>
</g>
<g>
</g>
<g>
</g>
<g>
</g>
<g>
</g>
<g>
</g>
<g>
</g>
<g>
</g>
<g>
</g>
<g>
</g>
<g>
</g>
<g>
</g>
<g>
</g>
<g>
</g>
<g>
</g>
</svg>
