<?xml version="1.0" encoding="UTF-8" standalone="no"?>
<svg
   xmlns:dc="http://purl.org/dc/elements/1.1/"
   xmlns:cc="http://creativecommons.org/ns#"
   xmlns:rdf="http://www.w3.org/1999/02/22-rdf-syntax-ns#"
   xmlns:svg="http://www.w3.org/2000/svg"
   xmlns="http://www.w3.org/2000/svg"
   version="1.1"
   x="0px"
   y="0px"
   viewBox="0 0 100 100"
   enable-background="new 0 0 100 100"
   xml:space="preserve"
   id="svg8"
   width="100"
   height="100"><metadata
     id="metadata14"><rdf:RDF><cc:Work
         rdf:about=""><dc:format>image/svg+xml</dc:format><dc:type
           rdf:resource="http://purl.org/dc/dcmitype/StillImage" /><dc:title></dc:title></cc:Work></rdf:RDF></metadata><defs
     id="defs12" /><g
     id="g23"
     transform="translate(-0.1,-0.15)"><path
       d="m 51.4,86.6 -5.9,-8 -11.8,6.7 -13,-9.7 -0.6,-12.7 c -1,-1 -2.5,-2.6 -3.6,-4.1 -0.4,-0.5 -1.4,-1.9 -2.9,-10.6 l -0.4,-2.4 8.5,-6.3 -2.2,-14.7 4.2,-0.4 c 2.8,-0.3 7.4,-0.9 8.9,-1.5 3.8,-1.6 9.2,-2.4 12.3,-2.5 l 14.6,-6.7 13.3,12.4 v 4.6 l 14.2,9 -2.5,3.4 c -0.2,0.2 -3.8,5.3 -7.3,9.3 l 5.4,15 -1.5,1.8 C 76.6,74.4 70.8,80.9 69,82 c -0.5,0.4 -2.1,1.4 -15.2,4.1 z m -6.6,-22.5 10,13.6 c 4.3,-0.9 8.7,-2 10,-2.5 1.2,-1 5.2,-5.4 8.9,-9.6 L 71,58.1 c -3.3,2.6 -6.5,4.8 -6.7,4.9 l -4.5,-6.6 c 2.3,-1.6 8.8,-6.3 11.5,-9.3 1.5,-1.7 3.1,-3.8 4.4,-5.4 L 65,35.2 c -0.1,0 -0.3,0.1 -0.4,0.1 -2.9,1 -9.4,2.5 -9.7,2.6 L 52,38.6 50.5,36.1 c -2,-3.3 -4.4,-6.6 -5.7,-7.7 -2.5,0.1 -6.7,0.8 -9.3,1.9 -1.8,0.7 -4.6,1.2 -7,1.6 l 1.4,9.3 7.6,6.2 L 50.2,46 51,54 35.1,55.7 26.3,48.5 22,50.3 c 0.4,1.9 0.8,3.4 1,4.1 1.2,1.5 3,3.3 3.6,3.9 l 1.2,1.1 0.6,12.1 5.8,4.3 6.4,-3.6 L 38.2,69 Z M 53,25.4 c 0.9,1.1 1.8,2.4 2.8,4 2.2,-0.6 4.8,-1.3 6.2,-1.7 0.2,-0.1 0.4,-0.1 0.7,-0.2 L 58,23.1 Z"
       id="path2" /><path
       style="fill:#ffffff;stroke-width:0.205891"
       d="m 53.482983,75.687813 c -0.77302,-1.049097 -2.965543,-4.038426 -4.872277,-6.642952 -1.906731,-2.604527 -3.538732,-4.816303 -3.626668,-4.915059 -0.173171,-0.194483 -6.780488,4.571117 -6.780488,4.890502 0,0.106584 0.499407,0.857311 1.109792,1.668283 l 1.109793,1.474493 -2.90395,1.632206 c -1.597172,0.897716 -3.022271,1.662007 -3.166886,1.698427 -0.144615,0.03642 -1.505975,-0.859831 -3.025246,-1.991674 l -2.762311,-2.057891 -0.118744,-1.508482 c -0.06531,-0.829664 -0.217923,-3.544155 -0.339142,-6.0322 l -0.220398,-4.523723 -2.218784,-2.270694 c -1.220331,-1.248883 -2.326981,-2.472891 -2.459223,-2.720019 -0.360523,-0.673726 -1.077982,-3.842205 -0.905633,-3.999496 0.238895,-0.218025 3.593178,-1.624977 3.874066,-1.624977 0.139872,0 2.17823,1.575069 4.529684,3.500154 2.351454,1.925084 4.392734,3.500154 4.536177,3.500154 0.410091,0 15.808814,-1.65966 15.841588,-1.707392 0.0431,-0.06277 -0.77074,-8.063043 -0.826604,-8.125742 -0.04602,-0.05165 -10.363878,1.060829 -11.879836,1.280892 -0.717165,0.104107 -0.918376,-0.02571 -4.323719,-2.789487 -1.964354,-1.594271 -3.683914,-3.006862 -3.821246,-3.139091 -0.212845,-0.204936 -1.500383,-7.879248 -1.500383,-8.942963 0,-0.302923 0.413551,-0.444507 2.419224,-0.828252 1.330574,-0.254579 3.531038,-0.8244 4.889921,-1.266269 2.885506,-0.938284 5.113186,-1.424039 7.306232,-1.593154 l 1.572343,-0.12125 1.310448,1.623179 c 1.263671,1.565242 3.501119,4.876705 4.957151,7.336666 0.385397,0.651131 0.774825,1.183875 0.865392,1.183875 0.319264,0 9.335195,-2.289509 11.034057,-2.801993 0.946536,-0.285535 1.861882,-0.465084 2.0341,-0.398998 0.236602,0.09079 9.950194,5.935309 10.316868,6.207498 0.178329,0.132376 -4.206573,5.297286 -5.755597,6.77943 -1.642756,1.571833 -5.721167,4.828866 -8.688692,6.938825 l -1.369967,0.974068 1.78868,2.629031 c 0.983772,1.445967 2.036791,2.975574 2.34004,3.399126 l 0.551363,0.770095 1.928322,-1.361533 c 1.060577,-0.748844 2.51689,-1.82246 3.236254,-2.385818 0.719364,-0.563356 1.384132,-0.945769 1.477261,-0.849803 0.137062,0.141238 2.283198,5.951349 2.50667,6.786163 0.07166,0.267675 -3.295043,4.11817 -6.502777,7.437232 -2.553838,2.642472 -2.297094,2.520121 -8.128561,3.873686 -1.657705,0.384779 -3.220738,0.749721 -3.473406,0.810986 -0.38902,0.09432 -0.674715,-0.180826 -1.864888,-1.796059 z"
       id="path16" /><path
       style="fill:#ffffff;stroke-width:0.205891"
       d="m 55.647544,28.947508 c -0.05546,-0.14155 -0.625376,-0.986754 -1.266485,-1.878229 -0.641109,-0.891476 -1.138392,-1.637762 -1.105072,-1.658413 0.784417,-0.486177 4.654426,-2.090664 4.818172,-1.997591 0.125388,0.07127 1.166031,1.012024 2.312539,2.090562 l 2.084561,1.960978 -3.239051,0.873883 c -1.781478,0.480635 -3.298626,0.872148 -3.371441,0.870028 -0.07281,-0.0021 -0.177765,-0.119668 -0.233223,-0.261218 z"
       id="path18" /></g></svg>
