<?xml version="1.0" encoding="UTF-8" standalone="no"?>
<svg
   xmlns:dc="http://purl.org/dc/elements/1.1/"
   xmlns:cc="http://creativecommons.org/ns#"
   xmlns:rdf="http://www.w3.org/1999/02/22-rdf-syntax-ns#"
   xmlns:svg="http://www.w3.org/2000/svg"
   xmlns="http://www.w3.org/2000/svg"
   xmlns:sodipodi="http://sodipodi.sourceforge.net/DTD/sodipodi-0.dtd"
   xmlns:inkscape="http://www.inkscape.org/namespaces/inkscape"
   version="1.1"
   x="0px"
   y="0px"
   viewBox="0 0 100 100"
   xml:space="preserve"
   id="svg20"
   sodipodi:docname="paper-ball.svg"
   width="100"
   height="100"
   inkscape:version="1.0.2 (1.0.2+r75+1)"><metadata
     id="metadata26"><rdf:RDF><cc:Work
         rdf:about=""><dc:format>image/svg+xml</dc:format><dc:type
           rdf:resource="http://purl.org/dc/dcmitype/StillImage" /><dc:title></dc:title></cc:Work></rdf:RDF></metadata><defs
     id="defs24"><filter
       inkscape:collect="always"
       style="color-interpolation-filters:sRGB"
       id="filter951"
       x="-1.7066547e-09"
       width="1"
       y="-2.0554327e-09"
       height="1"><feGaussianBlur
         inkscape:collect="always"
         stdDeviation="6.067281e-08"
         id="feGaussianBlur953" /></filter></defs><sodipodi:namedview
     pagecolor="#ffffff"
     bordercolor="#666666"
     borderopacity="1"
     objecttolerance="10"
     gridtolerance="10"
     guidetolerance="10"
     inkscape:pageopacity="0"
     inkscape:pageshadow="2"
     inkscape:window-width="1391"
     inkscape:window-height="839"
     id="namedview22"
     showgrid="false"
     inkscape:zoom="4.8569291"
     inkscape:cx="116.23475"
     inkscape:cy="45.671888"
     inkscape:window-x="49"
     inkscape:window-y="24"
     inkscape:window-maximized="1"
     inkscape:current-layer="svg20" /><g
     id="g14"
     style="filter:url(#filter951)"
     transform="translate(-1.3450411,-2.9195575)"><path
       d="m 37.83081,67.30267 c 0.35822,-0.07892 0.65454,-0.20313 0.94135,-0.33545 1.07178,-0.56165 1.75183,-1.25934 2.3891,-1.93811 0.61719,-0.67413 1.17493,-1.41199 1.6499,-2.00293 l 0.02252,-0.02802 0.0014,-0.0017 c 0.53894,-0.67255 0.43066,-1.65466 -0.24182,-2.1936 -0.67255,-0.539 -1.65466,-0.43073 -2.1936,0.24176 -0.57385,0.716 -1.02838,1.31683 -1.54346,1.88007 -0.49579,0.54779 -1.04559,1.0321 -1.46887,1.24536 -0.22552,0.09875 -0.2782,0.10107 -0.36761,0.09406 -0.14331,-0.01288 -0.30469,-0.06317 -0.52307,-0.19214 -0.44495,-0.26813 -0.98108,-0.81439 -1.61749,-1.43622 -0.32666,-0.31165 -0.68781,-0.64709 -1.15045,-0.97058 -0.21564,-0.15631 -0.52112,-0.32874 -0.75946,-0.44196 -0.22797,-0.10028 -0.45526,-0.21265 -0.6861,-0.29346 -0.9209,-0.35437 -1.84882,-0.56769 -2.72327,-0.71667 -1.00269,-0.16907 -1.94403,-0.29163 -2.82117,-0.44904 0.83472,-1.43988 1.69916,-2.84845 2.62183,-4.17297 1.29785,-1.82611 2.81946,-3.57666 4.28528,-3.5824 0.78265,-0.06989 1.86255,0.21252 2.99316,0.51398 1.1424,0.30933 2.35449,0.62988 3.5907,0.85834 2.48181,0.48798 5.02789,0.52722 7.51501,0.36969 l 2.24658,-0.14233 -0.92487,-2.01422 c -0.53528,-1.16571 -1.05225,-1.9306 -1.56476,-2.81519 -0.50958,-0.85449 -1.00519,-1.6955 -1.45282,-2.53668 -0.44366,-0.836 -0.85236,-1.68915 -1.09576,-2.46838 -0.13177,-0.35712 -0.1712,-0.73425 -0.18274,-0.89331 0.03381,-0.0592 0.15479,-0.34265 0.33569,-0.56726 0.48218,-0.68671 1.17883,-1.44189 1.8385,-2.3606 0.32629,-0.48529 0.68689,-0.99005 0.92743,-1.83575 0.0647,-0.1864 0.08655,-0.48615 0.10687,-0.72656 0.0062,-0.21844 -0.0043,-0.30701 -0.0061,-0.46692 -0.0116,-0.28638 -0.03235,-0.57324 -0.06348,-0.85803 -0.11536,-1.14508 -0.44293,-2.22125 -0.56622,-3.0177 -0.13275,-0.79828 -0.06964,-1.46204 0.1723,-2.26947 0.24194,-0.80988 -0.20569,-1.67072 -1.01404,-1.9325 -0.81989,-0.26556 -1.69989,0.18384 -1.96539,1.00372 l -0.0075,0.02313 c -0.35632,1.10016 -0.48401,2.48132 -0.26898,3.65814 0.1994,1.17706 0.46906,2.02448 0.5473,2.87524 0.02313,0.21228 0.03833,0.42438 0.04712,0.63757 6.7e-4,0.08984 0.0095,0.25171 0.0045,0.28247 -0.02173,0.0051 0.01648,-0.03687 -0.0088,0.01227 -0.02631,0.12177 -0.21136,0.47711 -0.45203,0.81042 -0.50275,0.71033 -1.17102,1.42761 -1.84698,2.37274 -0.1687,0.23914 -0.34106,0.49744 -0.50793,0.82831 -0.08246,0.15997 -0.16486,0.32831 -0.23663,0.55927 -0.07507,0.18817 -0.13269,0.47198 -0.15485,0.76941 -0.007,0.8551 0.13971,1.44629 0.31964,2.01587 0.35797,1.13 0.83313,2.0824 1.3222,3.01294 0.49219,0.92456 1.01337,1.80676 1.52795,2.6701 0.06256,0.10553 0.12756,0.21423 0.19171,0.32166 -1.41711,-0.01154 -2.82526,-0.11279 -4.21313,-0.38684 -1.10486,-0.20453 -2.19641,-0.49121 -3.35065,-0.80389 -1.16083,-0.28693 -2.41193,-0.70587 -4.02216,-0.61316 -0.79095,0.05103 -1.60919,0.28564 -2.30634,0.64307 -0.70972,0.3548 -1.26428,0.81769 -1.79364,1.27777 -1.00568,0.94489 -1.78406,1.95587 -2.51355,2.97168 -1.422,2.04211 -2.63788,4.13104 -3.81122,6.23267 l -0.90594,1.62262 1.74805,0.60699 c 1.85394,0.64374 3.63794,0.76349 5.17944,1.0379 0.77692,0.13141 1.48889,0.30505 2.1333,0.55273 0.16595,0.05585 0.31311,0.13409 0.4696,0.20013 0.13824,0.06934 0.19995,0.10205 0.32495,0.19006 0.2251,0.15601 0.48596,0.38678 0.7641,0.65436 0.56976,0.53534 1.18066,1.23846 2.16699,1.85815 0.49829,0.30249 1.13794,0.56317 1.83038,0.62689 0.32913,0.05049 0.78457,0.0078 1.11813,-0.06749 z"
       id="path2" /><path
       d="m 93.08118,62.67389 -4.15533,-5.25873 c -1.19312,-1.4549 -2.40179,-2.97455 -4.00494,-4.33777 0.54889,-1.76617 0.96521,-3.61957 1.15765,-5.49921 0.1012,-0.95123 0.14722,-1.90442 0.15161,-2.84821 l -0.09692,-2.80188 -0.04303,-1.24536 -1.2381,-0.45282 C 84.46772,40.08928 84.09321,39.93004 83.71235,39.78313 83.32044,38.56841 83.02058,37.32897 82.8332,36.0161 82.61054,34.65978 82.60194,33.26708 82.14008,31.47948 81.93775,30.60479 81.41413,29.56493 80.64521,28.73485 79.82819,27.96526 78.88532,27.4583 78.02698,27.18779 76.28028,26.60057 74.73499,26.53233 73.19391,26.43987 71.67096,26.37481 70.15607,26.42675 68.82312,26.38543 67.55176,26.36926 66.38007,26.11529 65.30505,25.69347 64.23858,25.25005 63.30511,24.52489 62.35669,23.60778 61.40595,22.69384 60.45862,21.56103 59.22809,20.46746 58.0152,19.37029 56.41187,18.39361 54.68585,17.94744 l -1.29321,-0.2735 -1.2757,-0.09009 c -0.43188,-0.04163 -0.83899,-0.02161 -1.24713,-0.0028 -0.41022,0.0061 -0.81744,0.04364 -1.22314,0.09943 -3.25885,0.35748 -6.3728,1.74854 -8.87927,3.78064 -0.60968,0.48615 -1.17914,1.0094 -1.71545,1.55927 -0.19031,-0.25732 -0.37933,-0.51276 -0.57611,-0.80164 -0.54651,-0.78204 -1.12854,-1.72217 -2.06281,-2.62573 -0.93329,-0.90875 -2.24335,-1.58429 -3.47058,-1.84436 -1.25854,-0.25983 -2.31171,-0.32959 -3.64716,-0.1543 -0.62286,0.08685 -1.19189,0.26611 -1.76685,0.42981 -0.52563,0.21863 -1.09375,0.40186 -1.57874,0.66437 -1.00122,0.49664 -1.93036,1.06384 -2.79004,1.68933 -1.73022,1.2442 -3.26215,2.65253 -4.67609,4.1825 -0.70874,0.76428 -1.37573,1.57007 -2.01563,2.44049 l -0.47107,0.67505 -0.45691,0.75439 c -0.1535,0.26923 -0.30566,0.61456 -0.4505,0.96472 -0.09186,0.30603 -0.15607,0.63239 -0.18701,0.95044 -0.01178,0.24042 0.0074,0.34857 0.0116,0.5293 0.08093,1.30133 0.41516,2.34888 0.72437,3.35004 l 0.93146,2.76367 c 0.26227,0.85101 0.45746,1.66931 0.41461,2.21906 -0.04657,0.62256 -0.1416,0.90033 -0.62012,1.4516 l -1.00897,1.07159 c -0.41254,0.46149 -0.91272,1.159 -1.14783,2.008 -0.12469,0.42474 -0.16302,0.83679 -0.17804,1.2475 -0.003,0.38879 0.03687,0.74292 0.09375,1.07416 0.03412,0.19421 0.08405,0.36652 0.12866,0.54633 l -0.42969,0.40613 -1.36383,1.26721 c -0.92188,0.89111 -1.84998,1.75665 -2.74792,2.99353 -0.22302,0.30658 -0.44794,0.66962 -0.65625,1.11151 -0.10114,0.27496 -0.20581,0.44366 -0.27637,0.81592 -0.06982,0.35492 -0.11292,0.7439 -0.08521,0.92572 0.01117,0.95813 0.2998,1.80182 0.6123,2.5177 0.6521,1.43518 1.47339,2.43829 2.07117,3.39453 0.62915,0.94623 0.98541,1.77448 0.98871,2.36499 0.01117,0.29456 -0.08105,0.80463 -0.21143,1.32428 -0.13062,0.52673 -0.29694,1.086 -0.47626,1.66638 -0.35382,1.15753 -0.74902,2.37775 -1.03906,3.70239 -0.14752,0.66089 -0.25671,1.36444 -0.31531,2.10211 -0.05145,0.72858 -0.02399,1.59631 0.18951,2.43591 0.20862,0.8446 0.6134,1.69336 1.2019,2.40076 0.5849,0.71057 1.33533,1.26575 2.12744,1.63416 1.58197,0.7406 3.33185,0.79315 4.82867,0.46588 1.47681,-0.31879 2.65997,-0.86279 3.63324,-1.12366 0.4892,-0.13617 0.88562,-0.19873 1.2334,-0.17731 0.41937,0.0012 0.5885,0.09015 0.72894,0.16949 0.14056,0.07843 0.3786,0.35193 0.78485,0.90076 0.39288,0.52728 1.02856,1.26868 1.85278,1.75024 0.80939,0.47778 1.69672,0.74908 2.47327,0.83905 0.78528,0.10352 1.52472,0.12115 2.2807,0.05621 0.06934,-0.0063 0.13293,-0.01917 0.20142,-0.02649 0.16089,0.15192 0.34509,0.28375 0.55994,0.37665 l 0.02203,0.0095 c 1.16919,0.50555 2.24524,1.33105 3.37683,2.33405 1.13251,0.99707 2.29401,2.17975 3.7287,3.24554 0.70844,0.53424 1.48895,1.03546 2.33472,1.44275 l 0.31573,0.15436 0.07904,0.03839 0.01978,0.0096 0.0099,0.0048 0.0049,0.0024 c -0.4303,-0.06256 1.2467,0.2998 0.82013,0.17169 0.15045,-0.0064 0.3089,-0.0285 0.46478,-0.06812 0.30103,-0.06335 0.68317,-0.29144 0.60681,-0.25153 l 0.09045,-0.05566 c 0.24158,-0.15112 0.39124,-0.25128 0.56927,-0.37512 l 0.99829,-0.70258 c 1.2002,-0.8479 2.35834,-1.71906 3.51898,-2.62091 0.60144,0.0038 1.22375,-0.01495 1.89423,-0.08008 0.39844,-0.07635 0.79706,-0.16028 1.19263,-0.25122 0.40479,-0.11511 0.83582,-0.31866 1.24176,-0.49561 0.39581,-0.25543 0.82574,-0.51434 1.15729,-0.85126 0.34125,-0.34119 0.6557,-0.69995 0.86761,-1.06219 0.26361,-0.37787 0.39417,-0.69214 0.57416,-1.03363 l 0.3905,-0.84644 c 0.23077,-0.53235 0.44446,-0.82507 0.64984,-1.09381 0.39819,-0.43866 1.09521,-0.73499 2.11011,-0.86206 0.23358,-0.04504 0.51758,-0.0321 0.77362,-0.05341 l 0.39398,-0.02161 0.19562,-0.01141 c 0.02039,0.0064 0.04034,0.01031 0.06049,0.01172 0.15411,0.02844 0.159,-0.0035 0.43494,0.24402 0.26227,0.25293 0.61316,0.74347 1.12714,1.32172 0.50287,0.56958 1.29321,1.26135 2.28821,1.59454 0.48566,0.16077 0.98553,0.25195 1.45013,0.26587 0.22406,0.02667 0.50342,-0.0021 0.76868,-0.03015 0.27484,-0.02081 0.52667,-0.07269 0.75757,-0.15125 0.96893,-0.27997 1.68542,-0.76031 2.26514,-1.21558 1.17395,-0.92108 2.00378,-1.89117 2.81732,-2.61737 0.39551,-0.36902 0.78894,-0.67023 1.04388,-0.78778 0.07471,-0.05219 0.11322,-0.04761 0.15149,-0.06335 0.04828,-0.03058 0.06812,-0.01678 0.06812,-0.01678 -0.01563,-0.03033 0.17639,-0.0063 0.33038,0.02612 0.34613,0.06671 0.85699,0.26788 1.46411,0.50024 0.61847,0.22534 1.36237,0.51514 2.35547,0.57837 0.27661,0.01758 0.43866,0.0054 0.61481,-7.9e-4 l 0.53406,-0.02142 c 0.34827,-0.0011 0.73376,-0.07159 1.10217,-0.11646 0.74579,-0.10919 1.54572,-0.33252 2.32452,-0.71466 0.78906,-0.38379 1.49445,-0.98712 2.03882,-1.62256 0.54498,-0.64716 0.89722,-1.29224 1.22583,-1.89459 0.61432,-1.18951 1.07294,-2.21991 1.66046,-3.11493 0.14148,-0.19946 0.31482,-0.48505 0.42694,-0.61603 0.10663,-0.14764 0.25043,-0.29034 0.40985,-0.43787 0.31946,-0.2948 0.74323,-0.59149 1.23993,-0.91364 0.97076,-0.64404 2.29498,-1.3985 3.33868,-2.77301 l 0.88623,-1.16718 z M 12.58783,54.01971 c -0.01459,-0.09539 0.0096,-0.04827 0,0 z m 31.323,30.56025 -0.0034,-0.0017 -0.0069,-0.0035 -0.01367,-0.007 -0.03705,-0.0188 c 0.12647,0.03076 0.18671,0.04956 0.06104,0.03095 z M 87.69562,64.5849 c -0.53589,0.34912 -1.13568,0.7489 -1.72711,1.28668 -0.29315,0.26929 -0.58813,0.56464 -0.85052,0.91113 -0.27655,0.3479 -0.41699,0.59601 -0.63031,0.90015 -0.76508,1.17151 -1.31104,2.40363 -1.83313,3.40002 -0.25989,0.47833 -0.51337,0.91614 -0.76923,1.21082 -0.26392,0.29004 -0.50665,0.50848 -0.83179,0.66486 -0.32928,0.1557 -0.72498,0.28302 -1.19867,0.34894 -0.24365,0.02374 -0.46545,0.07843 -0.73541,0.07501 l -0.38977,0.01471 c -0.13177,0.0065 -0.27777,0.01239 -0.30896,0.0052 -0.24335,-0.0063 -0.67999,-0.13312 -1.21167,-0.33832 -0.54498,-0.20087 -1.17627,-0.48395 -2.03925,-0.6709 -0.44678,-0.08167 -0.87787,-0.16998 -1.50391,-0.08893 -0.30426,0.0282 -0.59338,0.08142 -0.83191,0.17279 -0.25403,0.08203 -0.51263,0.17322 -0.70258,0.28339 -0.85352,0.42853 -1.41858,0.92773 -1.93036,1.38788 -1.0155,0.92529 -1.81433,1.82806 -2.5921,2.4212 -0.38098,0.30945 -0.73505,0.49554 -0.95447,0.55011 -0.0603,0.02954 -0.10956,0.03693 -0.14502,0.02936 -0.04132,6.1e-4 -0.06812,0.02728 -0.15179,0.0082 -0.15302,-0.002 -0.26135,-0.03137 -0.36188,-0.05853 C 65.81432,77.03458 65.6256,76.90989 65.3128,76.56412 65.00024,76.22794 64.6441,75.70005 64.03356,75.07944 63.44842,74.4498 62.3073,73.78757 61.22417,73.73264 l -0.40015,-0.02728 -0.26605,0.01166 -0.52942,0.02563 c -0.3576,0.02698 -0.69543,0.01691 -1.06879,0.07886 l -1.12024,0.20135 c -0.37628,0.08081 -0.78149,0.24811 -1.1665,0.38074 -0.38678,0.12384 -0.78461,0.4057 -1.16479,0.6214 -0.37189,0.24823 -0.71875,0.58289 -1.03925,0.89929 -1.20581,1.39264 -1.56024,2.89642 -1.99176,3.45502 -0.1936,0.34509 -0.38947,0.4364 -0.61694,0.61285 -0.16791,0.04462 -0.29059,0.12744 -0.47607,0.18066 -0.20764,0.03595 -0.41217,0.07886 -0.61694,0.12939 -0.927,0.08362 -2.09241,0.06116 -3.26019,-0.06116 -1.16693,-0.10834 -2.3548,-0.27185 -3.54462,-0.45801 l -0.0063,-0.001 c -1.0647,-0.16479 -2.0614,0.56476 -2.2262,1.62946 -0.1648,1.0647 0.5647,2.06134 1.62939,2.22614 0.10345,0.01599 0.20844,0.02911 0.31207,0.0448 -2.4e-4,1.8e-4 -4.3e-4,2.4e-4 -6.7e-4,4.3e-4 l -0.64008,0.42139 c -0.38281,-0.224 -0.76105,-0.46814 -1.13336,-0.75281 -1.12524,-0.83795 -2.20587,-1.93561 -3.45184,-3.05475 -0.36499,-0.3338 -0.76135,-0.664 -1.17383,-0.98792 0.5412,-0.11554 1.05817,-0.19952 1.54999,-0.23224 l 0.04089,-0.0027 c 0.0044,-3.1e-4 0.0087,-6.1e-4 0.01312,-9.8e-4 1.0741,-0.08466 1.87616,-1.02399 1.7915,-2.09808 -0.08466,-1.07409 -1.02399,-1.87616 -2.09808,-1.7915 -2.94464,0.23206 -5.28448,1.33838 -7.24878,1.48102 -0.46613,0.04346 -0.9635,0.02338 -1.39294,-0.03162 -0.44513,-0.04541 -0.74469,-0.17706 -0.99603,-0.30945 -0.24194,-0.14178 -0.4411,-0.33826 -0.78296,-0.78851 -0.33337,-0.42242 -0.82294,-1.17377 -1.71661,-1.77405 -0.88464,-0.59442 -1.95563,-0.82281 -2.76221,-0.82367 -0.88049,-0.04022 -1.70966,0.12225 -2.40045,0.31494 -1.39221,0.39917 -2.46368,0.88092 -3.39716,1.06689 -0.89264,0.19989 -1.72803,0.12012 -2.38208,-0.18274 -0.6402,-0.31036 -1.01941,-0.76624 -1.19641,-1.4527 -0.18298,-0.65222 -0.07898,-1.6911 0.15442,-2.7583 0.23407,-1.07605 0.59094,-2.19806 0.95648,-3.38782 0.18256,-0.5929 0.36871,-1.21075 0.53394,-1.87579 0.15723,-0.67065 0.32935,-1.37341 0.32428,-2.30981 -0.05389,-1.89728 -0.91315,-3.3316 -1.60968,-4.42352 -0.71851,-1.11188 -1.43628,-2.05493 -1.78815,-2.87061 -0.17352,-0.40002 -0.28223,-0.74725 -0.27515,-1.02441 0.0095,-0.01788 0.01917,-0.03839 0.01672,-0.04474 0.05688,-0.11017 0.14612,-0.27832 0.28699,-0.46606 0.53986,-0.75848 1.39551,-1.60522 2.24274,-2.41125 l 1.33502,-1.24042 0.70483,-0.66669 c 0.23932,-0.2337 0.49506,-0.48492 0.8114,-0.87177 L 18.6871,47.47637 18.26938,46.4497 c -0.3031,-0.74493 -0.40424,-1.52252 -0.31403,-1.646 0.02881,-0.09924 0.09216,-0.23407 0.3277,-0.50238 0.22748,-0.26257 0.59918,-0.60925 1.00629,-1.06873 0.40277,-0.45715 0.84796,-1.05121 1.13159,-1.75171 0.27844,-0.68585 0.44989,-1.43628 0.45557,-2.10394 0.05615,-1.41791 -0.29089,-2.52771 -0.58655,-3.54401 -0.31586,-1.008 -0.66235,-1.93237 -0.94611,-2.80902 -0.27539,-0.86371 -0.51166,-1.71454 -0.5415,-2.37585 0,-0.0096 -0.0014,-0.02557 -0.002,-0.0379 0.04004,-0.08099 0.07642,-0.17218 0.14752,-0.29431 l 0.30487,-0.50275 0.37109,-0.53003 c 0.52136,-0.70807 1.10364,-1.41711 1.72882,-2.08887 1.24481,-1.34821 2.61768,-2.60266 4.07196,-3.64581 1.43896,-1.02075 3.03497,-1.90344 4.44312,-2.09821 0.60822,-0.09912 1.5387,-0.05426 2.19354,0.09656 0.68671,0.15991 1.17487,0.41956 1.65985,0.86804 0.81305,0.75305 1.61414,2.28192 2.81714,3.72778 -0.59161,0.87958 -1.12958,1.78766 -1.61206,2.71014 -1.43011,2.75427 -2.37927,5.66888 -3.10297,8.59534 -0.26074,1.03253 0.36725,2.07166 1.39978,2.3324 1.03247,0.26074 2.08087,-0.36493 2.34161,-1.39746 l 0.0088,-0.03491 c 0.67908,-2.68939 1.58014,-5.3028 2.81421,-7.69525 1.24207,-2.37616 2.81824,-4.55914 4.82867,-6.15448 1.99011,-1.60767 4.37341,-2.66687 6.88422,-2.94281 0.31207,-0.04486 0.62518,-0.07483 0.94006,-0.07672 0.31537,-0.01495 0.63184,-0.03302 0.922,0.0035 l 0.89117,0.05579 0.83093,0.18024 c 1.08081,0.29199 2.02362,0.83936 2.96136,1.67401 0.94116,0.82544 1.86609,1.91803 2.99573,3.01746 1.12231,1.09241 2.50391,2.1947 4.12476,2.86902 1.61115,0.65515 3.3183,0.98224 4.94556,1.00659 1.56036,0.04346 2.9436,-0.0072 4.315,0.05243 1.33929,0.06775 2.72437,0.17902 3.72784,0.53827 0.52655,0.15845 0.85376,0.39655 1.11145,0.59735 0.1806,0.25946 0.39374,0.50568 0.51489,1.05157 0.28656,1.0166 0.36383,2.54596 0.59033,4.04773 0.06018,0.42346 0.15875,0.85144 0.2417,1.27814 -0.02734,-0.01331 -0.05554,-0.02417 -0.08282,-0.03754 l -2.8647,-1.43197 c -0.51538,-0.24713 -1.04968,-0.50482 -1.73285,-0.73169 -0.65326,-0.2215 -1.66431,-0.41705 -2.68195,-0.13293 -1.0058,0.28265 -1.65619,0.82416 -2.15997,1.27301 -0.51678,0.46741 -0.88452,0.91547 -1.26746,1.36292 -0.73438,0.88947 -1.37366,1.75635 -2.02106,2.62103 -1.28046,1.72827 -2.53699,3.43475 -3.85187,5.10333 -0.0059,0.0076 -0.0202,0.026 -0.026,0.03369 -0.6405,0.85077 -0.47003,2.05969 0.38074,2.70013 0.85077,0.6405 2.05963,0.47003 2.70013,-0.38074 l 3.883,-5.13593 c 0.64166,-0.84149 1.28284,-1.68903 1.91827,-2.4425 0.31372,-0.36237 0.63776,-0.73474 0.9173,-0.98291 0.28271,-0.26398 0.51215,-0.3877 0.54535,-0.3858 0.0202,-0.0065 0.11346,-0.03333 0.46777,0.08044 0.33246,0.10889 0.76929,0.30609 1.21625,0.52362 l 2.87445,1.43671 c 1.58051,0.77258 3.21216,1.45367 4.85553,2.08838 l 0.04523,1.2995 c -0.0039,0.82849 -0.04388,1.64783 -0.13031,2.45923 -0.13184,1.28418 -0.38684,2.55188 -0.73279,3.81506 -0.43353,-0.16028 -0.87445,-0.30103 -1.32526,-0.39166 -1.35077,-0.27484 -2.6886,-0.28687 -3.93164,-0.16132 -2.4917,0.2674 -4.72375,0.93695 -6.91168,1.63348 l -0.01263,0.0041 c -1.02435,0.3338 -1.58417,1.43488 -1.25031,2.45923 0.3338,1.02435 1.43488,1.58411 2.45923,1.25031 l 0.01837,-0.006 c 2.0556,-0.66992 4.13538,-1.27478 6.09149,-1.48535 0.9751,-0.10321 1.89478,-0.07776 2.73499,0.08447 0.83826,0.16687 1.59265,0.51758 2.34137,1.03955 1.49567,1.04974 2.89282,2.71167 4.26855,4.40283 l 3.07507,3.87854 c -0.38245,0.28132 -0.82484,0.57081 -1.32746,0.89076 z"
       id="path4" /><path
       d="m 72.36237,66.49225 -0.05139,-0.0047 C 71.45807,66.4101 70.67713,66.26074 70.10053,65.96307 69.80262,65.8045 69.54194,65.625 69.18085,65.3164 68.83539,65.03008 68.38941,64.64025 67.86432,64.31634 66.80896,63.64312 65.6391,63.31463 64.5719,63.12506 64.03284,63.03308 63.49939,62.9613 62.98126,62.93152 c -0.5274,-0.05432 -1.03864,-0.06433 -1.55005,-0.07434 -1.03601,-0.0318 -1.98315,-0.0076 -3.01202,0.02051 -1.02838,0.06433 -2.06055,0.05823 -3.36523,0.52325 -0.63849,0.20337 -1.36499,0.71387 -1.82886,1.29034 -0.49298,0.59216 -0.72839,1.1698 -0.94623,1.69427 -0.39642,1.04437 -0.64502,1.97095 -0.9306,2.896 l -0.0013,0.0045 c -0.25177,0.82428 0.2124,1.69659 1.03668,1.94836 0.82434,0.25177 1.69666,-0.2124 1.94836,-1.03674 l 0.0032,-0.0105 c 0.28503,-0.93323 0.55194,-1.88501 0.84802,-2.65857 0.14978,-0.37042 0.30621,-0.70142 0.44946,-0.85107 0.15509,-0.1626 0.23584,-0.26349 0.52795,-0.35822 0.52802,-0.21259 1.47876,-0.2876 2.38177,-0.32288 0.91449,-0.02521 1.9129,-0.04938 2.82068,-0.0188 1.82739,0.04102 3.6712,0.2251 4.82892,0.97412 0.30542,0.18402 0.59729,0.43451 0.9986,0.76898 0.37659,0.32434 0.90686,0.72089 1.47076,1.0119 1.16376,0.59137 2.33807,0.76648 3.41443,0.86725 l 0.0042,3.7e-4 c 0.85828,0.07794 1.61725,-0.55463 1.69519,-1.41284 0.07802,-0.85827 -0.55455,-1.61724 -1.41282,-1.69518 z"
       id="path6" /><path
       d="m 55.04645,49.21594 c 0.29639,0.50696 0.53229,0.97644 0.64337,1.37433 0.11328,0.40332 0.11334,0.69873 0.02344,1.02026 -0.22528,0.81335 0.23724,1.66693 1.04938,1.9137 0.82471,0.25055 1.69641,-0.2149 1.94696,-1.03967 0.27606,-0.90308 0.22913,-1.93311 -0.01807,-2.74969 -0.23999,-0.83038 -0.60657,-1.49719 -0.94824,-2.09021 l -0.0049,-0.0085 c -0.435,-0.74408 -1.39081,-0.99469 -2.13489,-0.55969 -0.74408,0.435 -0.99469,1.39081 -0.55969,2.13489 z"
       id="path8" /><path
       d="m 48.72931,72.76538 -0.11694,-0.0058 C 47.68012,72.71325 46.74244,72.6513 45.96045,72.42022 45.16431,72.19164 44.56763,71.87927 44.08624,71.37695 43.82446,71.11773 43.60632,70.82476 43.23773,70.33294 l -0.32739,-0.40332 c -0.13129,-0.14929 -0.31128,-0.32397 -0.47198,-0.47662 -0.2265,-0.17365 -0.4483,-0.34637 -0.72272,-0.48389 -0.28772,-0.12268 -0.60767,-0.27045 -0.89545,-0.2995 -0.31152,-0.03796 -0.55774,-0.09277 -0.93512,-0.05231 -0.3418,0.03302 -0.56506,0.09668 -0.7793,0.15875 -0.41052,0.12775 -0.71979,0.26813 -1.01648,0.40961 -0.29321,0.14191 -0.56177,0.28735 -0.81799,0.43304 l -0.37006,0.21515 -0.16504,0.09741 -0.05682,0.0329 c 0,0 -0.03485,0.01978 0.0018,-4.3e-4 0.03583,-0.01923 0.07294,-0.03632 0.11078,-0.05096 -0.99323,0.41742 -1.45996,1.56097 -1.04254,2.5542 0.41742,0.99323 1.56097,1.45996 2.5542,1.04254 l 0.19946,-0.09576 0.08862,-0.04889 0.11523,-0.06647 0.17731,-0.10455 0.31708,-0.18451 c 0.2045,-0.11633 0.40268,-0.22253 0.58658,-0.31134 0.08856,-0.04315 0.17603,-0.08234 0.25391,-0.11481 l 0.10168,0.12622 c 0.26782,0.35437 0.67633,0.9223 1.16791,1.41022 0.99097,1.039 2.34967,1.7196 3.59076,2.05585 1.26245,0.35986 2.45728,0.42883 3.63794,0.48492 1.07556,0.05341 1.98651,-0.77539 2.03992,-1.85089 0.0534,-1.07555 -0.77515,-1.99071 -1.85071,-2.04412 z"
       id="path10" /><path
       d="m 28.89722,68.19672 c -0.4809,-0.2959 -0.9527,-0.59747 -1.42371,-0.91211 l -0.72485,-0.48663 c -0.27612,-0.17212 -0.47882,-0.34564 -1.01587,-0.58655 -0.25818,-0.11578 -0.73889,-0.24542 -1.2099,-0.18341 -0.46149,0.06158 -0.72424,0.20093 -0.91998,0.29102 -0.36713,0.18781 -0.58881,0.32611 -0.83331,0.46027 -0.4729,0.26526 -0.94537,0.50037 -1.44128,0.7251 -0.7854,0.35498 -1.13739,1.28082 -0.78241,2.06622 0.35498,0.7854 1.27948,1.13434 2.06488,0.77936 0.56573,-0.25574 1.13733,-0.54059 1.68066,-0.84564 l 0.4812,-0.26825 0.2442,0.15857 0.72638,0.48767 c 0.49805,0.33264 1.00824,0.65894 1.5199,0.97363 0.7345,0.45093 1.69659,0.22174 2.14752,-0.51282 0.45098,-0.73451 0.22106,-1.69551 -0.51343,-2.14643 z m -3.87451,0.90289 c 0.0084,-0.0032 0.0078,-0.0026 0,0 z"
       id="path12" /></g><path
     style="fill:#ffffff;stroke-width:0.205891"
     d="m 38.371547,78.363868 -2.150359,-1.911214 1.041831,-0.154369 c 2.021121,-0.299473 2.869095,-2.167872 1.572397,-3.464568 -0.517084,-0.517086 -0.75893,-0.601837 -1.7174,-0.601837 -0.613558,0 -2.450546,0.333338 -4.082192,0.740752 -2.162269,0.539907 -3.261044,0.716634 -4.052481,0.651799 -1.040916,-0.08527 -1.147417,-0.152654 -2.573642,-1.628361 -1.661242,-1.718878 -2.338159,-2.028996 -4.428843,-2.028996 -0.857435,0 -1.973896,0.229814 -3.579212,0.73675 -2.842228,0.897534 -3.799121,0.877649 -4.776018,-0.09925 -0.594694,-0.594693 -0.639821,-0.738856 -0.603192,-1.926962 0.02558,-0.829786 0.350972,-2.304123 0.919592,-4.166662 0.781488,-2.559794 0.880611,-3.112969 0.885443,-4.941394 0.006,-2.263125 -0.221568,-2.900151 -1.948954,-5.456122 -1.025555,-1.517488 -1.442496,-2.35763 -1.442496,-2.90665 0,-0.314437 0.928625,-1.375509 2.985426,-3.411229 1.641984,-1.625155 2.985425,-3.034119 2.985425,-3.131036 0,-0.09692 -0.138977,-0.570112 -0.308837,-1.051548 -0.493006,-1.397327 -0.403094,-1.812497 0.632236,-2.919348 2.219726,-2.373065 2.399044,-4.405784 0.827428,-9.379537 -0.639372,-2.023445 -0.946129,-3.316076 -0.86431,-3.642072 0.184739,-0.736056 2.28975,-3.30082 4.02867,-4.908566 2.980101,-2.7553 5.551307,-4.123365 7.740502,-4.118499 1.922988,0.0043 2.769417,0.609337 4.62524,3.306308 l 0.891228,1.295178 -0.458675,0.763736 c -1.751958,2.917173 -3.850863,8.405326 -4.086876,10.686243 -0.102164,0.987357 -0.06246,1.117343 0.518798,1.698604 0.463635,0.463635 0.82039,0.629428 1.354404,0.629428 1.241902,0 1.728794,-0.634659 2.533836,-3.302825 2.05788,-6.820475 5.356131,-11.494032 9.568953,-13.559013 2.35861,-1.15611 3.964322,-1.528576 6.141082,-1.424504 2.508342,0.119926 3.233379,0.533576 6.606452,3.769145 4.458676,4.276917 5.734748,4.777467 12.855125,5.042541 2.378046,0.08853 4.509022,0.226902 4.735503,0.307496 1.304176,0.464102 1.55391,0.606842 1.848608,1.056608 0.178473,0.272384 0.460252,1.444316 0.626176,2.604294 0.165924,1.159977 0.344921,2.356548 0.397772,2.659045 l 0.09609,0.549995 -2.398178,-1.153178 c -2.087545,-1.003809 -2.559831,-1.153944 -3.646184,-1.15909 -2.31115,-0.01095 -3.241919,0.786608 -7.54193,6.462509 -3.433857,4.532599 -3.566888,4.75407 -3.397608,5.656405 0.235463,1.255123 1.832468,1.968779 3.003379,1.342128 0.213415,-0.114216 1.427672,-1.573471 2.698349,-3.24279 3.198048,-4.201354 4.505699,-5.800793 4.9268,-6.026159 0.271691,-0.145405 0.959947,0.101528 2.799994,1.004583 1.341864,0.658559 3.401981,1.604819 4.578039,2.102798 l 2.138283,0.90542 -0.123811,2.474543 c -0.144398,2.886009 -0.536582,4.772732 -0.971183,4.672183 -3.198241,-0.739949 -5.941458,-0.508503 -10.603548,0.894622 -2.046596,0.615953 -2.669014,1.186409 -2.636755,2.416628 0.01781,0.678905 0.153184,0.968207 0.668581,1.428714 0.791673,0.70736 1.139584,0.714239 3.307341,0.0654 5.905349,-1.767551 8.125426,-1.537613 10.990807,1.138337 1.263389,1.179865 5.652442,6.40705 5.8573,6.975807 0.03242,0.09001 -0.550649,0.560821 -1.295706,1.046247 -1.803742,1.175183 -2.752815,2.299916 -4.016295,4.75965 -1.262507,2.457841 -2.039696,3.393936 -3.051014,3.674828 -1.155074,0.320822 -1.885362,0.258284 -3.534688,-0.302687 -1.903242,-0.647335 -3.601597,-0.681421 -4.750405,-0.09535 -0.452134,0.230663 -1.804684,1.296151 -3.005667,2.367752 -1.311849,1.170523 -2.359126,1.948367 -2.623252,1.948367 -0.274202,0 -0.954159,-0.534149 -1.806909,-1.419443 -1.695467,-1.760165 -2.241322,-1.963456 -4.881848,-1.818126 -3.524903,0.194004 -5.084293,1.15369 -6.595966,4.059318 -0.473641,0.910397 -1.106348,1.815985 -1.406014,2.012418 -0.688147,0.451083 -2.885618,0.473972 -6.284778,0.06546 -2.352042,-0.282666 -2.44431,-0.278834 -2.983729,0.123899 -0.722457,0.539393 -1.01991,1.55098 -0.702967,2.390661 0.131299,0.34785 0.206429,0.664749 0.166957,0.704221 -0.03947,0.03947 -1.039428,-0.788278 -2.222126,-1.839444 z m 9.889177,-4.778252 c 1.157569,-0.598603 1.414624,-2.265454 0.491699,-3.188379 -0.471225,-0.471224 -0.812132,-0.590814 -2.007441,-0.704208 -2.524323,-0.23947 -2.945433,-0.434999 -4.528195,-2.102512 -0.792681,-0.835126 -1.702061,-1.614882 -2.020844,-1.732788 -1.075581,-0.397817 -2.242059,-0.249287 -3.749923,0.477491 -2.077558,1.001363 -2.603201,1.762249 -2.155195,3.11972 0.451734,1.368768 1.706333,1.701289 3.369773,0.893128 l 0.910948,-0.442574 1.1098,1.136729 c 1.497386,1.533716 3.04009,2.285813 5.397767,2.631515 1.696417,0.248741 2.577375,0.224341 3.181611,-0.08812 z m 4.19689,-5.466073 c 0.355054,-0.279286 0.688565,-0.958108 1.066888,-2.171527 0.302704,-0.970876 0.723707,-1.938566 0.935559,-2.150418 0.52925,-0.52925 2.154001,-0.697463 5.531876,-0.572722 3.297905,0.121787 4.034669,0.342089 5.955905,1.780889 1.462049,1.094916 3.047973,1.667874 4.708885,1.701214 0.818688,0.01643 1.054829,-0.07025 1.453285,-0.533483 1.044118,-1.213861 0.287644,-2.481586 -1.667826,-2.794992 -0.756303,-0.121215 -1.522781,-0.411462 -2.024567,-0.766657 -3.493588,-2.472966 -4.051628,-2.630506 -9.317736,-2.630506 -4.898694,0 -5.744269,0.174363 -7.016828,1.446924 -0.68252,0.68252 -0.98313,1.242292 -1.499497,2.792246 -0.81386,2.44292 -0.836743,3.301708 -0.103347,3.878597 0.680913,0.535608 1.314147,0.542151 1.977403,0.02042 z M 27.776622,67.893217 c 0.413128,-0.324967 0.542495,-0.610174 0.542495,-1.195997 0,-0.955517 -0.191439,-1.196062 -1.812398,-2.27728 -1.472343,-0.982088 -2.496184,-1.453174 -3.158277,-1.453174 -0.552754,0 -3.678547,1.561495 -4.037074,2.016727 -0.141551,0.179731 -0.257365,0.672954 -0.257365,1.096053 0,0.585823 0.129368,0.87103 0.542495,1.195996 0.731436,0.575347 1.262784,0.538151 2.636723,-0.184583 l 1.162118,-0.611308 1.47858,0.920145 c 1.65683,1.031075 2.119254,1.109682 2.902703,0.493421 z m 10.120333,-3.991331 c 0.910089,-0.533349 2.986537,-2.654922 3.628062,-3.706908 0.527718,-0.865364 0.484265,-1.675209 -0.122437,-2.281909 -0.599847,-0.599848 -1.53732,-0.664167 -2.114289,-0.145061 -0.220259,0.198171 -0.891955,0.943658 -1.492655,1.656637 -0.600703,0.71298 -1.349139,1.429204 -1.663193,1.591607 -0.560401,0.289796 -0.604155,0.266883 -2.355423,-1.233483 -1.988766,-1.703842 -2.922383,-2.108759 -6.233819,-2.703643 l -1.90832,-0.342821 0.55028,-0.951124 c 1.209595,-2.090716 3.060934,-4.609042 4.026557,-5.47722 1.456346,-1.309381 1.899964,-1.344104 5.637177,-0.441234 4.201435,1.01502 6.177978,1.235349 9.743163,1.08608 1.629919,-0.06824 3.015226,-0.175813 3.078462,-0.239048 0.147371,-0.147371 -1.1416,-2.762036 -2.53628,-5.144817 -1.416739,-2.42047 -2.06256,-3.716511 -2.378604,-4.773407 l -0.257605,-0.861471 1.055476,-1.326432 c 1.744855,-2.192791 2.084624,-2.925831 2.087465,-4.503676 0.0014,-0.756969 -0.137686,-2.042639 -0.309002,-2.857046 -0.214088,-1.017738 -0.270146,-1.976409 -0.179282,-3.065956 0.12965,-1.554615 0.121217,-1.593859 -0.436902,-2.032875 -2.109553,-1.659375 -3.655128,1.585804 -2.679551,5.626138 0.54244,2.246507 0.459472,2.656189 -0.892796,4.408447 -0.663164,0.859322 -1.358048,1.858919 -1.544186,2.221327 -0.779245,1.517172 -0.23267,3.822837 1.732725,7.309312 0.57449,1.019107 1.005114,1.892335 0.956942,1.940508 -0.20766,0.20766 -3.981366,-0.385462 -6.694323,-1.052161 -1.620081,-0.39813 -3.446466,-0.723871 -4.058632,-0.723871 -2.767678,0 -4.995374,1.698104 -7.819592,5.960637 -2.501824,3.775949 -4.144154,6.803599 -3.804453,7.013547 0.615515,0.380409 3.138392,1.037126 5.533617,1.440426 3.132583,0.527455 3.668309,0.744477 5.125631,2.076386 0.633713,0.579177 1.366553,1.193497 1.628535,1.365153 1.505674,0.986558 3.19721,1.04704 4.697252,0.167958 z M 56.596796,50.590578 c 1.164418,-0.530545 1.333674,-2.993404 0.348786,-5.075269 -0.827885,-1.749994 -1.984555,-2.208863 -3.002342,-1.191073 -0.623484,0.623482 -0.654636,1.483256 -0.09359,2.583 0.235338,0.461302 0.411783,1.213477 0.411783,1.75541 0,1.113967 0.266483,1.698583 0.888498,1.949198 0.616039,0.248209 0.86341,0.244573 1.446863,-0.02127 z"
     id="path973" /></svg>
