<?xml version="1.0" encoding="UTF-8" standalone="no"?>
<svg
   xmlns:dc="http://purl.org/dc/elements/1.1/"
   xmlns:cc="http://creativecommons.org/ns#"
   xmlns:rdf="http://www.w3.org/1999/02/22-rdf-syntax-ns#"
   xmlns:svg="http://www.w3.org/2000/svg"
   xmlns="http://www.w3.org/2000/svg"
   xmlns:sodipodi="http://sodipodi.sourceforge.net/DTD/sodipodi-0.dtd"
   xmlns:inkscape="http://www.inkscape.org/namespaces/inkscape"
   version="1.1"
   id="Layer_1"
   x="0px"
   y="0px"
   viewBox="0 0 512 512"
   style="enable-background:new 0 0 512 512;"
   xml:space="preserve"
   sodipodi:docname="picture-of-wendo.svg"
   inkscape:version="1.0.2 (1.0.2+r75+1)"><metadata
   id="metadata59"><rdf:RDF><cc:Work
       rdf:about=""><dc:format>image/svg+xml</dc:format><dc:type
         rdf:resource="http://purl.org/dc/dcmitype/StillImage" /><dc:title></dc:title></cc:Work></rdf:RDF></metadata><defs
   id="defs57" /><sodipodi:namedview
   pagecolor="#ffffff"
   bordercolor="#666666"
   borderopacity="1"
   objecttolerance="10"
   gridtolerance="10"
   guidetolerance="10"
   inkscape:pageopacity="0"
   inkscape:pageshadow="2"
   inkscape:window-width="1391"
   inkscape:window-height="839"
   id="namedview55"
   showgrid="false"
   inkscape:zoom="1.2558594"
   inkscape:cx="192.19589"
   inkscape:cy="260.81316"
   inkscape:window-x="49"
   inkscape:window-y="24"
   inkscape:window-maximized="1"
   inkscape:current-layer="Layer_1" />
<rect
   x="55.38"
   y="55.358"
   style="fill:#5AB8FF;"
   width="401.241"
   height="348.547"
   id="rect2" />
<path
   style="fill:#FFFFFF;"
   d="M10.449,10v491.102h491.102V10C501.551,10,10.449,10,10.449,10z M456.62,403.906H55.38V54.91H456.62  V403.906z"
   id="path4" />


<path
   d="M501.551,0H10.449C4.678,0,0,4.678,0,10.449v491.102C0,507.322,4.678,512,10.449,512h491.102  c5.77,0,10.449-4.678,10.449-10.449V10.449C512,4.678,507.321,0,501.551,0z M491.102,491.102H20.898V20.898h470.204V491.102z"
   id="path10" />
<path
   d="M195.353,446.171h-4.678c-5.77,0-10.449,4.678-10.449,10.449c0,5.771,4.679,10.449,10.449,10.449h4.678  c5.77,0,10.449-4.678,10.449-10.449C205.802,450.849,201.123,446.171,195.353,446.171z"
   id="path12" />
<path
   d="M55.38,467.069h101.492c5.77,0,10.449-4.678,10.449-10.449c0-5.771-4.679-10.449-10.449-10.449H55.38  c-5.77,0-10.449,4.678-10.449,10.449C44.931,462.391,49.61,467.069,55.38,467.069z"
   id="path14" />
<path
   d="m 55.38,414.355 h 401.24 c 5.77,0 10.449,-4.678 10.449,-10.449 V 55.358 c 0,-5.771 -4.679,-10.449 -10.449,-10.449 H 55.38 c -5.77,0 -10.449,4.678 -10.449,10.449 v 348.549 c 0,5.77 4.679,10.448 10.449,10.448 z"
   id="path16"
   sodipodi:nodetypes="sssssssss" />

<path
   d="M214.186,358.127h-4.653c-5.771,0-10.449,4.678-10.449,10.449c0,5.771,4.678,10.449,10.449,10.449h4.653  c5.771,0,10.449-4.678,10.449-10.449C224.635,362.805,219.957,358.127,214.186,358.127z"
   id="path20" />
<path
   d="M175.904,358.127H99.637c-5.77,0-10.449,4.678-10.449,10.449c0,5.771,4.679,10.449,10.449,10.449h76.266  c5.77,0,10.449-4.678,10.449-10.449C186.353,362.805,181.674,358.127,175.904,358.127z"
   id="path22" />
<g
   id="g24">
</g>
<g
   id="g26">
</g>
<g
   id="g28">
</g>
<g
   id="g30">
</g>
<g
   id="g32">
</g>
<g
   id="g34">
</g>
<g
   id="g36">
</g>
<g
   id="g38">
</g>
<g
   id="g40">
</g>
<g
   id="g42">
</g>
<g
   id="g44">
</g>
<g
   id="g46">
</g>
<g
   id="g48">
</g>
<g
   id="g50">
</g>
<g
   id="g52">
</g>
<path
   style="fill:#1a1a1a;stroke-width:0.796268"
   d="m 48.8315,410.87606 -2.974309,-2.72572 -0.234285,-177.4298 C 45.363266,34.089291 44.936742,50.221178 50.484025,46.864683 c 2.488602,-1.50578 6.580732,-1.540739 203.887325,-1.741838 131.27365,-0.133797 202.36843,0.06963 204.28053,0.584501 1.61304,0.434345 3.99069,1.893907 5.28367,3.24347 l 2.35088,2.453752 0.20842,176.918202 c 0.15453,131.16411 -0.0267,177.48867 -0.70048,179.12406 -0.4999,1.21322 -1.96488,3.0944 -3.25552,4.18041 l -2.34661,1.97454 H 255.99902 51.80581 Z"
   id="path61" /><g
   id="g154"
   transform="matrix(0.6917942,0,0,0.65375238,82.494627,71.52696)"><circle
     style="fill:#61e1ff"
     cx="251.565"
     cy="332.31201"
     r="151.158"
     id="circle63" /><path
     style="fill:#49c3e8"
     d="m 251.565,181.169 c 83.48,0 151.142,67.663 151.142,151.142 0,83.464 -67.663,151.127 -151.142,151.127"
     id="path65" /><path
     style="fill:#526570"
     d="m 251.565,503.131 c -94.2,0 -170.835,-76.635 -170.835,-170.819 0,-94.2 76.635,-170.835 170.835,-170.835 94.2,0 170.835,76.634 170.835,170.835 0,94.184 -76.635,170.819 -170.835,170.819 z m 0,-302.269 c -72.476,0 -131.45,58.967 -131.45,131.45 0,72.468 58.967,131.434 131.45,131.434 72.483,0 131.45,-58.959 131.45,-131.434 0,-72.475 -58.974,-131.45 -131.45,-131.45 z"
     id="path67" /><path
     style="fill:#526570"
     d="m 251.565,199.546 c -10.878,0 -19.692,-8.814 -19.692,-19.692 V 19.692 C 231.873,8.814 240.687,0 251.565,0 c 10.878,0 19.692,8.814 19.692,19.692 v 160.154 c 10e-4,10.878 -8.814,19.7 -19.692,19.7 z"
     id="path69" /><path
     style="fill:#526570"
     d="M 325.734,105.677 H 177.396 c -10.878,0 -19.692,-8.814 -19.692,-19.692 0,-10.878 8.814,-19.692 19.692,-19.692 h 148.338 c 10.878,0 19.692,8.814 19.692,19.692 0,10.878 -8.814,19.692 -19.692,19.692 z"
     id="path71" /><path
     style="fill:#61e1ff"
     d="m 115.688,28.231 c 31.909,0 57.769,25.844 57.769,57.754 0,31.91 -25.86,57.769 -57.769,57.769"
     id="path73" /><path
     style="fill:#526570"
     d="m 115.688,163.446 c -10.878,0 -19.692,-8.814 -19.692,-19.692 0,-10.878 8.814,-19.692 19.692,-19.692 21,0 38.077,-17.085 38.077,-38.077 0,-20.984 -17.077,-38.061 -38.077,-38.061 -10.878,0 -19.692,-8.814 -19.692,-19.692 0,-10.878 8.814,-19.692 19.692,-19.692 42.709,0 77.462,34.737 77.462,77.446 0,42.715 -34.753,77.46 -77.462,77.46 z"
     id="path75" /><path
     style="fill:#49c3e8"
     d="m 387.442,143.754 c -31.909,0 -57.769,-25.86 -57.769,-57.769 0,-31.909 25.86,-57.754 57.769,-57.754"
     id="path77" /><path
     style="fill:#526570"
     d="m 387.442,163.446 c -42.709,0 -77.462,-34.745 -77.462,-77.462 0,-42.709 34.753,-77.446 77.462,-77.446 10.878,0 19.692,8.814 19.692,19.692 0,10.878 -8.814,19.692 -19.692,19.692 -20.984,0 -38.077,17.077 -38.077,38.061 0,20.992 17.093,38.077 38.077,38.077 10.878,0 19.692,8.814 19.692,19.692 0,10.878 -8.814,19.694 -19.692,19.694 z"
     id="path79" /><g
     id="g87">
	<circle
   style="fill:#61e1ff"
   cx="290.272"
   cy="330.33499"
   r="8.3649998"
   id="circle81" />
	<circle
   style="fill:#61e1ff"
   cx="322.26099"
   cy="330.33499"
   r="8.3649998"
   id="circle83" />
	<path
   style="fill:#61e1ff"
   d="m 362.646,330.335 c 0,4.624 -3.757,8.365 -8.381,8.365 -4.6,0 -8.357,-3.749 -8.357,-8.365 0,-4.616 3.757,-8.365 8.357,-8.365 4.623,-0.001 8.381,3.741 8.381,8.365 z"
   id="path85" />
</g><g
     id="g89">
</g><g
     id="g91">
</g><g
     id="g93">
</g><g
     id="g95">
</g><g
     id="g97">
</g><g
     id="g99">
</g><g
     id="g101">
</g><g
     id="g103">
</g><g
     id="g105">
</g><g
     id="g107">
</g><g
     id="g109">
</g><g
     id="g111">
</g><g
     id="g113">
</g><g
     id="g115">
</g><g
     id="g117">
</g></g></svg>
