<?xml version="1.0" encoding="iso-8859-1"?>
<!-- Generator: Adobe Illustrator 19.0.0, SVG Export Plug-In . SVG Version: 6.00 Build 0)  -->
<svg version="1.1" id="Layer_1" xmlns="http://www.w3.org/2000/svg" xmlns:xlink="http://www.w3.org/1999/xlink" x="0px" y="0px"
	 viewBox="0 0 512 512" style="enable-background:new 0 0 512 512;" xml:space="preserve">
<rect x="55.38" y="55.358" style="fill:#5AB8FF;" width="401.241" height="348.547"/>
<path style="fill:#FFFFFF;" d="M10.449,10v491.102h491.102V10C501.551,10,10.449,10,10.449,10z M456.62,403.906H55.38V54.91H456.62
	V403.906z"/>
<polygon style="fill:#1EB615;" points="366.214,221.232 233.953,306.176 161.98,215.173 55.38,321.176 55.38,403.906 
	310.493,403.906 456.62,403.906 456.62,303.003 "/>
<path style="fill:#FFD41D;" d="M309.176,198.256c0-17.316-14.033-31.348-31.348-31.348c-17.31,0-31.346,14.032-31.346,31.348
	s14.036,31.346,31.346,31.346C295.143,229.602,309.176,215.573,309.176,198.256L309.176,198.256z"/>
<path d="M501.551,0H10.449C4.678,0,0,4.678,0,10.449v491.102C0,507.322,4.678,512,10.449,512h491.102
	c5.77,0,10.449-4.678,10.449-10.449V10.449C512,4.678,507.321,0,501.551,0z M491.102,491.102H20.898V20.898h470.204V491.102z"/>
<path d="M195.353,446.171h-4.678c-5.77,0-10.449,4.678-10.449,10.449c0,5.771,4.679,10.449,10.449,10.449h4.678
	c5.77,0,10.449-4.678,10.449-10.449C205.802,450.849,201.123,446.171,195.353,446.171z"/>
<path d="M55.38,467.069h101.492c5.77,0,10.449-4.678,10.449-10.449c0-5.771-4.679-10.449-10.449-10.449H55.38
	c-5.77,0-10.449,4.678-10.449,10.449C44.931,462.391,49.61,467.069,55.38,467.069z"/>
<path d="M55.38,414.355H456.62c5.77,0,10.449-4.678,10.449-10.449V55.358c0-5.771-4.679-10.449-10.449-10.449H55.38
	c-5.77,0-10.449,4.678-10.449,10.449v348.549C44.931,409.677,49.61,414.355,55.38,414.355z M65.829,325.521l95.217-94.684
	l64.68,81.782l63.311,80.839H65.829V325.521z M446.171,393.457H315.582l-8.181-10.446l-58.148-74.245l115.878-74.423l81.039,73.298
	V393.457z M446.171,65.807v213.658l-72.95-65.981c-3.499-3.164-8.686-3.591-12.656-1.042l-124.292,79.826l-66.099-83.575
	c-1.847-2.335-4.602-3.772-7.574-3.949c-2.976-0.177-5.878,0.922-7.989,3.022L65.829,296.05V65.807H446.171z"/>
<path d="M277.828,240.051c23.047,0,41.797-18.749,41.797-41.795c0-23.047-18.75-41.797-41.797-41.797
	c-23.046,0-41.795,18.75-41.795,41.797C236.033,221.302,254.782,240.051,277.828,240.051z M277.828,177.357
	c11.523,0,20.899,9.375,20.899,20.899c0,11.522-9.376,20.897-20.899,20.897c-11.522,0-20.897-9.375-20.897-20.897
	C256.931,186.732,266.305,177.357,277.828,177.357z"/>
<path d="M214.186,358.127h-4.653c-5.771,0-10.449,4.678-10.449,10.449c0,5.771,4.678,10.449,10.449,10.449h4.653
	c5.771,0,10.449-4.678,10.449-10.449C224.635,362.805,219.957,358.127,214.186,358.127z"/>
<path d="M175.904,358.127H99.637c-5.77,0-10.449,4.678-10.449,10.449c0,5.771,4.679,10.449,10.449,10.449h76.266
	c5.77,0,10.449-4.678,10.449-10.449C186.353,362.805,181.674,358.127,175.904,358.127z"/>
<g>
</g>
<g>
</g>
<g>
</g>
<g>
</g>
<g>
</g>
<g>
</g>
<g>
</g>
<g>
</g>
<g>
</g>
<g>
</g>
<g>
</g>
<g>
</g>
<g>
</g>
<g>
</g>
<g>
</g>
</svg>
