<?xml version="1.0" encoding="UTF-8" standalone="no"?>
<svg
   xmlns:dc="http://purl.org/dc/elements/1.1/"
   xmlns:cc="http://creativecommons.org/ns#"
   xmlns:rdf="http://www.w3.org/1999/02/22-rdf-syntax-ns#"
   xmlns:svg="http://www.w3.org/2000/svg"
   xmlns="http://www.w3.org/2000/svg"
   xmlns:sodipodi="http://sodipodi.sourceforge.net/DTD/sodipodi-0.dtd"
   xmlns:inkscape="http://www.inkscape.org/namespaces/inkscape"
   version="1.1"
   id="Capa_1"
   x="0px"
   y="0px"
   width="223.022px"
   height="223.022px"
   viewBox="0 0 223.022 223.022"
   style="enable-background:new 0 0 223.022 223.022;"
   xml:space="preserve"
   sodipodi:docname="power-switch.svg"
   inkscape:version="1.0.2 (1.0.2+r75+1)"><metadata
   id="metadata45"><rdf:RDF><cc:Work
       rdf:about=""><dc:format>image/svg+xml</dc:format><dc:type
         rdf:resource="http://purl.org/dc/dcmitype/StillImage" /><dc:title></dc:title></cc:Work></rdf:RDF></metadata><defs
   id="defs43" /><sodipodi:namedview
   pagecolor="#ffffff"
   bordercolor="#666666"
   borderopacity="1"
   objecttolerance="10"
   gridtolerance="10"
   guidetolerance="10"
   inkscape:pageopacity="0"
   inkscape:pageshadow="2"
   inkscape:window-width="1391"
   inkscape:window-height="839"
   id="namedview41"
   showgrid="false"
   inkscape:zoom="2.8831236"
   inkscape:cx="111.511"
   inkscape:cy="111.511"
   inkscape:window-x="49"
   inkscape:window-y="24"
   inkscape:window-maximized="1"
   inkscape:current-layer="Capa_1" />
<g
   id="g8">
	<path
   d="M195.724,209.005V14.017C195.724,6.286,189.44,0,181.707,0h-98.36C75.616,0,69.33,6.286,69.33,14.017v13.555H30.803   c-1.935,0-3.504,1.565-3.504,3.504v22.631c0,0.455,0.09,0.91,0.27,1.338c0.178,0.432,0.433,0.816,0.76,1.144l40.215,40.21   c-4.002,4.069-6.536,9.954-6.536,16.512c0,7.104,2.972,13.429,7.57,17.491c-0.144,0.383-0.245,0.783-0.245,1.215v77.389   c0,7.728,6.287,14.018,14.017,14.018h98.357C189.434,223.022,195.724,216.732,195.724,209.005z M34.307,34.581h65.271v15.623   H34.307V34.581z M159.627,81.293c0.335,0.269,0.705,0.466,1.088,0.592v46.219h-14.646c-0.261-0.15-0.534-0.294-0.835-0.373   c-5.753-1.516-9.932-7.751-9.932-14.821c0-7.073,4.175-13.305,9.932-14.821c1.379-0.364,2.341-1.538,2.532-2.922   c0.127-0.106,0.284-0.157,0.396-0.284c1.308-1.431,1.205-3.648-0.226-4.952l-41.35-37.762V38.417L159.627,81.293z M102.276,135.12   h6.43h32.071h19.938v5.469h-58.438V135.12z M101.722,57.211l36.667,33.486h-56.78c-2.565,0-5.012,0.578-7.262,1.598L39.263,57.211   H101.722z M69.013,112.91c0-8.384,5.65-15.204,12.595-15.204h51.986c-3.323,3.999-5.302,9.364-5.302,15.204   c0,5.839,1.975,11.201,5.298,15.201H108.71h-9.935H81.612C74.663,128.111,69.013,121.288,69.013,112.91z M76.338,209.005v-74.727   c1.678,0.534,3.441,0.835,5.267,0.835h13.66v8.977c0,1.937,1.569,3.504,3.504,3.504h61.939v14.018c0,1.937,1.574,3.504,3.505,3.504   c1.937,0,3.504-1.567,3.504-3.504V144.09v-12.48V80.501V52.393c0-1.939-1.567-3.504-3.504-3.504c-1.931,0-3.505,1.565-3.505,3.504   v20.769l-55.422-44.81c-0.123-0.098-0.273-0.128-0.402-0.212c-0.207-0.126-0.407-0.253-0.642-0.337   c-0.243-0.084-0.48-0.117-0.729-0.147c-0.147-0.017-0.281-0.083-0.431-0.083H76.338V14.017c0-3.866,3.143-7.009,7.008-7.009h98.36   c3.863,0,7.008,3.143,7.008,7.009v194.988c0,3.863-3.145,7.009-7.008,7.009h-98.36C79.481,216.014,76.338,212.865,76.338,209.005z"
   id="path2" />
	<path
   d="M132.523,178.694c-6.715,0-12.173,5.466-12.173,12.177c0,6.714,5.465,12.179,12.173,12.179   c6.714,0,12.176-5.465,12.176-12.179C144.699,184.16,139.237,178.694,132.523,178.694z M132.523,196.035   c-2.848,0-5.164-2.313-5.164-5.168c0-2.851,2.316-5.167,5.164-5.167c2.851,0,5.167,2.316,5.167,5.167   C137.69,193.722,135.374,196.035,132.523,196.035z"
   id="path4" />
	<path
   d="M132.523,17.15c-6.715,0-12.173,5.463-12.173,12.178s5.465,12.178,12.173,12.178c6.714,0,12.176-5.463,12.176-12.178   S139.237,17.15,132.523,17.15z M132.523,34.492c-2.848,0-5.164-2.315-5.164-5.167s2.316-5.169,5.164-5.169   c2.851,0,5.167,2.316,5.167,5.169S135.374,34.492,132.523,34.492z"
   id="path6" />
</g>
<g
   id="g10">
</g>
<g
   id="g12">
</g>
<g
   id="g14">
</g>
<g
   id="g16">
</g>
<g
   id="g18">
</g>
<g
   id="g20">
</g>
<g
   id="g22">
</g>
<g
   id="g24">
</g>
<g
   id="g26">
</g>
<g
   id="g28">
</g>
<g
   id="g30">
</g>
<g
   id="g32">
</g>
<g
   id="g34">
</g>
<g
   id="g36">
</g>
<g
   id="g38">
</g>
<path
   style="fill:#ff0000;stroke-width:0.346846"
   d="m 78.09772,127.27605 c -3.353317,-1.22995 -6.427664,-4.5857 -7.928944,-8.6547 -1.09302,-2.96248 -1.09302,-8.48345 0,-11.44592 1.03539,-2.80628 2.929649,-5.47338 4.930543,-6.94217 3.202653,-2.350968 1.788302,-2.249254 31.276221,-2.249254 h 26.68715 l -0.72134,1.013038 c -2.4557,3.448716 -4.18174,9.186566 -4.18174,13.901346 0,4.71477 1.72604,10.45262 4.18174,13.90134 l 0.72134,1.01304 -26.81747,-0.0244 c -22.138231,-0.0202 -27.049546,-0.10956 -28.1475,-0.51228 z"
   id="path47" /><path
   style="fill:#ff0000;stroke-width:0.346846"
   d="m 143.59426,126.82268 c -5.47083,-2.60134 -8.92105,-9.74458 -7.89825,-16.35238 0.83938,-5.42286 3.89711,-9.62313 8.59448,-11.805865 2.1672,-1.007033 2.91322,-1.54735 3.39598,-2.459579 0.34026,-0.642973 0.84408,-1.559243 1.11959,-2.036156 0.59828,-1.035624 0.6453,-2.107298 0.14005,-3.192007 -0.20411,-0.438198 -9.79648,-9.381162 -21.31638,-19.873255 l -20.94528,-19.076532 -0.0146,-6.503363 c -0.008,-3.57685 0.0665,-6.503364 0.16566,-6.503364 0.0992,0 6.30531,4.955563 13.79141,11.012362 7.4861,6.056799 19.50122,15.769454 26.70025,21.583677 l 13.08916,10.571316 v 22.812616 22.81262 l -7.37048,-2.8e-4 -7.37047,-2.7e-4 z"
   id="path49" /><path
   style="fill:#ff0000;stroke-width:0.346846"
   d="m 57.195952,74.711671 -17.306056,-17.308652 30.867997,0.0021 30.867997,0.0021 18.13303,16.55979 18.13304,16.55979 -30.27265,0.173423 c -27.090782,0.155195 -30.422141,0.233684 -31.694972,0.746754 l -1.422329,0.573332 z"
   id="path51" /><path
   style="fill:#ff0000;stroke-width:0.346846"
   d="M 34.511181,42.48864 V 34.858027 H 66.941286 99.37139 v 7.630613 7.630613 H 66.941286 34.511181 Z"
   id="path53" /><path
   style="fill:#00ccff;stroke-width:0.346846"
   d="m 81.209582,215.40599 c -1.711092,-0.61304 -3.255588,-2.06555 -4.072458,-3.82991 -0.612673,-1.32331 -0.642689,-3.13622 -0.649955,-39.2561 l -0.0076,-37.86872 1.127249,0.36003 c 0.619988,0.19801 4.834167,0.44065 9.364843,0.53919 l 8.237594,0.17918 v 5.01281 5.01281 l 1.013857,1.01385 1.013858,1.01386 h 31.5709 31.5709 l 0.10548,7.60619 c 0.0985,7.0984 0.15415,7.6713 0.83448,8.58158 1.42396,1.90528 4.40292,1.90476 5.82578,-0.001 l 0.72899,-0.97637 V 107.002 51.210659 l -0.72693,-0.979261 c -0.86084,-1.159662 -2.85296,-1.779157 -4.1899,-1.302937 -0.49978,0.178022 -1.2368,0.763991 -1.63781,1.30215 -0.694,0.93133 -0.73748,1.491372 -0.90255,11.623851 L 160.24287,72.499844 134.40284,51.583567 C 120.19082,40.079618 107.64988,29.971362 106.53408,29.120777 L 104.50535,27.57426 H 90.492449 76.479552 l 0.0076,-7.370478 c 0.0066,-6.378205 0.09265,-7.55766 0.639244,-8.760838 0.804808,-1.7715723 2.775113,-3.5062571 4.514491,-3.9746229 0.926171,-0.249392 17.268439,-0.3363594 51.625163,-0.2747296 l 50.27,0.090175 1.68004,1.0405381 c 1.10471,0.6841989 1.95713,1.565184 2.48916,2.5725454 l 0.8091,1.532006 -0.0885,99.429854 -0.0885,99.42987 -0.95859,1.38323 c -0.52723,0.76078 -1.61979,1.76196 -2.42793,2.22483 l -1.46933,0.8416 -50.46609,0.0739 c -42.238806,0.0618 -50.684518,-0.004 -51.805875,-0.40612 z m 55.780438,-13.04581 c 2.51535,-0.94112 5.43028,-3.61477 6.64271,-6.0929 2.59126,-5.29634 0.80342,-12.12075 -4.05313,-15.47132 -4.9596,-3.42167 -11.42926,-2.87636 -15.68808,1.32231 -0.877,0.86461 -2.03136,2.46154 -2.56525,3.54873 -0.84513,1.72101 -0.97069,2.38129 -0.97069,5.10444 0,2.83354 0.10702,3.34525 1.13785,5.44022 1.36702,2.77823 3.84545,5.14606 6.42408,6.13742 2.50561,0.96329 6.51444,0.96819 9.07251,0.0111 z M 137.7529,40.417509 c 2.57687,-1.187502 4.61952,-3.207039 5.91789,-5.85095 0.84871,-1.72824 0.96401,-2.357139 0.96401,-5.258069 0,-2.879112 -0.11841,-3.53613 -0.93806,-5.205022 -1.58871,-3.234801 -4.85087,-5.960065 -8.06247,-6.735536 -0.5627,-0.135866 -2.05852,-0.243757 -3.32407,-0.239758 -3.4797,0.011 -5.92958,1.065686 -8.54453,3.678483 -1.85875,1.857217 -2.2403,2.469741 -2.90821,4.668692 -1.39713,4.59976 -0.46618,8.822474 2.68858,12.195167 3.76962,4.030024 9.16067,5.072424 14.20686,2.746993 z"
   id="path55" /><path
   style="fill:#00ccff;stroke-width:0.346846"
   d="m 81.209582,215.05675 c -0.736877,-0.26269 -1.787651,-0.90671 -2.335054,-1.43115 -2.067377,-1.98068 -1.982403,-0.39362 -2.215281,-41.37472 l -0.213613,-37.59097 0.797363,0.22961 c 0.438549,0.12629 4.543299,0.37498 9.121667,0.55266 4.578367,0.17767 8.441365,0.32867 8.584439,0.33554 0.143074,0.007 0.260135,2.24647 0.260135,4.97688 v 4.96438 l 0.972805,0.932 0.972806,0.93201 h 31.457301 c 17.30151,0 31.47423,0.11706 31.49493,0.26013 0.0207,0.14308 0.13775,3.66794 0.26013,7.83302 l 0.22251,7.57289 1.13272,1.01155 c 1.59301,1.42261 3.43089,1.39921 5.09843,-0.0649 l 1.22604,-1.07647 V 107.002 50.884804 l -1.22604,-1.076468 c -2.50305,-2.19771 -5.802,-1.0482 -6.20608,2.162499 -0.0999,0.793899 -0.30252,5.614639 -0.45022,10.712756 l -0.26855,9.269301 -17.16887,-13.897753 C 133.28426,50.411373 120.91691,40.42618 115.24415,35.865821 L 104.93003,27.57426 H 90.68872 76.447407 l 0.238396,-7.543901 c 0.131118,-4.149146 0.357118,-7.864861 0.502223,-8.257145 0.448533,-1.212592 2.089973,-2.9266219 3.483491,-3.6375412 1.302055,-0.6642593 2.393499,-0.678483 52.062823,-0.678483 h 50.73289 l 1.64371,1.1216602 c 1.02894,0.7021469 1.99196,1.761521 2.57485,2.832467 l 0.93114,1.710807 -0.22369,7.659626 c -0.12302,4.212794 -0.22493,48.8294 -0.22647,99.14802 l -0.003,91.48839 -1.45611,1.57969 c -2.58598,2.80545 2.40194,2.5687 -53.7619,2.55174 -41.888053,-0.0127 -50.62281,-0.0959 -51.736388,-0.49284 z m 56.776388,-12.9767 c 2.14438,-1.05573 4.76822,-3.67956 5.82395,-5.82394 0.71397,-1.45021 0.82289,-2.16514 0.81011,-5.31737 -0.0121,-2.98176 -0.15156,-3.94107 -0.76941,-5.2925 -1.11665,-2.44245 -3.55239,-4.85826 -6.07147,-6.02178 -1.87673,-0.86683 -2.57564,-0.99875 -5.29126,-0.99875 -2.83103,0 -3.34754,0.10764 -5.42549,1.13061 -2.47131,1.21662 -4.13629,2.82037 -5.71305,5.50296 -0.93111,1.58411 -0.99377,1.93134 -0.99377,5.50604 0,3.56285 0.0667,3.93562 1.00745,5.6335 1.15808,2.09003 3.63465,4.72728 5.19886,5.53616 1.88293,0.97371 2.73673,1.11535 6.28014,1.04187 2.85681,-0.0592 3.76393,-0.21738 5.14394,-0.8968 z m 0.0799,-161.657001 c 2.6889,-1.323743 5.07003,-3.907371 6.08782,-6.60556 0.59233,-1.570267 0.69674,-2.495711 0.59038,-5.232651 -0.11912,-3.06543 -0.22319,-3.481413 -1.33318,-5.328644 -1.4548,-2.421045 -3.35097,-4.146788 -5.82278,-5.299419 -1.46633,-0.683762 -2.42541,-0.865237 -4.68243,-0.885992 -4.11917,-0.03788 -5.99184,0.690146 -8.94766,3.478509 -2.14675,2.025139 -2.47252,2.511629 -3.12888,4.672545 -2.11202,6.953367 1.11143,13.560766 7.78135,15.950158 2.72984,0.977922 6.56461,0.674175 9.45538,-0.748946 z"
   id="path57" /><path
   style="fill:#53676c;stroke-width:0.346846"
   d="m 130.24069,195.18707 c -1.68977,-0.84413 -2.9666,-3.29048 -2.63631,-5.05105 0.7368,-3.92746 5.40167,-5.50657 8.23843,-2.78878 4.13564,3.96219 -0.46795,10.40463 -5.60212,7.83983 z"
   id="path61" /><path
   style="fill:#53676c;stroke-width:0.346846"
   d="m 129.85842,33.377018 c -1.5757,-1.052637 -2.47308,-2.838829 -2.26847,-4.5153 0.71092,-5.82514 9.09955,-5.82514 9.81048,0 0.47507,3.892596 -4.24453,6.718157 -7.54201,4.5153 z"
   id="path63" /><path
   style="fill:#ff5555;stroke-width:0.346846"
   d="m 102.493,137.8713 v -2.42792 h 28.96165 28.96164 v 2.42792 2.42792 H 131.45465 102.493 Z"
   id="path65" /></svg>
