<?xml version="1.0" encoding="UTF-8" standalone="no"?>
<svg
   xmlns:dc="http://purl.org/dc/elements/1.1/"
   xmlns:cc="http://creativecommons.org/ns#"
   xmlns:rdf="http://www.w3.org/1999/02/22-rdf-syntax-ns#"
   xmlns:svg="http://www.w3.org/2000/svg"
   xmlns="http://www.w3.org/2000/svg"
   xmlns:sodipodi="http://sodipodi.sourceforge.net/DTD/sodipodi-0.dtd"
   xmlns:inkscape="http://www.inkscape.org/namespaces/inkscape"
   version="1.1"
   id="Capa_1"
   x="0px"
   y="0px"
   viewBox="0 0 102.446 102.446"
   style="enable-background:new 0 0 102.446 102.446;"
   xml:space="preserve"
   sodipodi:docname="remote.svg"
   inkscape:version="1.0.2 (1.0.2+r75+1)"><metadata
   id="metadata171"><rdf:RDF><cc:Work
       rdf:about=""><dc:format>image/svg+xml</dc:format><dc:type
         rdf:resource="http://purl.org/dc/dcmitype/StillImage" /></cc:Work></rdf:RDF></metadata><defs
   id="defs169" /><sodipodi:namedview
   pagecolor="#ffffff"
   bordercolor="#666666"
   borderopacity="1"
   objecttolerance="10"
   gridtolerance="10"
   guidetolerance="10"
   inkscape:pageopacity="0"
   inkscape:pageshadow="2"
   inkscape:window-width="1391"
   inkscape:window-height="839"
   id="namedview167"
   showgrid="false"
   inkscape:zoom="2.7693966"
   inkscape:cx="42.282066"
   inkscape:cy="49.880526"
   inkscape:window-x="49"
   inkscape:window-y="24"
   inkscape:window-maximized="1"
   inkscape:current-layer="Capa_1" />
<g
   id="g134"
   transform="rotate(43.630187,51.223,51.223)">
	<g
   id="g8">
		<path
   style="fill:#666665"
   d="m 67.555,91.39 c 0,5.527 -4.524,10.051 -10.052,10.051 H 44.942 c -5.528,0 -10.051,-4.523 -10.051,-10.051 V 11.056 c 0,-5.528 4.522,-10.051 10.051,-10.051 h 12.562 c 5.528,0 10.052,4.523 10.052,10.051 V 91.39 Z"
   id="path2" />
		<g
   id="g6">
			<path
   style="fill:#30302e"
   d="M 57.503,102.446 H 44.942 c -6.099,0 -11.056,-4.96 -11.056,-11.056 V 11.056 C 33.886,4.959 38.843,0 44.942,0 H 57.504 C 63.6,0 68.56,4.959 68.56,11.056 V 91.39 c 0,6.096 -4.96,11.056 -11.057,11.056 z M 44.942,2.01 c -4.988,0 -9.046,4.058 -9.046,9.045 V 91.39 c 0,4.987 4.058,9.045 9.046,9.045 h 12.562 c 4.988,0 9.046,-4.058 9.046,-9.045 V 11.056 c 0,-4.987 -4.058,-9.045 -9.046,-9.045 H 44.942 Z"
   id="path4" />
		</g>
	</g>
	<g
   id="g132">
		<circle
   style="fill:#43c487"
   cx="59.650002"
   cy="11.271"
   r="2.5799999"
   id="circle10" />
		<g
   id="g128">
			<g
   id="g44">
				<g
   id="g18">
					<rect
   x="40.167"
   y="43.625999"
   style="fill:#8e8e8d"
   width="6.0300002"
   height="3.267"
   id="rect12" />
					<rect
   x="48.208"
   y="43.625999"
   style="fill:#8e8e8d"
   width="6.0279999"
   height="3.267"
   id="rect14" />
					<rect
   x="56.247002"
   y="43.625999"
   style="fill:#8e8e8d"
   width="6.0300002"
   height="3.267"
   id="rect16" />
				</g>
				<g
   id="g26">
					<rect
   x="40.167"
   y="49.657001"
   style="fill:#8e8e8d"
   width="6.0300002"
   height="3.266"
   id="rect20" />
					<rect
   x="48.208"
   y="49.657001"
   style="fill:#8e8e8d"
   width="6.0279999"
   height="3.266"
   id="rect22" />
					<rect
   x="56.247002"
   y="49.657001"
   style="fill:#8e8e8d"
   width="6.0300002"
   height="3.266"
   id="rect24" />
				</g>
				<g
   id="g34">
					<rect
   x="40.167"
   y="55.687"
   style="fill:#8e8e8d"
   width="6.0300002"
   height="3.267"
   id="rect28" />
					<rect
   x="48.208"
   y="55.687"
   style="fill:#8e8e8d"
   width="6.0279999"
   height="3.267"
   id="rect30" />
					<rect
   x="56.247002"
   y="55.687"
   style="fill:#8e8e8d"
   width="6.0300002"
   height="3.267"
   id="rect32" />
				</g>
				<g
   id="g42">
					<rect
   x="40.167"
   y="61.716999"
   style="fill:#8e8e8d"
   width="6.0300002"
   height="3.267"
   id="rect36" />
					<rect
   x="48.208"
   y="61.716999"
   style="fill:#8e8e8d"
   width="6.0279999"
   height="3.267"
   id="rect38" />
					<rect
   x="56.247002"
   y="61.716999"
   style="fill:#8e8e8d"
   width="6.0300002"
   height="3.267"
   id="rect40" />
				</g>
			</g>
			<g
   id="g86">
				<g
   id="g82">
					<g
   id="g62">
						<g
   id="g52">
							<path
   style="fill:#8e8e8d"
   d="m 47.113,22.144 -2.26,-2.954 c 0,0 5.909,-4.112 12.743,0 l -1.911,2.954 c 10e-4,0 -3.996,-1.622 -8.572,0 z"
   id="path46" />
							<g
   id="g50">
								<path
   style="fill:#f26038"
   d="M 57.409,19.482 C 51.088,15.434 45.111,19.436 45.053,19.476 l -0.396,-0.573 c 0.063,-0.043 6.406,-4.309 13.128,-0.006 z"
   id="path48" />
							</g>
						</g>
						<g
   id="g60">
							<path
   style="fill:#8e8e8d"
   d="m 55.329,33.831 2.259,2.954 c 0,0 -5.908,4.112 -12.74,0 l 1.911,-2.954 c 0,0 3.995,1.621 8.57,0 z"
   id="path54" />
							<g
   id="g58">
								<path
   style="fill:#f9e382"
   d="m 45.034,36.492 c 6.323,4.048 12.297,0.047 12.356,0.006 l 0.395,0.573 c -0.063,0.043 -6.407,4.309 -13.128,0.006 z"
   id="path56" />
							</g>
						</g>
					</g>
					<g
   id="g80">
						<g
   id="g70">
							<path
   style="fill:#8e8e8d"
   d="m 57.064,23.88 2.955,-2.259 c 0,0 4.112,5.908 0,12.742 l -2.955,-1.911 c 0,0 1.622,-3.996 0,-8.572 z"
   id="path64" />
							<g
   id="g68">
								<path
   style="fill:#43c487"
   d="m 59.726,34.175 c 4.049,-6.324 0.048,-12.297 0.006,-12.357 l 0.573,-0.394 c 0.043,0.063 4.309,6.405 0.006,13.126 z"
   id="path66" />
							</g>
						</g>
						<g
   id="g78">
							<path
   style="fill:#8e8e8d"
   d="m 45.378,32.095 -2.954,2.259 c 0,0 -4.112,-5.908 0,-12.742 l 2.954,1.911 c 0,-0.001 -1.621,3.996 0,8.572 z"
   id="path72" />
							<g
   id="g76">
								<path
   style="fill:#3ac9ef"
   d="M 42.717,21.799 C 38.668,28.122 42.669,34.096 42.71,34.156 L 42.138,34.55 C 42.094,34.487 37.829,28.145 42.131,21.424 Z"
   id="path74" />
							</g>
						</g>
					</g>
				</g>
				<circle
   style="fill:#8e8e8d"
   cx="51.220001"
   cy="27.988001"
   r="3.8510001"
   id="circle84" />
			</g>
			<g
   id="g96">
				<circle
   style="fill:#f26038"
   cx="42.175999"
   cy="69.255997"
   r="1.382"
   id="circle88" />
				<circle
   style="fill:#3ac9ef"
   cx="48.207001"
   cy="69.255997"
   r="1.382"
   id="circle90" />
				<circle
   style="fill:#f9e382"
   cx="54.237999"
   cy="69.255997"
   r="1.382"
   id="circle92" />
				<circle
   style="fill:#43c487"
   cx="60.269001"
   cy="69.255997"
   r="1.382"
   id="circle94" />
			</g>
			<g
   id="g106">
				<circle
   style="fill:#8e8e8d"
   cx="42.175999"
   cy="74.280998"
   r="1.382"
   id="circle98" />
				<circle
   style="fill:#8e8e8d"
   cx="48.207001"
   cy="74.280998"
   r="1.382"
   id="circle100" />
				<circle
   style="fill:#8e8e8d"
   cx="54.237999"
   cy="74.280998"
   r="1.382"
   id="circle102" />
				<circle
   style="fill:#8e8e8d"
   cx="60.269001"
   cy="74.280998"
   r="1.382"
   id="circle104" />
			</g>
			<g
   id="g116">
				<circle
   style="fill:#8e8e8d"
   cx="42.175999"
   cy="79.306999"
   r="1.382"
   id="circle108" />
				<circle
   style="fill:#8e8e8d"
   cx="48.207001"
   cy="79.306999"
   r="1.382"
   id="circle110" />
				<circle
   style="fill:#8e8e8d"
   cx="54.237999"
   cy="79.306999"
   r="1.382"
   id="circle112" />
				<circle
   style="fill:#8e8e8d"
   cx="60.269001"
   cy="79.306999"
   r="1.382"
   id="circle114" />
			</g>
			<g
   id="g126">
				<circle
   style="fill:#8e8e8d"
   cx="42.175999"
   cy="84.332001"
   r="1.382"
   id="circle118" />
				<circle
   style="fill:#8e8e8d"
   cx="48.207001"
   cy="84.332001"
   r="1.382"
   id="circle120" />
				<circle
   style="fill:#8e8e8d"
   cx="54.237999"
   cy="84.332001"
   r="1.382"
   id="circle122" />
				<circle
   style="fill:#8e8e8d"
   cx="60.269001"
   cy="84.332001"
   r="1.382"
   id="circle124" />
			</g>
		</g>
		<circle
   style="fill:#f26038"
   cx="42.563"
   cy="11.271"
   r="2.5799999"
   id="circle130" />
	</g>
</g>
<g
   id="g136"
   transform="rotate(43.630187,51.223,51.223)">
</g>
<g
   id="g138"
   transform="rotate(43.630187,51.223,51.223)">
</g>
<g
   id="g140"
   transform="rotate(43.630187,51.223,51.223)">
</g>
<g
   id="g142"
   transform="rotate(43.630187,51.223,51.223)">
</g>
<g
   id="g144"
   transform="rotate(43.630187,51.223,51.223)">
</g>
<g
   id="g146"
   transform="rotate(43.630187,51.223,51.223)">
</g>
<g
   id="g148"
   transform="rotate(43.630187,51.223,51.223)">
</g>
<g
   id="g150"
   transform="rotate(43.630187,51.223,51.223)">
</g>
<g
   id="g152"
   transform="rotate(43.630187,51.223,51.223)">
</g>
<g
   id="g154"
   transform="rotate(43.630187,51.223,51.223)">
</g>
<g
   id="g156"
   transform="rotate(43.630187,51.223,51.223)">
</g>
<g
   id="g158"
   transform="rotate(43.630187,51.223,51.223)">
</g>
<g
   id="g160"
   transform="rotate(43.630187,51.223,51.223)">
</g>
<g
   id="g162"
   transform="rotate(43.630187,51.223,51.223)">
</g>
<g
   id="g164"
   transform="rotate(43.630187,51.223,51.223)">
</g>
</svg>
