<?xml version="1.0" encoding="iso-8859-1"?>
<!-- Generator: Adobe Illustrator 19.0.0, SVG Export Plug-In . SVG Version: 6.00 Build 0)  -->
<svg version="1.1" id="Layer_1" xmlns="http://www.w3.org/2000/svg" xmlns:xlink="http://www.w3.org/1999/xlink" x="0px" y="0px"
	 viewBox="0 0 512 512" style="enable-background:new 0 0 512 512;" xml:space="preserve">
<path style="fill:#895129;" d="M492.8,136c8.8,0,15.2,7.2,15.2,16v224c0,8.8-6.4,16-15.2,16H436l0.4-240c0-8.8,7.6-16,16.4-16H492.8
	z"/>
<rect x="408" y="392" style="fill:#554542;" width="28" height="56"/>
<path style="fill:#140500;" d="M436,452h-28c-2.4,0-4-1.6-4-4v-56c0-2.4,1.6-4,4-4h28c2.4,0,4,1.6,4,4v56
	C440,450.4,438.4,452,436,452z M412,444h20v-48h-20V444z"/>
<path style="fill:#9F633C;" d="M420.8,64c8.8,0,15.2,7.2,15.2,16v188c0-8.8-6.4-16-15.2-16h-328c-8,0-15.2,6-16.4,13.6V152
	c0-1.2,0-2.4-0.4-3.2V80c0-8.8,8-16,16.8-16H420.8z"/>
<path style="fill:#BD8150;" d="M420.8,252h-328c-8,0-15.2,6-16.4,13.6v2.4v52v72h28h304h28v-72v-52C436,259.2,429.6,252,420.8,252z"
	/>
<rect x="76" y="392" style="fill:#554542;" width="28" height="56"/>
<path style="fill:#140500;" d="M104,452H76c-2.4,0-4-1.6-4-4v-56c0-2.4,1.6-4,4-4h28c2.4,0,4,1.6,4,4v56
	C108,450.4,106.4,452,104,452z M80,444h20v-48H80V444z"/>
<path style="fill:#895129;" d="M60.8,136c7.6,0,14,5.6,15.2,12.8V268v52v72H20.8C12,392,4,384.8,4,376V152c0-8.8,8-16,16.8-16H60.8z
	"/>
<path d="M104,452H76c-2.4,0-4-1.6-4-4v-56c0-2.4,1.6-4,4-4s4,1.6,4,4v52h20v-52c0-2.4,1.6-4,4-4s4,1.6,4,4v56
	C108,450.4,106.4,452,104,452z"/>
<path d="M436,452h-28c-2.4,0-4-1.6-4-4v-56c0-2.4,1.6-4,4-4s4,1.6,4,4v52h20v-52c0-2.4,1.6-4,4-4s4,1.6,4,4v56
	C440,450.4,438.4,452,436,452z"/>
<path d="M492.8,396H436c-2.4,0-4-1.6-4-4s1.6-4,4-4h56.8c6.4,0,11.2-5.2,11.2-12V152c0-6.8-4.8-12-11.2-12h-40
	c-6.8,0-12.4,5.6-12.4,12c0,2.4-1.6,4-4,4s-4-1.6-4-4c0-10.8,9.2-20,20.4-20h40c10.8,0,19.2,8.8,19.2,20v224
	C512,387.2,503.6,396,492.8,396z"/>
<path d="M76,396H20.8C9.6,396,0,386.8,0,376V152c0-10.8,9.6-20,20.8-20h40c9.6,0,17.2,6.4,19.2,16c0.4,2-0.8,4.4-3.2,4.8
	c-2,0.4-4.4-0.8-4.8-3.2c-1.2-5.6-6-9.6-11.6-9.6h-40c-6.8,0-12.8,5.6-12.8,12v224c0,6.4,6,12,12.8,12h55.2c2.4,0,4,1.6,4,4
	S78.4,396,76,396z"/>
<path d="M436,272c-2.4,0-4-1.6-4-4V80c0-6.8-4.8-12-11.2-12h-328C86,68,80,73.6,80,80v188c0,2.4-1.6,4-4,4s-4-1.6-4-4V80
	c0-10.8,9.6-20,20.8-20h328c10.8,0,19.2,8.8,19.2,20v188C440,270.4,438.4,272,436,272z"/>
<path d="M436,396H76c-2.4,0-4-1.6-4-4V268c0-0.8,0-2,0.4-3.2c1.2-9.2,10.4-16.8,20.4-16.8h328c10.8,0,19.2,8.8,19.2,20v124
	C440,394.4,438.4,396,436,396z M80,388h352V268c0-6.8-4.8-12-11.2-12h-328c-6,0-11.6,4.8-12.4,10.4c0,0.8,0,1.2,0,1.6v120H80z"/>
<path d="M348,324H76c-2.4,0-4-1.6-4-4s1.6-4,4-4h272c2.4,0,4,1.6,4,4S350.4,324,348,324z"/>
<path d="M436,324h-40c-2.4,0-4-1.6-4-4s1.6-4,4-4h40c2.4,0,4,1.6,4,4S438.4,324,436,324z"/>
<path d="M416,88h-28c-2.4,0-4-1.6-4-4s1.6-4,4-4h28c2.4,0,4,1.6,4,4S418.4,88,416,88z"/>
<path d="M372,88h-16c-2.4,0-4-1.6-4-4s1.6-4,4-4h16c2.4,0,4,1.6,4,4S374.4,88,372,88z"/>
<path d="M416,108c-2.4,0-4-1.6-4-4V84c0-2.4,1.6-4,4-4s4,1.6,4,4v20C420,106.4,418.4,108,416,108z"/>
<path d="M24,256c-2.4,0-4-1.6-4-4v-64c0-2.4,1.6-4,4-4s4,1.6,4,4v64C28,254.4,26.4,256,24,256z"/>
<path d="M24,172c-2.4,0-4-1.6-4-4v-12c0-2.4,1.6-4,4-4s4,1.6,4,4v12C28,170.4,26.4,172,24,172z"/>
<g>
</g>
<g>
</g>
<g>
</g>
<g>
</g>
<g>
</g>
<g>
</g>
<g>
</g>
<g>
</g>
<g>
</g>
<g>
</g>
<g>
</g>
<g>
</g>
<g>
</g>
<g>
</g>
<g>
</g>
</svg>
