<?xml version="1.0" encoding="iso-8859-1"?>
<!-- Generator: Adobe Illustrator 19.0.0, SVG Export Plug-In . SVG Version: 6.00 Build 0)  -->
<svg version="1.1" id="Layer_1" xmlns="http://www.w3.org/2000/svg" xmlns:xlink="http://www.w3.org/1999/xlink" x="0px" y="0px"
	 viewBox="0 0 336.647 336.647" style="enable-background:new 0 0 336.647 336.647;" xml:space="preserve">
<g>
	<path style="fill:#F59D00;" d="M73.642,189.978l0.004-0.002c-21.149-20.129-17.726-31.368-17.726-56.662
		C1.217,173.28,7.758,221.207,7.758,221.207l0.004-0.002c1.161,20.689,18.301,37.109,39.28,37.109
		c21.731,0,39.347-17.616,39.347-39.347C86.389,207.494,81.476,197.17,73.642,189.978z"/>
	<path style="fill:#F59D00;" d="M187.546,209.112l0.003-0.001c-15.227-14.493-12.763-22.585-12.763-40.796
		c-39.386,28.775-34.676,63.283-34.676,63.283l0.003-0.001c0.836,14.896,13.176,26.719,28.282,26.719
		c15.646,0,28.33-12.684,28.33-28.33C196.725,221.724,193.187,214.291,187.546,209.112z"/>
	<path style="fill:#FFE49C;" d="M206.763,159.91l0.006-0.003c-30.455-28.985-25.526-45.17-25.526-81.593
		c-78.772,57.55-69.352,126.566-69.352,126.566l0.006-0.003c1.644,29.295,25.539,52.628,55.058,53.4
		c-14.442-0.723-26.032-12.262-26.842-26.682l-0.003,0.001c0,0-4.71-34.508,34.676-63.283c0,18.212-2.464,26.304,12.763,40.796
		l-0.003,0.001c5.641,5.178,9.178,12.611,9.178,20.872c0,15.636-12.667,28.312-28.298,28.329c0.011,0,0.022,0.001,0.033,0.001
		c31.293,0,56.66-25.368,56.66-56.66C225.12,185.133,218.044,170.267,206.763,159.91z"/>
	<g>
		<path style="fill:#F59D00;" d="M316.397,189.978l0.004-0.002c-21.149-20.129-17.727-31.368-17.727-56.662
			c-54.703,39.965-48.161,87.893-48.161,87.893l0.004-0.002c1.161,20.689,18.301,37.109,39.28,37.109
			c21.731,0,39.347-17.616,39.347-39.347C329.145,207.494,324.231,197.17,316.397,189.978z"/>
		<g>
			<path style="fill:#414042;" d="M78.915,184.638c-0.032-0.032-0.065-0.063-0.098-0.095
				c-18.549-17.654-15.398-25.396-15.398-51.229c0-6.116-6.967-9.675-11.925-6.056c-56.156,41.027-51.737,90.2-51.201,94.699
				c1.555,24.621,22.025,43.857,46.749,43.857c25.831,0,46.847-21.016,46.847-46.847C93.889,205.978,88.434,193.482,78.915,184.638z
				 M47.042,250.815c-16.882,0-30.847-13.19-31.792-30.029c-1.561-27.755,12.359-52.697,32.964-71.523
				c-0.122,45.301,30.675,40.76,30.675,69.705C78.889,236.528,64.603,250.815,47.042,250.815z"/>
			<path style="fill:#414042;" d="M212.086,154.618c-0.049-0.048-0.098-0.096-0.146-0.143
				c-27.842-26.499-23.197-39.082-23.197-76.16c0-6.116-6.967-9.675-11.925-6.056c-42.356,30.945-59.793,65.329-66.962,88.723
				c-7.502,24.48-5.709,42.338-5.427,44.678c0.983,15.934,7.834,30.835,19.315,41.993c11.535,11.21,26.719,17.633,42.779,18.112
				c33.817,1.738,66.096-26.437,66.096-64.109C232.62,183.855,225.139,166.731,212.086,154.618z M182.474,214.637
				c13.842,12.706,5.003,35.935-13.824,36.164c-0.084,0.001-0.166,0.013-0.25,0.013c-0.002,0-0.005,0-0.007,0
				c-9.628,0-20.459-6.861-20.962-21.905c-0.176-5.678,0.809-24.912,19.811-44.262C167.788,195.062,171.128,204.111,182.474,214.637
				z M203.744,235.853c1.96-11.827-2.159-23.922-10.947-32.101c-0.025-0.024-0.051-0.049-0.076-0.073
				c-12.625-12.015-10.434-16.843-10.434-35.364c0-2.824-1.586-5.408-4.104-6.687c-4.616-2.344-7.843,0.557-11.203,3.197
				c-27.479,21.582-37.232,49.86-33.98,70.741c-7.862-8.203-12.94-19.096-13.614-31.107c-0.72-12.561,0.275-24.615,5.057-39.867
				c5.85-18.655,19.099-45.169,49.096-70.666c-0.444,24.722-0.42,45.154,28.153,71.511c10.124,9.293,15.93,22.495,15.93,36.219
				C217.62,214.932,212.328,226.998,203.744,235.853z"/>
			<path style="fill:#414042;" d="M321.668,184.638c-0.032-0.032-0.065-0.063-0.097-0.094
				c-18.549-17.654-15.397-25.396-15.397-51.229c0-6.129-6.975-9.667-11.925-6.056c-56.155,41.027-51.737,90.2-51.201,94.699
				c1.555,24.621,22.025,43.857,46.749,43.857C332.328,265.815,352.697,213.459,321.668,184.638z M289.797,250.815
				c-16.882,0-30.847-13.19-31.792-30.029c-1.56-27.755,12.361-52.697,32.964-71.522c-0.122,45.303,30.676,40.759,30.676,69.705
				C321.645,236.528,307.358,250.815,289.797,250.815z"/>
		</g>
	</g>
</g>
<g>
</g>
<g>
</g>
<g>
</g>
<g>
</g>
<g>
</g>
<g>
</g>
<g>
</g>
<g>
</g>
<g>
</g>
<g>
</g>
<g>
</g>
<g>
</g>
<g>
</g>
<g>
</g>
<g>
</g>
</svg>
