<?xml version="1.0" encoding="iso-8859-1"?>
<!-- Generator: Adobe Illustrator 19.0.0, SVG Export Plug-In . SVG Version: 6.00 Build 0)  -->
<svg version="1.1" id="Layer_1" xmlns="http://www.w3.org/2000/svg" xmlns:xlink="http://www.w3.org/1999/xlink" x="0px" y="0px"
	 viewBox="0 0 512 512" style="enable-background:new 0 0 512 512;" xml:space="preserve">
<path style="fill:#E8EDEE;" d="M485.517,512H26.483C11.476,512,0,500.524,0,485.517V26.483C0,11.476,11.476,0,26.483,0h459.034
	C500.524,0,512,11.476,512,26.483v459.034C512,500.524,500.524,512,485.517,512"/>
<path style="fill:#CBD4D8;" d="M176.552,256h158.897V97.103H176.552V256z"/>
<path style="fill:#9AACB2;" d="M176.552,414.897h158.897V256H176.552V414.897z"/>
<g>
	<path style="fill:#38454F;" d="M282.483,176.552c0-15.007-11.476-26.483-26.483-26.483s-26.483,11.476-26.483,26.483
		c0,15.007,11.476,26.483,26.483,26.483S282.483,191.559,282.483,176.552"/>
	<path style="fill:#38454F;" d="M256,370.759c-5.297,0-8.828-3.531-8.828-8.828v-52.966c0-5.297,3.531-8.828,8.828-8.828
		c5.297,0,8.828,3.531,8.828,8.828v52.966C264.828,367.228,261.297,370.759,256,370.759"/>
</g>
<g>
	<path style="fill:#CBD4D8;" d="M61.793,44.138c0-9.71-7.945-17.655-17.655-17.655s-17.655,7.945-17.655,17.655
		s7.945,17.655,17.655,17.655S61.793,53.848,61.793,44.138"/>
	<path style="fill:#CBD4D8;" d="M61.793,467.862c0-9.71-7.945-17.655-17.655-17.655s-17.655,7.945-17.655,17.655
		s7.945,17.655,17.655,17.655S61.793,477.572,61.793,467.862"/>
	<path style="fill:#CBD4D8;" d="M485.517,44.138c0-9.71-7.945-17.655-17.655-17.655s-17.655,7.945-17.655,17.655
		s7.945,17.655,17.655,17.655S485.517,53.848,485.517,44.138"/>
	<path style="fill:#CBD4D8;" d="M485.517,467.862c0-9.71-7.945-17.655-17.655-17.655s-17.655,7.945-17.655,17.655
		s7.945,17.655,17.655,17.655S485.517,477.572,485.517,467.862"/>
</g>
<g>
</g>
<g>
</g>
<g>
</g>
<g>
</g>
<g>
</g>
<g>
</g>
<g>
</g>
<g>
</g>
<g>
</g>
<g>
</g>
<g>
</g>
<g>
</g>
<g>
</g>
<g>
</g>
<g>
</g>
</svg>
