<?xml version="1.0" encoding="iso-8859-1"?>
<!-- Generator: Adobe Illustrator 19.0.0, SVG Export Plug-In . SVG Version: 6.00 Build 0)  -->
<svg version="1.1" id="Layer_1" xmlns="http://www.w3.org/2000/svg" xmlns:xlink="http://www.w3.org/1999/xlink" x="0px" y="0px"
	 viewBox="0 0 503.131 503.131" style="enable-background:new 0 0 503.131 503.131;" xml:space="preserve">
<circle style="fill:#61E1FF;" cx="251.565" cy="332.312" r="151.158"/>
<path style="fill:#49C3E8;" d="M251.565,181.169c83.48,0,151.142,67.663,151.142,151.142c0,83.464-67.663,151.127-151.142,151.127"
	/>
<path style="fill:#526570;" d="M251.565,503.131c-94.2,0-170.835-76.635-170.835-170.819c0-94.2,76.635-170.835,170.835-170.835
	S422.4,238.111,422.4,332.312C422.4,426.496,345.765,503.131,251.565,503.131z M251.565,200.862
	c-72.476,0-131.45,58.967-131.45,131.45c0,72.468,58.967,131.434,131.45,131.434s131.45-58.959,131.45-131.434
	S324.041,200.862,251.565,200.862z"/>
<path style="fill:#526570;" d="M251.565,199.546c-10.878,0-19.692-8.814-19.692-19.692V19.692C231.873,8.814,240.687,0,251.565,0
	c10.878,0,19.692,8.814,19.692,19.692v160.154C271.258,190.724,262.443,199.546,251.565,199.546z"/>
<path style="fill:#526570;" d="M325.734,105.677H177.396c-10.878,0-19.692-8.814-19.692-19.692s8.814-19.692,19.692-19.692h148.338
	c10.878,0,19.692,8.814,19.692,19.692S336.612,105.677,325.734,105.677z"/>
<path style="fill:#61E1FF;" d="M115.688,28.231c31.909,0,57.769,25.844,57.769,57.754s-25.86,57.769-57.769,57.769"/>
<path style="fill:#526570;" d="M115.688,163.446c-10.878,0-19.692-8.814-19.692-19.692s8.814-19.692,19.692-19.692
	c21,0,38.077-17.085,38.077-38.077c0-20.984-17.077-38.061-38.077-38.061c-10.878,0-19.692-8.814-19.692-19.692
	s8.814-19.692,19.692-19.692c42.709,0,77.462,34.737,77.462,77.446C193.15,128.701,158.397,163.446,115.688,163.446z"/>
<path style="fill:#49C3E8;" d="M387.442,143.754c-31.909,0-57.769-25.86-57.769-57.769s25.86-57.754,57.769-57.754"/>
<path style="fill:#526570;" d="M387.442,163.446c-42.709,0-77.462-34.745-77.462-77.462c0-42.709,34.753-77.446,77.462-77.446
	c10.878,0,19.692,8.814,19.692,19.692s-8.814,19.692-19.692,19.692c-20.984,0-38.077,17.077-38.077,38.061
	c0,20.992,17.093,38.077,38.077,38.077c10.878,0,19.692,8.814,19.692,19.692S398.32,163.446,387.442,163.446z"/>
<g>
	<circle style="fill:#61E1FF;" cx="290.272" cy="330.335" r="8.365"/>
	<circle style="fill:#61E1FF;" cx="322.261" cy="330.335" r="8.365"/>
	<path style="fill:#61E1FF;" d="M362.646,330.335c0,4.624-3.757,8.365-8.381,8.365c-4.6,0-8.357-3.749-8.357-8.365
		c0-4.616,3.757-8.365,8.357-8.365C358.888,321.969,362.646,325.711,362.646,330.335z"/>
</g>
<g>
</g>
<g>
</g>
<g>
</g>
<g>
</g>
<g>
</g>
<g>
</g>
<g>
</g>
<g>
</g>
<g>
</g>
<g>
</g>
<g>
</g>
<g>
</g>
<g>
</g>
<g>
</g>
<g>
</g>
</svg>
