<?xml version="1.0" encoding="UTF-8" standalone="no"?>
<svg
   xmlns:dc="http://purl.org/dc/elements/1.1/"
   xmlns:cc="http://creativecommons.org/ns#"
   xmlns:rdf="http://www.w3.org/1999/02/22-rdf-syntax-ns#"
   xmlns:svg="http://www.w3.org/2000/svg"
   xmlns="http://www.w3.org/2000/svg"
   version="1.1"
   id="Layer_1"
   x="0px"
   y="0px"
   viewBox="0 0 251.5655 503.131"
   xml:space="preserve"
   width="251.56551"
   height="503.13101"><metadata
   id="metadata63"><rdf:RDF><cc:Work
       rdf:about=""><dc:format>image/svg+xml</dc:format><dc:type
         rdf:resource="http://purl.org/dc/dcmitype/StillImage" /><dc:title></dc:title></cc:Work></rdf:RDF></metadata><defs
   id="defs61" />
<circle
   style="fill:#61e1ff"
   cx="251.565"
   cy="332.31201"
   r="151.158"
   id="circle2" />
<path
   style="fill:#49c3e8"
   d="m 251.565,181.169 c 83.48,0 151.142,67.663 151.142,151.142 0,83.464 -67.663,151.127 -151.142,151.127"
   id="path4" />
<path
   style="fill:#526570"
   d="m 251.565,503.131 c -94.2,0 -170.835,-76.635 -170.835,-170.819 0,-94.2 76.635,-170.835 170.835,-170.835 94.2,0 170.835,76.634 170.835,170.835 0,94.184 -76.635,170.819 -170.835,170.819 z m 0,-302.269 c -72.476,0 -131.45,58.967 -131.45,131.45 0,72.468 58.967,131.434 131.45,131.434 72.483,0 131.45,-58.959 131.45,-131.434 0,-72.475 -58.974,-131.45 -131.45,-131.45 z"
   id="path6" />
<path
   style="fill:#526570"
   d="m 251.565,199.546 c -10.878,0 -19.692,-8.814 -19.692,-19.692 V 19.692 C 231.873,8.814 240.687,0 251.565,0 c 10.878,0 19.692,8.814 19.692,19.692 v 160.154 c 10e-4,10.878 -8.814,19.7 -19.692,19.7 z"
   id="path8" />
<path
   style="fill:#526570"
   d="M 325.734,105.677 H 177.396 c -10.878,0 -19.692,-8.814 -19.692,-19.692 0,-10.878 8.814,-19.692 19.692,-19.692 h 148.338 c 10.878,0 19.692,8.814 19.692,19.692 0,10.878 -8.814,19.692 -19.692,19.692 z"
   id="path10" />
<path
   style="fill:#61e1ff"
   d="m 115.688,28.231 c 31.909,0 57.769,25.844 57.769,57.754 0,31.91 -25.86,57.769 -57.769,57.769"
   id="path12" />
<path
   style="fill:#526570"
   d="m 115.688,163.446 c -10.878,0 -19.692,-8.814 -19.692,-19.692 0,-10.878 8.814,-19.692 19.692,-19.692 21,0 38.077,-17.085 38.077,-38.077 0,-20.984 -17.077,-38.061 -38.077,-38.061 -10.878,0 -19.692,-8.814 -19.692,-19.692 0,-10.878 8.814,-19.692 19.692,-19.692 42.709,0 77.462,34.737 77.462,77.446 0,42.715 -34.753,77.46 -77.462,77.46 z"
   id="path14" />
<path
   style="fill:#49c3e8"
   d="m 387.442,143.754 c -31.909,0 -57.769,-25.86 -57.769,-57.769 0,-31.909 25.86,-57.754 57.769,-57.754"
   id="path16" />
<path
   style="fill:#526570"
   d="m 387.442,163.446 c -42.709,0 -77.462,-34.745 -77.462,-77.462 0,-42.709 34.753,-77.446 77.462,-77.446 10.878,0 19.692,8.814 19.692,19.692 0,10.878 -8.814,19.692 -19.692,19.692 -20.984,0 -38.077,17.077 -38.077,38.061 0,20.992 17.093,38.077 38.077,38.077 10.878,0 19.692,8.814 19.692,19.692 0,10.878 -8.814,19.694 -19.692,19.694 z"
   id="path18" />
<g
   id="g26">
	<circle
   style="fill:#61e1ff"
   cx="290.272"
   cy="330.33499"
   r="8.3649998"
   id="circle20" />
	<circle
   style="fill:#61e1ff"
   cx="322.26099"
   cy="330.33499"
   r="8.3649998"
   id="circle22" />
	<path
   style="fill:#61e1ff"
   d="m 362.646,330.335 c 0,4.624 -3.757,8.365 -8.381,8.365 -4.6,0 -8.357,-3.749 -8.357,-8.365 0,-4.616 3.757,-8.365 8.357,-8.365 4.623,-0.001 8.381,3.741 8.381,8.365 z"
   id="path24" />
</g>
<g
   id="g28">
</g>
<g
   id="g30">
</g>
<g
   id="g32">
</g>
<g
   id="g34">
</g>
<g
   id="g36">
</g>
<g
   id="g38">
</g>
<g
   id="g40">
</g>
<g
   id="g42">
</g>
<g
   id="g44">
</g>
<g
   id="g46">
</g>
<g
   id="g48">
</g>
<g
   id="g50">
</g>
<g
   id="g52">
</g>
<g
   id="g54">
</g>
<g
   id="g56">
</g>
</svg>
