<?xml version="1.0" encoding="UTF-8" standalone="no"?>
<svg
   xmlns:dc="http://purl.org/dc/elements/1.1/"
   xmlns:cc="http://creativecommons.org/ns#"
   xmlns:rdf="http://www.w3.org/1999/02/22-rdf-syntax-ns#"
   xmlns:svg="http://www.w3.org/2000/svg"
   xmlns="http://www.w3.org/2000/svg"
   xmlns:sodipodi="http://sodipodi.sourceforge.net/DTD/sodipodi-0.dtd"
   xmlns:inkscape="http://www.inkscape.org/namespaces/inkscape"
   version="1.1"
   id="Capa_1"
   x="0px"
   y="0px"
   viewBox="0 0 58 58"
   style="enable-background:new 0 0 58 58;"
   xml:space="preserve"
   sodipodi:docname="table2.svg"
   inkscape:version="1.0.2 (1.0.2+r75+1)"><metadata
   id="metadata41"><rdf:RDF><cc:Work
       rdf:about=""><dc:format>image/svg+xml</dc:format><dc:type
         rdf:resource="http://purl.org/dc/dcmitype/StillImage" /></cc:Work></rdf:RDF></metadata><defs
   id="defs39" /><sodipodi:namedview
   pagecolor="#ffffff"
   bordercolor="#666666"
   borderopacity="1"
   objecttolerance="10"
   gridtolerance="10"
   guidetolerance="10"
   inkscape:pageopacity="0"
   inkscape:pageshadow="2"
   inkscape:window-width="1391"
   inkscape:window-height="839"
   id="namedview37"
   showgrid="false"
   inkscape:zoom="17.22082"
   inkscape:cx="30.776849"
   inkscape:cy="27.979419"
   inkscape:window-x="49"
   inkscape:window-y="24"
   inkscape:window-maximized="1"
   inkscape:current-layer="Capa_1" />
<g
   id="g4">
	<path
   d="M57.832,26.926l-8-12c-0.186-0.278-0.498-0.445-0.832-0.445H9c-0.335,0-0.646,0.167-0.832,0.445l-8,12   c-0.205,0.307-0.224,0.701-0.05,1.026C0.292,28.278,0.631,28.481,1,28.481h6v15.038h2V28.481h5v6h2v-6h27v6h2v-6h5v15.038h2V28.481   h5c0.369,0,0.708-0.203,0.882-0.528C58.056,27.627,58.037,27.233,57.832,26.926z M2.869,26.481l6.666-10h38.93l6.667,10H2.869z"
   id="path2" />
</g>
<g
   id="g6">
</g>
<g
   id="g8">
</g>
<g
   id="g10">
</g>
<g
   id="g12">
</g>
<g
   id="g14">
</g>
<g
   id="g16">
</g>
<g
   id="g18">
</g>
<g
   id="g20">
</g>
<g
   id="g22">
</g>
<g
   id="g24">
</g>
<g
   id="g26">
</g>
<g
   id="g28">
</g>
<g
   id="g30">
</g>
<g
   id="g32">
</g>
<g
   id="g34">
</g>
<path
   style="fill:#ff6600;stroke-width:0.0580692"
   d="m 2.9616806,26.440328 c 0,-0.01611 1.4895529,-2.26339 3.3101176,-4.993955 L 9.581916,16.481708 h 19.423821 19.423821 l 3.310118,4.964665 c 1.820565,2.730565 3.310118,4.977845 3.310118,4.993955 0,0.01611 -11.719826,0.02929 -26.044057,0.02929 -14.324231,0 -26.0440564,-0.01318 -26.0440564,-0.02929 z"
   id="path43" /></svg>
