<?xml version="1.0" encoding="UTF-8" standalone="no"?>
<svg
   xmlns:dc="http://purl.org/dc/elements/1.1/"
   xmlns:cc="http://creativecommons.org/ns#"
   xmlns:rdf="http://www.w3.org/1999/02/22-rdf-syntax-ns#"
   xmlns:svg="http://www.w3.org/2000/svg"
   xmlns="http://www.w3.org/2000/svg"
   version="1.1"
   id="Capa_1"
   x="0px"
   y="0px"
   viewBox="0 0 345.403 345.403"
   style="enable-background:new 0 0 345.403 345.403;"
   xml:space="preserve"><metadata
   id="metadata41"><rdf:RDF><cc:Work
       rdf:about=""><dc:format>image/svg+xml</dc:format><dc:type
         rdf:resource="http://purl.org/dc/dcmitype/StillImage" /><dc:title></dc:title></cc:Work></rdf:RDF></metadata><defs
   id="defs39" />
<g
   id="g90"><path
     style="fill:#aa4400;stroke-width:0.568924"
     d="m 27.938765,118.73822 c 0.297263,-0.26643 8.433339,-5.77077 18.080169,-12.23187 L 63.558625,94.758903 H 172.77546 281.99229 l 17.46574,11.749737 c 9.60616,6.46236 17.70896,11.9667 18.00622,12.23187 0.29726,0.26517 -64.84597,0.48213 -144.76274,0.48213 -80.014225,0 -145.06037,-0.21766 -144.762745,-0.48442 z"
     id="path45" /><rect
     style="fill:#aa4400"
     id="rect71"
     width="223.192"
     height="39.359016"
     x="61.173634"
     y="86.715141" /><rect
     style="fill:#aa4400"
     id="rect73"
     width="294.28848"
     height="6.8679891"
     x="25.731001"
     y="112.81801" /><rect
     style="fill:#aa4400"
     id="rect75"
     width="30.718014"
     height="26.888384"
     x="268.38974"
     y="95.015221" /><rect
     style="fill:#aa4400"
     id="rect77"
     width="12.896493"
     height="14.240084"
     x="297.14182"
     y="103.85275" /><rect
     style="fill:#aa4400"
     id="rect79"
     width="28.559338"
     height="18.615372"
     x="46.793499"
     y="96.126755" /><rect
     style="fill:#aa4400"
     id="rect81"
     width="12.49711"
     height="12.145839"
     x="35.491604"
     y="104.6626" /></g><g
   id="g136"><path
     style="fill:#803300;stroke-width:0.568924"
     d="m 54.388412,183.6533 -0.02312,-21.76135 H 66.028236 77.69118 v 7.48017 7.48017 l -9.923585,12.28994 c -5.457973,6.75947 -10.695893,13.186 -11.639824,14.28118 l -1.716236,1.99123 z"
     id="path53" /><rect
     style="fill:#803300"
     id="rect57"
     width="33.355087"
     height="33.487003"
     x="48.897888"
     y="154.3812" /><rect
     style="fill:#803300"
     id="rect59"
     width="21.401775"
     height="18.832243"
     x="50.684353"
     y="180.91116" /><rect
     style="fill:#803300"
     id="rect61"
     width="9.5509043"
     height="15.589368"
     x="51.858803"
     y="197.64557" /></g><g
   id="g140"><path
     style="fill:#803300;stroke-width:0.568924"
     d="m 119.22264,164.73657 v -2.84462 h 53.47887 53.47886 v 2.84462 2.84462 h -53.47886 -53.47887 z"
     id="path51" /><rect
     style="fill:#803300"
     id="rect63"
     width="120.6265"
     height="16.446592"
     x="113.09221"
     y="155.20998" /></g><g
   id="g145"><path
     style="fill:#803300;stroke-width:0.568924"
     d="m 279.14812,191.04931 -11.41024,-14.08087 -0.013,-7.53825 -0.013,-7.53824 h 11.66294 11.66294 v 21.61912 c 0,11.89051 -0.10785,21.61911 -0.23968,21.61911 -0.13183,0 -5.37429,-6.33639 -11.64992,-14.08087 z"
     id="path49" /><rect
     style="fill:#803300"
     id="rect65"
     width="37.155079"
     height="36.864521"
     x="263.89673"
     y="155.1297" /><rect
     style="fill:#803300"
     id="rect67"
     width="15.433003"
     height="22.709625"
     x="278.15201"
     y="184.24637" /></g><g
   id="g4">
	<path
   d="M342.744,120.702l-55.566-37.236c-0.988-0.662-2.151-1.016-3.34-1.016H61.566c-1.189,0-2.352,0.354-3.34,1.016   L2.66,120.702C0.998,121.816,0,123.686,0,125.687v29.687c0,3.313,2.686,6,6,6h35.818v95.58c0,3.313,2.686,6,6,6s6-2.687,6-6   v-30.924l24.241-29.945v10.079c0,3.313,2.687,6,6,6s6-2.687,6-6v-44.416c0-0.126-0.011-0.249-0.019-0.374h16.909v12.523   c0,3.313,2.687,6,6,6h119.506c3.313,0,6-2.687,6-6v-12.523h16.909c-0.008,0.124-0.019,0.247-0.019,0.374v44.416   c0,3.313,2.687,6,6,6s6-2.687,6-6v-10.079l24.241,29.945v30.924c0,3.313,2.686,6,6,6s6-2.687,6-6v-95.58h35.818   c3.314,0,6-2.687,6-6v-29.687C345.403,123.686,344.406,121.816,342.744,120.702z M63.391,94.45h218.621l37.66,25.236H25.731   L63.391,94.45z M78.059,161.747v15.264l-24.241,29.945v-45.583h24.26C78.07,161.498,78.059,161.621,78.059,161.747z    M226.455,167.896H118.949v-6.523h107.506V167.896z M291.585,206.956l-24.241-29.945v-15.264c0-0.126-0.011-0.249-0.019-0.374   h24.26V206.956z M12,149.374v-17.687h321.403v17.687H12z"
   id="path2" />
</g>
<g
   id="g6">
</g>
<g
   id="g8">
</g>
<g
   id="g10">
</g>
<g
   id="g12">
</g>
<g
   id="g14">
</g>
<g
   id="g16">
</g>
<g
   id="g18">
</g>
<g
   id="g20">
</g>
<g
   id="g22">
</g>
<g
   id="g24">
</g>
<g
   id="g26">
</g>
<g
   id="g28">
</g>
<g
   id="g30">
</g>
<g
   id="g32">
</g>
<g
   id="g34">
</g>
<path
   style="fill:#803300;stroke-width:0.568924"
   d="m 12.264906,140.55729 v -8.81832 h 160.436604 160.4366 v 8.81832 8.81833 H 172.70151 12.264906 Z"
   id="path47" /><rect
   style="fill:#803300"
   id="rect55"
   width="332.4559"
   height="21.200497"
   x="7.0405402"
   y="128.8237" /></svg>
