<?xml version="1.0" encoding="iso-8859-1"?>
<!-- Generator: Adobe Illustrator 19.1.0, SVG Export Plug-In . SVG Version: 6.00 Build 0)  -->
<svg version="1.1" id="Capa_1" xmlns="http://www.w3.org/2000/svg" xmlns:xlink="http://www.w3.org/1999/xlink" x="0px" y="0px"
	 viewBox="0 0 412.751 412.751" style="enable-background:new 0 0 412.751 412.751;" xml:space="preserve">
<g>
	<rect x="148.832" y="55.12" style="fill:#8EB1C4;" width="115.086" height="12.393"/>
	<path style="fill:#A3BFD9;" d="M263.918,35.726c0-1.229,0.502-2.403,1.39-3.252l4.065-3.89H143.376l4.066,3.89
		c0.888,0.849,1.39,2.024,1.39,3.252V46.12h115.086V35.726z"/>
	<rect x="148.832" y="76.513" style="fill:#A3BFD9;" width="115.086" height="13.448"/>
	<path style="fill:#EDD570;" d="M283.603,16.775v-4.967c0-1.549-1.26-2.809-2.809-2.809H132.002c-1.549,0-2.809,1.26-2.809,2.809
		v4.967c0,1.549,1.26,2.809,2.809,2.809h148.793C282.343,19.584,283.603,18.324,283.603,16.775z"/>
	<path style="fill:#8EB1C4;" d="M267.58,399.522h-122.41c-1.166,0-2.115,0.948-2.115,2.114c0,1.166,0.949,2.115,2.115,2.115h122.41
		c1.166,0,2.115-0.949,2.115-2.115C269.695,400.47,268.746,399.522,267.58,399.522z"/>
	<path style="fill:#A3BFD9;" d="M289.009,175.613c-12.152,0-18.336-5.985-23.792-11.267c-5.04-4.88-9.022-8.733-17.53-8.733
		c-8.509,0-12.49,3.855-17.53,8.733c-5.455,5.281-11.638,11.267-23.788,11.267c-12.15,0-18.333-5.985-23.788-11.267
		c-5.04-4.879-9.021-8.733-17.53-8.733c-8.508,0-12.488,3.854-17.528,8.733c-5.455,5.281-11.638,11.267-23.788,11.267
		s-18.333-5.986-23.788-11.268c-3.585-3.473-6.78-6.556-11.582-7.944c-2.772,9.717-4.562,20.493-5.348,32.229
		c9.407,1.299,14.8,6.338,19.61,10.882c4.984,4.706,9.289,8.771,18.193,8.771c8.917,0,13.271-4.072,18.313-8.787
		c5.62-5.256,11.99-11.213,24.46-11.213c12.47,0,18.84,5.957,24.46,11.213c5.042,4.715,9.398,8.787,18.315,8.787
		c8.917,0,13.271-4.072,18.314-8.787c5.62-5.256,11.99-11.213,24.46-11.213c12.472,0,18.843,5.957,24.464,11.213
		c5.043,4.715,9.398,8.787,18.316,8.787c8.907,0,13.213-4.065,18.199-8.773c4.811-4.542,10.205-9.583,19.613-10.883
		c-0.785-11.726-2.572-22.495-5.342-32.205c-4.797,1.39-8.008,4.453-11.593,7.924C307.343,169.628,301.16,175.613,289.009,175.613z"
		/>
	<path style="fill:#A3BFD9;" d="M146.482,390.522H266.27c3.058-3.866,11.237-14.688,20.722-31.178H125.835
		C135.317,375.882,143.439,386.664,146.482,390.522z"/>
	<path style="fill:#8EB1C4;" d="M291.921,217.283c-12.47,0-18.841-5.957-24.462-11.213c-5.043-4.715-9.397-8.787-18.317-8.787
		c-8.917,0-13.271,4.072-18.313,8.787c-5.62,5.256-11.99,11.213-24.46,11.213c-12.471,0-18.842-5.957-24.462-11.214
		c-5.042-4.715-9.396-8.786-18.313-8.786c-8.917,0-13.271,4.072-18.313,8.787c-5.62,5.256-11.99,11.213-24.46,11.213
		c-12.482,0-18.8-5.965-24.373-11.229c-4.09-3.86-7.74-7.273-13.833-8.378c-0.097,4.239-0.077,8.586,0.072,13.048
		c0.222,6.63,0.663,13.126,1.291,19.483c9.62,1.153,15.339,6.292,20.441,10.906c5.245,4.742,9.774,8.838,18.476,8.838
		c8.625,0,12.653-3.86,17.753-8.748c5.503-5.274,11.74-11.252,23.983-11.252c12.243,0,18.48,5.978,23.982,11.251
		c5.101,4.888,9.13,8.749,17.756,8.749c8.627,0,12.655-3.861,17.756-8.749c5.502-5.273,11.739-11.251,23.98-11.251
		c12.243,0,18.48,5.977,23.984,11.251c5.102,4.888,9.131,8.749,17.76,8.749c8.704,0,13.239-4.097,18.49-8.84
		c5.105-4.609,10.816-9.758,20.427-10.915c0.629-6.347,1.076-12.838,1.299-19.473c0.149-4.468,0.169-8.82,0.071-13.065
		c-6.102,1.104-9.743,4.531-13.838,8.396C310.724,211.318,304.405,217.283,291.921,217.283z"/>
	<path style="fill:#E6E6E6;" d="M300.285,114.917c-14.919-13.627-30.477-15.767-32.105-15.956H144.565
		c-1.575,0.183-17.158,2.308-32.101,15.956c-9.181,8.387-16.314,19.466-21.31,32.933c6.749,2.023,11.118,6.222,15.052,10.03
		c5.039,4.88,9.02,8.733,17.527,8.733s12.488-3.854,17.528-8.733c5.455-5.281,11.638-11.267,23.788-11.267
		c12.151,0,18.335,5.986,23.79,11.268c5.04,4.879,9.021,8.732,17.528,8.732c8.508,0,12.488-3.854,17.528-8.732
		c5.455-5.281,11.639-11.268,23.79-11.268s18.334,5.985,23.79,11.267c5.041,4.879,9.022,8.733,17.532,8.733
		c8.508,0,12.489-3.854,17.53-8.733c3.936-3.809,8.304-8.01,15.055-10.035C316.598,134.38,309.464,123.303,300.285,114.917z"/>
	<path style="fill:#E6E6E6;" d="M289.849,258.952c-12.245,0-18.482-5.977-23.986-11.251c-5.102-4.889-9.131-8.749-17.758-8.749
		c-8.625,0-12.653,3.86-17.753,8.748c-5.503,5.274-11.74,11.252-23.983,11.252c-12.243,0-18.479-5.977-23.982-11.251
		c-5.101-4.888-9.13-8.749-17.756-8.749c-8.627,0-12.655,3.861-17.756,8.749c-5.502,5.273-11.739,11.251-23.981,11.251
		c-12.168,0-18.726-5.931-24.513-11.162c-4.095-3.702-7.785-6.976-13.335-8.248c4.862,37.379,16.079,69.511,27.703,94.516h187.342
		c10.889-23.483,22.581-55.98,27.604-94.539c-5.554,1.27-9.224,4.57-13.323,8.274C308.581,253.022,302.016,258.952,289.849,258.952z
		"/>
	<path style="fill:#8EB1C4;" d="M120.863,350.344h171.116c1.249-2.34,2.507-4.772,3.768-7.286H117.098
		C118.359,345.573,119.617,348.004,120.863,350.344z"/>
	<path style="fill:#7C5F53;" d="M305.886,107.849c-13.08-11.757-26.418-15.839-32.969-17.211V37.648l9.627-9.209
		c5.683-0.85,10.059-5.748,10.059-11.664v-4.967C292.603,5.297,287.306,0,280.794,0H132.002c-6.512,0-11.809,5.297-11.809,11.809
		v4.967c0,5.896,4.348,10.782,10.003,11.655l9.636,9.218v52.989c-6.551,1.372-19.889,5.454-32.969,17.211
		c-16.221,14.58-35.144,44.315-33.171,103.177c1.939,57.939,20.066,105.614,34.931,135.404
		c11.838,23.726,23.325,39.939,28.86,47.197c-2.108,2.025-3.429,4.862-3.429,8.009c0,6.129,4.986,11.115,11.115,11.115h122.41
		c6.129,0,11.115-4.986,11.115-11.115c0-3.147-1.32-5.985-3.429-8.01c5.536-7.257,17.022-23.471,28.86-47.196
		c14.865-29.79,32.992-77.464,34.933-135.404C341.031,152.164,322.108,122.429,305.886,107.849z M132.002,19.584
		c-1.549,0-2.809-1.26-2.809-2.809v-4.967c0-1.549,1.26-2.809,2.809-2.809h148.793c1.549,0,2.809,1.26,2.809,2.809v4.967
		c0,1.549-1.26,2.809-2.809,2.809H132.002z M148.832,67.513V55.12h115.086v12.393H148.832z M263.918,76.513v13.448H148.832V76.513
		H263.918z M148.832,46.12V35.726c0-1.229-0.502-2.403-1.39-3.252l-4.066-3.89h125.997l-4.065,3.89
		c-0.888,0.849-1.39,2.024-1.39,3.252V46.12H148.832z M267.58,403.751h-122.41c-1.166,0-2.115-0.949-2.115-2.115
		c0-1.166,0.949-2.114,2.115-2.114h122.41c1.166,0,2.115,0.948,2.115,2.114C269.695,402.802,268.746,403.751,267.58,403.751z
		 M266.27,390.522H146.482c-3.043-3.858-11.165-14.64-20.647-31.178h161.157C277.507,375.834,269.328,386.655,266.27,390.522z
		 M291.979,350.344H120.863c-1.246-2.34-2.504-4.77-3.765-7.286h178.649C294.486,345.571,293.228,348.004,291.979,350.344z
		 M300.091,334.058H112.75c-11.624-25.005-22.841-57.137-27.703-94.516c5.55,1.271,9.24,4.546,13.335,8.248
		c5.786,5.232,12.345,11.162,24.513,11.162c12.241,0,18.479-5.977,23.981-11.251c5.101-4.888,9.129-8.749,17.756-8.749
		c8.626,0,12.655,3.861,17.756,8.749c5.503,5.273,11.739,11.251,23.982,11.251c12.243,0,18.48-5.977,23.983-11.252
		c5.1-4.888,9.128-8.748,17.753-8.748c8.627,0,12.656,3.86,17.758,8.749c5.504,5.273,11.741,11.251,23.986,11.251
		c12.167,0,18.731-5.93,24.523-11.16c4.1-3.703,7.77-7.004,13.323-8.274C322.672,278.077,310.98,310.574,300.091,334.058z
		 M330.065,210.725c-0.223,6.635-0.67,13.126-1.299,19.473c-9.611,1.157-15.322,6.306-20.427,10.915
		c-5.251,4.743-9.786,8.84-18.49,8.84c-8.629,0-12.658-3.861-17.76-8.749c-5.504-5.274-11.741-11.251-23.984-11.251
		c-12.241,0-18.479,5.978-23.98,11.251c-5.101,4.888-9.129,8.749-17.756,8.749c-8.626,0-12.655-3.861-17.756-8.749
		c-5.503-5.273-11.739-11.251-23.982-11.251c-12.243,0-18.48,5.978-23.983,11.252c-5.1,4.888-9.128,8.748-17.753,8.748
		c-8.702,0-13.231-4.096-18.476-8.838c-5.102-4.614-10.82-9.753-20.441-10.906c-0.628-6.357-1.069-12.853-1.291-19.483
		c-0.149-4.462-0.169-8.809-0.072-13.048c6.093,1.105,9.743,4.518,13.833,8.378c5.573,5.264,11.891,11.229,24.373,11.229
		c12.47,0,18.84-5.957,24.46-11.213c5.042-4.715,9.396-8.787,18.313-8.787c8.917,0,13.271,4.071,18.313,8.786
		c5.62,5.257,11.991,11.214,24.462,11.214c12.47,0,18.84-5.957,24.46-11.213c5.042-4.715,9.396-8.787,18.313-8.787
		c8.92,0,13.274,4.072,18.317,8.787c5.621,5.256,11.992,11.213,24.462,11.213c12.483,0,18.803-5.965,24.377-11.228
		c4.095-3.865,7.735-7.293,13.838-8.396C330.234,201.904,330.214,206.257,330.065,210.725z M329.734,188.628
		c-9.408,1.3-14.802,6.341-19.613,10.883c-4.986,4.707-9.292,8.773-18.199,8.773c-8.918,0-13.273-4.072-18.316-8.787
		c-5.621-5.256-11.992-11.213-24.464-11.213c-12.47,0-18.84,5.957-24.46,11.213c-5.042,4.715-9.396,8.787-18.314,8.787
		c-8.918,0-13.273-4.072-18.315-8.787c-5.62-5.256-11.99-11.213-24.46-11.213c-12.47,0-18.84,5.957-24.46,11.213
		c-5.042,4.715-9.396,8.787-18.313,8.787c-8.904,0-13.209-4.065-18.193-8.771c-4.811-4.544-10.203-9.583-19.61-10.882
		c0.786-11.735,2.575-22.512,5.348-32.229c4.802,1.389,7.997,4.472,11.582,7.944c5.455,5.281,11.638,11.268,23.788,11.268
		s18.333-5.985,23.788-11.267c5.04-4.88,9.021-8.733,17.528-8.733c8.509,0,12.49,3.855,17.53,8.733
		c5.455,5.281,11.638,11.267,23.788,11.267c12.15,0,18.333-5.985,23.788-11.267c5.04-4.879,9.021-8.733,17.53-8.733
		c8.509,0,12.49,3.854,17.53,8.733c5.456,5.281,11.64,11.267,23.792,11.267c12.15,0,18.334-5.985,23.79-11.267
		c3.585-3.471,6.796-6.534,11.593-7.924C327.162,166.133,328.949,176.902,329.734,188.628z M306.54,157.88
		c-5.041,4.88-9.022,8.733-17.53,8.733c-8.51,0-12.491-3.854-17.532-8.733c-5.456-5.281-11.639-11.267-23.79-11.267
		s-18.335,5.986-23.79,11.268c-5.04,4.879-9.02,8.732-17.528,8.732c-8.508,0-12.488-3.854-17.528-8.732
		c-5.455-5.281-11.639-11.268-23.79-11.268c-12.15,0-18.333,5.985-23.788,11.267c-5.04,4.88-9.02,8.733-17.528,8.733
		s-12.488-3.854-17.527-8.733c-3.934-3.809-8.303-8.007-15.052-10.03c4.995-13.467,12.129-24.546,21.31-32.933
		c14.942-13.648,30.525-15.773,32.101-15.956h123.614c1.629,0.189,17.187,2.329,32.105,15.956
		c9.18,8.386,16.313,19.463,21.31,32.928C314.843,149.87,310.475,154.071,306.54,157.88z"/>
</g>
<g>
</g>
<g>
</g>
<g>
</g>
<g>
</g>
<g>
</g>
<g>
</g>
<g>
</g>
<g>
</g>
<g>
</g>
<g>
</g>
<g>
</g>
<g>
</g>
<g>
</g>
<g>
</g>
<g>
</g>
</svg>
