<?xml version="1.0" standalone="no"?>
<!DOCTYPE svg PUBLIC "-//W3C//DTD SVG 20010904//EN"
 "http://www.w3.org/TR/2001/REC-SVG-20010904/DTD/svg10.dtd">
<svg version="1.0" xmlns="http://www.w3.org/2000/svg"
 width="500.000000pt" height="500.000000pt" viewBox="0 0 500.000000 500.000000"
 preserveAspectRatio="xMidYMid meet">
<metadata>
Created by potrace 1.14, written by Peter Selinger 2001-2017
</metadata>
<g transform="translate(0.000000,500.000000) scale(0.100000,-0.100000)"
fill="#000000" stroke="none">
<path d="M2080 4065 l0 -105 -105 0 -105 0 0 -105 0 -105 -105 0 -105 0 0
-105 0 -105 -100 0 -100 0 0 -830 0 -830 -105 0 -105 0 0 -520 0 -520 -105 0
-105 0 0 -210 0 -210 105 0 105 0 0 -100 0 -100 1350 0 1350 0 0 100 0 100
105 0 105 0 0 210 0 210 -105 0 -105 0 0 520 0 520 -105 0 -105 0 0 830 0 830
-100 0 -100 0 0 105 0 105 -105 0 -105 0 0 105 0 105 -105 0 -105 0 0 105 0
105 -520 0 -520 0 0 -105z m830 -830 l0 -105 -105 0 -105 0 0 -105 0 -105
-100 0 -100 0 0 105 0 105 -105 0 -105 0 0 105 0 105 310 0 310 0 0 -105z
m-830 -1040 l0 -105 -105 0 -105 0 0 105 0 105 105 0 105 0 0 -105z m1250 0
l0 -105 -105 0 -105 0 0 105 0 105 105 0 105 0 0 -105z m-630 -210 l0 -105
-100 0 -100 0 0 105 0 105 100 0 100 0 0 -105z"/>
</g>
</svg>
