<?xml version="1.0" encoding="iso-8859-1"?>
<!-- Generator: Adobe Illustrator 19.0.0, SVG Export Plug-In . SVG Version: 6.00 Build 0)  -->
<svg version="1.1" id="Layer_1" xmlns="http://www.w3.org/2000/svg" xmlns:xlink="http://www.w3.org/1999/xlink" x="0px" y="0px"
	 viewBox="0 0 512 512" style="enable-background:new 0 0 512 512;" xml:space="preserve">
<path style="fill:#F07057;" d="M501.801,268.694c0-32.504-26.35-58.853-58.853-58.853H194.845
	c-16.513-30.898-49.073-51.929-86.556-51.929c-54.174-0.001-98.09,43.916-98.09,98.089s43.916,98.09,98.09,98.09
	c37.482,0,70.043-21.031,86.556-51.929h306.956V268.694z M66.745,276.772c-11.472,0-20.772-9.3-20.772-20.772
	c0-11.472,9.3-20.772,20.772-20.772s20.773,9.3,20.773,20.772C87.517,267.472,78.217,276.772,66.745,276.772z"/>
<path d="M108.289,364.289C48.578,364.289,0,315.71,0,256s48.578-108.289,108.289-108.289c37.966,0,72.848,19.746,92.47,51.93
	h242.188c38.076,0,69.053,30.977,69.053,69.053v33.466c0,5.632-4.566,10.199-10.199,10.199H200.759
	C181.137,344.542,146.254,364.289,108.289,364.289z M108.289,168.109c-48.464,0-87.891,39.427-87.891,87.891
	s39.427,87.891,87.891,87.891c32.501,0,62.219-17.832,77.561-46.538c1.774-3.32,5.231-5.392,8.995-5.392h296.757v-23.266
	c0-26.828-21.826-48.654-48.654-48.654H194.845c-3.764,0-7.221-2.072-8.995-5.392C170.508,185.943,140.79,168.109,108.289,168.109z
	 M66.745,286.971c-17.078,0-30.971-13.893-30.971-30.971c0-17.078,13.893-30.971,30.971-30.971S97.717,238.922,97.717,256
	S83.823,286.971,66.745,286.971z M66.745,245.428c-5.83,0-10.572,4.743-10.572,10.572c0,5.83,4.743,10.572,10.572,10.572
	S77.317,261.83,77.317,256C77.317,250.17,72.574,245.428,66.745,245.428z"/>
<path d="M439.485,275.432h-28.85c-1.415,0-2.813-0.294-4.107-0.864l-24.742-10.888l-24.742,10.888
	c-1.294,0.57-2.694,0.864-4.107,0.864H249.88c-5.633,0-10.199-4.567-10.199-10.199c0-5.632,4.566-10.199,10.199-10.199h100.91
	l26.887-11.831c2.617-1.151,5.597-1.151,8.215,0l26.886,11.831h26.706c5.633,0,10.199,4.567,10.199,10.199
	C449.684,270.864,445.118,275.432,439.485,275.432z"/>
<path d="M211.124,275.432h-8.207c-5.633,0-10.199-4.567-10.199-10.199c0-5.632,4.566-10.199,10.199-10.199h8.207
	c5.633,0,10.199,4.567,10.199,10.199C221.323,270.864,216.757,275.432,211.124,275.432z"/>
<g>
</g>
<g>
</g>
<g>
</g>
<g>
</g>
<g>
</g>
<g>
</g>
<g>
</g>
<g>
</g>
<g>
</g>
<g>
</g>
<g>
</g>
<g>
</g>
<g>
</g>
<g>
</g>
<g>
</g>
</svg>
