<?xml version="1.0" encoding="UTF-8" standalone="no"?>
<svg
   xmlns:dc="http://purl.org/dc/elements/1.1/"
   xmlns:cc="http://creativecommons.org/ns#"
   xmlns:rdf="http://www.w3.org/1999/02/22-rdf-syntax-ns#"
   xmlns:svg="http://www.w3.org/2000/svg"
   xmlns="http://www.w3.org/2000/svg"
   xmlns:sodipodi="http://sodipodi.sourceforge.net/DTD/sodipodi-0.dtd"
   xmlns:inkscape="http://www.inkscape.org/namespaces/inkscape"
   version="1.1"
   id="Layer_1"
   x="0px"
   y="0px"
   viewBox="0 0 512.002 512.002"
   style="enable-background:new 0 0 512.002 512.002;"
   xml:space="preserve"
   sodipodi:docname="chest-key.svg"
   inkscape:version="1.0.2 (1.0.2+r75+1)"><metadata
   id="metadata59"><rdf:RDF><cc:Work
       rdf:about=""><dc:format>image/svg+xml</dc:format><dc:type
         rdf:resource="http://purl.org/dc/dcmitype/StillImage" /><dc:title></dc:title></cc:Work></rdf:RDF></metadata><defs
   id="defs57" /><sodipodi:namedview
   pagecolor="#ffffff"
   bordercolor="#666666"
   borderopacity="1"
   objecttolerance="10"
   gridtolerance="10"
   guidetolerance="10"
   inkscape:pageopacity="0"
   inkscape:pageshadow="2"
   inkscape:window-width="1391"
   inkscape:window-height="839"
   id="namedview55"
   showgrid="false"
   inkscape:zoom="1.2558544"
   inkscape:cx="254.23303"
   inkscape:cy="314.7905"
   inkscape:window-x="49"
   inkscape:window-y="24"
   inkscape:window-maximized="1"
   inkscape:current-layer="Layer_1" />
<rect
   style="fill:#ffd001;fill-opacity:1;stroke-width:1.19177"
   id="rect886"
   width="51.729485"
   height="259.62399"
   x="341.60794"
   y="43.951485"
   transform="matrix(0.7024259,0.71175688,-0.70538183,0.70882754,0,0)" /><g
   id="g22">
	<g
   id="g20">
		<g
   id="g18">
			<path
   d="M435.202,128.001c23.526,0,42.667-19.14,42.667-42.667c0-23.526-19.14-42.667-42.667-42.667     c-23.526,0-42.667,19.14-42.667,42.667C392.536,108.861,411.676,128.001,435.202,128.001z M435.202,59.734     c14.114,0,25.6,11.486,25.6,25.6s-11.486,25.6-25.6,25.6s-25.6-11.486-25.6-25.6S421.088,59.734,435.202,59.734z"
   id="path2" />
			<path
   d="M236.546,297.524L51.202,482.868l-36.634-36.634c-3.337-3.336-8.73-3.336-12.066,0c-3.336,3.337-3.336,8.73,0,12.066     l42.667,42.667c1.664,1.664,3.849,2.5,6.033,2.5c2.185,0,4.369-0.836,6.033-2.5L248.612,309.59c3.328-3.328,3.328-8.73,0-12.066     C245.276,294.196,239.874,294.196,236.546,297.524z"
   id="path4" />
			<path
   d="M47.669,435.201l-6.63,6.63c-3.337,3.336-3.337,8.738,0,12.066c1.664,1.673,3.849,2.5,6.033,2.5     c2.176,0,4.361-0.828,6.033-2.5l170.086-170.086c3.337-3.336,3.337-8.738,0-12.066c-3.328-3.337-8.73-3.337-12.066,0     L93.869,389.002l-11.034-11.034c-3.337-3.336-8.73-3.336-12.066,0c-3.336,3.337-3.336,8.73,0,12.066l11.034,11.034     l-22.067,22.067l-28.1-28.1c-3.337-3.337-8.73-3.337-12.066,0c-3.337,3.336-3.337,8.73,0,12.066L47.669,435.201z"
   id="path6" />
			<path
   d="M409.602,153.601c0-4.71-3.823-8.533-8.533-8.533c-14.114,0-25.6-11.486-25.6-25.6c0-4.71-3.823-8.533-8.533-8.533     s-8.533,3.823-8.533,8.533c0,14.114-11.486,25.6-25.6,25.6c-4.71,0-8.533,3.823-8.533,8.533c0,4.71,3.823,8.533,8.533,8.533     c14.114,0,25.6,11.486,25.6,25.6c0,4.71,3.823,8.533,8.533,8.533s8.533-3.823,8.533-8.533c0-14.114,11.486-25.6,25.6-25.6     C405.779,162.134,409.602,158.312,409.602,153.601z M366.935,162.16c-2.432-3.234-5.325-6.127-8.559-8.559     c3.234-2.432,6.127-5.325,8.559-8.559c2.432,3.234,5.325,6.127,8.559,8.559C372.26,156.033,369.367,158.926,366.935,162.16z"
   id="path8" />
			<path
   d="M470.368,153.601c24.704-12.783,41.634-38.588,41.634-68.267c0-42.342-34.458-76.8-76.8-76.8     c-29.687,0-55.484,16.93-68.267,41.634c-12.783-24.704-38.579-41.634-68.267-41.634c-42.342,0-76.8,34.458-76.8,76.8     c0,29.679,16.93,55.484,41.634,68.267c-24.704,12.783-41.634,38.588-41.634,68.267c0,42.342,34.458,76.8,76.8,76.8     c29.688,0,55.484-16.93,68.267-41.634c12.783,24.704,38.579,41.634,68.267,41.634c42.342,0,76.8-34.458,76.8-76.8     C512.002,192.189,495.072,166.384,470.368,153.601z M435.202,281.601c-32.939,0-59.733-26.795-59.733-59.733     c0-4.71-3.823-8.533-8.533-8.533s-8.533,3.823-8.533,8.533c0,32.939-26.795,59.733-59.733,59.733s-59.733-26.795-59.733-59.733     c0-32.939,26.795-59.733,59.733-59.733c4.71,0,8.533-3.823,8.533-8.533c0-4.71-3.823-8.533-8.533-8.533     c-32.939,0-59.733-26.795-59.733-59.733s26.795-59.733,59.733-59.733s59.733,26.795,59.733,59.733     c0,4.71,3.823,8.533,8.533,8.533s8.533-3.823,8.533-8.533c0-32.939,26.795-59.733,59.733-59.733s59.733,26.795,59.733,59.733     s-26.795,59.733-59.733,59.733c-4.71,0-8.533,3.823-8.533,8.533c0,4.71,3.823,8.533,8.533,8.533     c32.939,0,59.733,26.795,59.733,59.733C494.935,254.806,468.141,281.601,435.202,281.601z"
   id="path10" />
			<path
   d="M435.202,179.201c-23.526,0-42.667,19.14-42.667,42.667c0,23.526,19.14,42.667,42.667,42.667     c23.526,0,42.667-19.14,42.667-42.667C477.869,198.341,458.729,179.201,435.202,179.201z M435.202,247.468     c-14.114,0-25.6-11.486-25.6-25.6c0-14.114,11.486-25.6,25.6-25.6s25.6,11.486,25.6,25.6     C460.802,235.982,449.316,247.468,435.202,247.468z"
   id="path12" />
			<path
   d="M298.669,179.201c-23.526,0-42.667,19.14-42.667,42.667c0,23.526,19.14,42.667,42.667,42.667     c23.526,0,42.667-19.14,42.667-42.667C341.336,198.341,322.195,179.201,298.669,179.201z M298.669,247.468     c-14.114,0-25.6-11.486-25.6-25.6c0-14.114,11.486-25.6,25.6-25.6s25.6,11.486,25.6,25.6     C324.269,235.982,312.783,247.468,298.669,247.468z"
   id="path14" />
			<path
   d="M341.336,85.334c0-23.526-19.14-42.667-42.667-42.667c-23.526,0-42.667,19.14-42.667,42.667     c0,23.526,19.14,42.667,42.667,42.667C322.195,128.001,341.336,108.861,341.336,85.334z M298.669,110.934     c-14.114,0-25.6-11.486-25.6-25.6s11.486-25.6,25.6-25.6s25.6,11.486,25.6,25.6S312.783,110.934,298.669,110.934z"
   id="path16" />
		</g>
	</g>
</g>
<g
   id="g24">
</g>
<g
   id="g26">
</g>
<g
   id="g28">
</g>
<g
   id="g30">
</g>
<g
   id="g32">
</g>
<g
   id="g34">
</g>
<g
   id="g36">
</g>
<g
   id="g38">
</g>
<g
   id="g40">
</g>
<g
   id="g42">
</g>
<g
   id="g44">
</g>
<g
   id="g46">
</g>
<g
   id="g48">
</g>
<g
   id="g50">
</g>
<g
   id="g52">
</g>
<path
   style="fill:#ffd0a1;stroke-width:0.796271;fill-opacity:1"
   d="m 292.62946,280.95395 c -24.9734,-3.25708 -45.16897,-20.83677 -51.53492,-44.85971 -1.86085,-7.02223 -1.8592,-21.65404 0.003,-28.66574 3.17752,-11.96277 10.86168,-23.81372 20.46568,-31.56335 9.12641,-7.36425 23.3361,-13.02781 32.68639,-13.02781 5.67547,0 8.50453,-0.78682 10.69116,-2.97346 2.62714,-2.62713 3.26387,-6.36112 1.71632,-10.06493 -1.54696,-3.7024 -4.35135,-4.91096 -12.83346,-5.53065 -20.54109,-1.5007 -39.51401,-14.61178 -48.56911,-33.56329 -4.31502,-9.03095 -5.50028,-14.625193 -5.48796,-25.902188 0.01,-9.035206 0.23864,-10.618069 2.47985,-17.158833 3.5283,-10.29697 7.41967,-16.480947 15.31304,-24.334716 5.69398,-5.665418 8.19612,-7.496489 14.41083,-10.5459 4.13626,-2.029566 9.67041,-4.240852 12.2981,-4.913967 27.90453,-7.148081 57.74424,7.903758 69.05966,34.835283 2.54585,6.059285 4.59378,15.497821 4.59836,21.192841 0.007,9.289982 9.30777,13.784113 15.38923,7.436433 1.88364,-1.966101 2.22548,-3.182202 2.908,-10.345375 1.62114,-17.014357 8.76921,-30.796382 21.40476,-41.27005 5.9651,-4.94449 15.51095,-9.851608 23.20041,-11.926343 7.06992,-1.907574 21.64155,-1.902972 28.61968,0.009 38.59416,10.57482 56.33778,52.259984 37.04398,87.027545 -3.63518,6.55063 -14.65804,17.77136 -21.26265,21.64434 -7.12583,4.17865 -17.07781,7.28072 -25.09065,7.82085 -10.08558,0.67986 -13.73976,3.0709 -13.73349,8.98624 0.006,6.23996 4.3724,9.56205 12.58016,9.57269 9.42993,0.0123 25.19593,6.12194 33.41789,12.95026 23.91341,19.86003 28.9214,53.2186 11.84286,78.88608 -7.15279,10.74997 -16.27715,17.99926 -28.39423,22.55918 -28.42495,10.69691 -59.82358,-1.74904 -73.64316,-29.19106 -3.59372,-7.1362 -5.10199,-12.60843 -5.98007,-21.69666 -0.7985,-8.26457 -1.91101,-10.91351 -5.21587,-12.41931 -6.76716,-3.08332 -13.08055,1.57936 -13.08685,9.66516 -0.004,5.13505 -2.11534,15.04404 -4.4073,20.6846 -5.03422,12.3893 -16.48263,24.59488 -28.57054,30.46011 -3.98025,1.93127 -9.5659,4.0429 -12.41257,4.69252 -5.79541,1.32251 -15.67579,2.08198 -19.90676,1.53017 z m 15.28901,-17.06745 c 14.86224,-3.07659 27.02971,-14.49272 32.10127,-30.11903 1.8802,-5.79321 1.90279,-17.19288 0.0467,-23.55202 -6.10009,-20.89906 -26.60187,-34.11082 -47.81491,-30.8129 -16.75414,2.60471 -30.7843,15.1243 -35.09369,31.31531 -1.54331,5.79845 -1.47838,17.63327 0.12642,23.04211 4.38871,14.79176 15.6333,25.70123 30.65436,29.74078 5.19972,1.39833 14.24473,1.57296 19.9799,0.38575 z m 137.83129,-0.31223 c 15.2604,-3.97484 27.64823,-16.53743 31.21191,-31.65227 5.04571,-21.40063 -6.57813,-43.02027 -27.14337,-50.48506 -26.69244,-9.68883 -55.21476,8.80394 -57.40604,37.21987 -1.58455,20.54814 12.39232,40.0681 32.10675,44.83992 6.21594,1.50456 15.62019,1.5389 21.23075,0.0776 z m -72.70392,-69.55291 c 1.62023,-1.62023 2.40216,-3.36593 2.76419,-6.1711 0.87678,-6.79386 2.15365,-10.58715 4.83164,-14.35381 4.71248,-6.62822 10.59937,-9.79514 20.60912,-11.08695 5.51392,-0.7116 8.43045,-3.70596 8.43045,-8.65545 0,-2.83719 -0.4792,-4.16822 -2.18993,-6.08287 -1.88742,-2.11239 -2.98429,-2.5507 -7.94062,-3.17303 -13.67806,-1.71749 -21.94145,-10.35474 -23.72886,-24.80245 -0.57672,-4.66166 -2.77245,-7.5182 -6.67855,-8.6885 -2.53077,-0.75824 -3.50989,-0.67839 -5.9644,0.48634 -3.58845,1.70284 -4.89502,4.13501 -5.49543,10.22982 -0.9353,9.49424 -7.33676,17.86631 -16.19516,21.18066 -2.38008,0.8905 -5.57961,1.6191 -7.11007,1.6191 -9.26499,0 -13.9276,9.37799 -7.65194,15.39046 1.75115,1.6777 3.41391,2.28195 7.79239,2.83172 13.2197,1.65993 21.76701,10.37441 23.44483,23.90339 0.54942,4.43016 1.0324,5.58736 3.1049,7.43913 3.50873,3.13505 8.80531,3.10566 11.97744,-0.0665 z m -61.07338,-67.82013 c 12.58114,-3.88828 23.66591,-15.00322 27.7289,-27.804372 1.94679,-6.133711 2.32603,-18.278714 0.74705,-23.924493 -3.125,-11.173781 -11.8571,-22.221853 -21.33746,-26.996681 -17.38946,-8.758296 -37.50019,-5.800328 -50.76763,7.467111 -8.3645,8.364509 -12.34867,18.12188 -12.33286,30.203619 0.0152,11.634738 3.28144,20.568036 10.46835,28.631566 11.49798,12.90044 28.72664,17.60518 45.49365,12.42325 z m 130.35587,1.58132 c 7.77786,-1.2069 17.46476,-6.26503 23.3966,-12.21681 19.08119,-19.145314 15.65889,-51.0858 -7.10421,-66.30388 -6.17226,-4.126411 -12.44419,-6.065722 -20.98955,-6.490068 -13.66271,-0.678462 -23.16291,2.866767 -32.41761,12.097409 -9.34294,9.318657 -13.58656,20.138682 -12.83302,32.720568 1.55027,25.884861 24.28031,44.175631 49.94779,40.192781 z"
   id="path61" /><path
   style="fill:#ffd001;fill-opacity:1;stroke-width:0.796271"
   d="m 284.7992,279.03329 c -20.51742,-5.5795 -36.85664,-21.49284 -42.99997,-41.87917 -2.2516,-7.47182 -2.05454,-24.47764 0.36842,-31.7945 8.1142,-24.50321 27.93117,-40.06787 53.83334,-42.28181 5.76348,-0.49263 6.57026,-0.77772 8.95805,-3.16551 2.1844,-2.1844 2.62412,-3.21992 2.62412,-6.17959 0,-6.62795 -2.85663,-8.53298 -15.12914,-10.08936 -17.88107,-2.26764 -33.66797,-11.98823 -43.0537,-26.50978 -13.78476,-21.327701 -12.11755,-50.220875 3.95285,-68.503908 8.92459,-10.153357 15.07751,-14.462018 27.25362,-19.084672 6.3467,-2.409523 7.21416,-2.532547 17.81926,-2.527136 10.38509,0.0053 11.62338,0.172525 18.0991,2.444208 23.50717,8.246313 38.65879,27.669529 40.90292,52.434419 0.64947,7.16702 2.61053,10.692569 6.68819,12.023831 3.35389,1.094968 6.81202,0.225425 9.40143,-2.36398 1.5422,-1.542193 2.09543,-3.444716 3.06949,-10.55575 1.30696,-9.541292 4.03255,-18.676425 7.22092,-24.201762 7.5074,-13.010028 19.15363,-22.431366 34.05855,-27.551989 5.68895,-1.954458 7.5197,-2.191945 17.11981,-2.220811 12.53107,-0.03768 16.54562,0.908901 27.24997,6.425203 28.97635,14.93246 39.86431,50.02958 24.65804,79.484677 -3.74612,7.25637 -16.67335,20.39993 -23.6404,24.036 -6.68378,3.48824 -13.71302,5.63718 -21.76762,6.65467 -8.99441,1.13621 -11.70397,2.03125 -13.65397,4.51026 -1.95336,2.4833 -2.14087,7.87267 -0.36225,10.41201 1.95777,2.79511 5.05961,3.96936 12.75471,4.82849 26.51683,2.96053 47.10625,21.36443 52.52959,46.95369 5.46839,25.80186 -9.21796,54.24516 -33.598,65.06986 -15.89026,7.05524 -33.67046,6.75895 -49.25259,-0.82075 -8.8472,-4.3036 -15.68513,-9.80273 -20.99395,-16.88357 -7.21295,-9.62052 -10.42409,-17.52526 -12.06483,-29.69955 -0.5017,-3.72257 -1.26731,-7.92725 -1.70136,-9.34373 -1.11008,-3.62261 -4.16384,-5.78542 -8.16868,-5.78542 -6.12549,0 -8.69098,3.34793 -9.56234,12.47873 -1.51595,15.88537 -6.52281,26.43286 -17.89509,37.69791 -8.31277,8.23438 -13.09802,11.22827 -23.57368,14.74884 -8.77795,2.95001 -22.80311,3.50839 -31.14481,1.23995 z m 23.3887,-14.89354 c 5.96932,-0.7223 15.2105,-6.01245 21.02633,-12.03661 10.88088,-11.27063 14.92178,-25.73865 11.38249,-40.75371 -4.37958,-18.57981 -22.46608,-32.753 -41.74076,-32.70943 -11.9159,0.0269 -21.90662,4.29063 -30.70181,13.10249 -6.17738,6.1891 -9.26665,11.29699 -11.10797,18.36626 -1.39193,5.34399 -1.58073,17.35 -0.35642,22.66588 2.62375,11.39225 11.80504,22.43119 23.20663,27.90206 9.0141,4.32527 15.05489,5.0647 28.29151,3.46306 z m 145.47969,-3.38752 c 27.87469,-13.81662 33.24016,-49.48974 10.63388,-70.70096 -16.76424,-15.72969 -43.13379,-15.17713 -59.55894,1.24803 -13.46907,13.46907 -16.60198,33.88062 -7.75808,50.54553 3.31717,6.25068 11.28792,14.68977 16.61087,17.58689 7.92779,4.31483 12.04089,5.2056 23.04583,4.99095 l 10.01553,-0.19535 z m -82.80822,-64.94145 c 3.09156,-1.29174 4.74811,-4.06218 5.51292,-9.21985 0.96187,-6.4866 2.93665,-11.04387 6.50582,-15.01364 4.08324,-4.54155 8.83301,-7.00545 16.21699,-8.4124 6.84443,-1.30415 8.69838,-2.36973 10.14445,-5.83065 2.35061,-5.62581 -0.7932,-11.59135 -6.61461,-12.55156 -15.80067,-2.60625 -23.16112,-9.20901 -26.16048,-23.46748 -1.40801,-6.69342 -2.38341,-8.40264 -5.69074,-9.97207 -3.18472,-1.51125 -5.32926,-1.50905 -8.26382,0.008 -3.00269,1.55275 -3.72079,2.99184 -5.24478,10.51067 -2.66515,13.14899 -10.175,20.35216 -23.40982,22.45384 -4.36519,0.69319 -5.57422,1.2573 -7.75884,3.6202 -2.90858,3.14592 -3.33595,6.23256 -1.38524,10.00482 1.54075,2.97947 3.47971,3.98055 10.18414,5.25802 7.06607,1.34638 11.84682,3.79125 15.8003,8.08028 3.75165,4.07006 5.18662,7.2168 6.78001,14.8679 1.91584,9.19934 6.52666,12.5285 13.3837,9.66344 z M 309.1016,127.2371 c 7.3976,-1.74374 14.07397,-5.57118 20.04772,-11.49299 9.34677,-9.2655 13.35024,-20.475672 12.45837,-34.884821 -0.56018,-9.050331 -4.6008,-17.557578 -12.13003,-25.538963 -8.33898,-8.839765 -17.86435,-12.827107 -30.68525,-12.844926 -12.35784,-0.01718 -22.26368,3.972023 -30.62452,12.332865 -8.36245,8.362454 -12.34232,18.247785 -12.34232,30.656298 0,12.27195 3.78285,21.813877 11.80704,29.782297 7.09004,7.04078 13.46195,10.57833 22.83074,12.67516 3.63264,0.81302 13.88114,0.4364 18.63825,-0.68492 z m 137.0872,-0.0451 c 19.73526,-5.80031 32.15371,-22.14821 32.00012,-42.125622 -0.14063,-18.293918 -11.34225,-34.495454 -27.87526,-40.317592 -5.82314,-2.050633 -18.77589,-2.844768 -25.05721,-1.53626 -14.93651,3.111538 -29.28916,17.803482 -32.51524,33.283925 -1.36409,6.545645 -0.52606,16.901209 1.91009,23.602919 4.78721,13.16934 15.97596,23.52816 29.27682,27.10521 5.84083,1.5708 16.89456,1.56455 22.26068,-0.0126 z"
   id="path906" /></svg>
