<?xml version="1.0" encoding="UTF-8" standalone="no"?>
<svg
   xmlns:dc="http://purl.org/dc/elements/1.1/"
   xmlns:cc="http://creativecommons.org/ns#"
   xmlns:rdf="http://www.w3.org/1999/02/22-rdf-syntax-ns#"
   xmlns:svg="http://www.w3.org/2000/svg"
   xmlns="http://www.w3.org/2000/svg"
   xmlns:sodipodi="http://sodipodi.sourceforge.net/DTD/sodipodi-0.dtd"
   xmlns:inkscape="http://www.inkscape.org/namespaces/inkscape"
   version="1.1"
   id="Capa_1"
   x="0px"
   y="0px"
   viewBox="0 0 215.476 215.476"
   style="enable-background:new 0 0 215.476 215.476;"
   xml:space="preserve"
   sodipodi:docname="cupboard-key.svg"
   inkscape:version="1.0.2 (1.0.2+r75+1)"><metadata
   id="metadata39"><rdf:RDF><cc:Work
       rdf:about=""><dc:format>image/svg+xml</dc:format><dc:type
         rdf:resource="http://purl.org/dc/dcmitype/StillImage" /><dc:title></dc:title></cc:Work></rdf:RDF></metadata><defs
   id="defs37" /><sodipodi:namedview
   pagecolor="#ffffff"
   bordercolor="#666666"
   borderopacity="1"
   objecttolerance="10"
   gridtolerance="10"
   guidetolerance="10"
   inkscape:pageopacity="0"
   inkscape:pageshadow="2"
   inkscape:window-width="1391"
   inkscape:window-height="839"
   id="namedview35"
   showgrid="false"
   inkscape:zoom="2.9840911"
   inkscape:cx="107.738"
   inkscape:cy="107.738"
   inkscape:window-x="49"
   inkscape:window-y="24"
   inkscape:window-maximized="1"
   inkscape:current-layer="Capa_1" />
<path
   d="M21.58,193.877c13.928,13.929,32.445,21.599,52.143,21.599c19.696,0,38.215-7.67,52.144-21.599  c19.957-19.958,26.046-48.604,18.294-73.877l71.299-71.3l-6.334-42.368L166.755,0L95.502,71.255  c-6.965-2.143-14.286-3.26-21.78-3.26c-19.695,0-38.215,7.67-52.143,21.597C-7.171,118.345-7.17,165.127,21.58,193.877z   M124.067,63.903l17.667,17.668l10.608-10.606l-17.668-17.669l16.881-16.883l17.185,17.389l10.791-10.688l-17.338-17.338  l9.821-9.822l23.917,3.574l3.574,23.913l-61.748,61.749c-3.183-5.582-7.136-10.841-11.893-15.599  c-4.709-4.708-9.953-8.683-15.579-11.906L124.067,63.903z M73.721,82.995c15.69,0,30.442,6.109,41.537,17.202  c22.9,22.905,22.9,60.172,0.001,83.073c-11.096,11.096-25.848,17.205-41.537,17.205c-15.69,0-30.441-6.109-41.535-17.205  c-22.902-22.902-22.903-60.168-0.002-83.072C43.28,89.104,58.031,82.995,73.721,82.995z M62.915,181.238l-28.695-28.695  l10.698-10.699l28.696,28.695L62.915,181.238z"
   id="path2" />
<g
   id="g4">
</g>
<g
   id="g6">
</g>
<g
   id="g8">
</g>
<g
   id="g10">
</g>
<g
   id="g12">
</g>
<g
   id="g14">
</g>
<g
   id="g16">
</g>
<g
   id="g18">
</g>
<g
   id="g20">
</g>
<g
   id="g22">
</g>
<g
   id="g24">
</g>
<g
   id="g26">
</g>
<g
   id="g28">
</g>
<g
   id="g30">
</g>
<g
   id="g32">
</g>
<path
   style="fill:#ff5555;stroke-width:0.33511"
   d="M 67.524749,200.01871 C 44.335589,197.16165 25.234868,181.66423 18.115357,159.93029 15.967414,153.3732 15.42378,149.70156 15.42378,141.75171 c 0,-5.99595 0.113224,-7.59935 0.765141,-10.83539 3.290657,-16.33446 12.575099,-29.87327 26.74016,-38.993203 4.780521,-3.077855 12.803967,-6.233998 19.569012,-7.697764 3.085676,-0.667655 4.467095,-0.76134 11.226199,-0.76134 8.724918,0 11.374096,0.400595 18.636254,2.818075 19.835804,6.60309 34.741084,23.660392 38.843454,44.451662 0.93628,4.74521 1.23878,12.64363 0.66919,17.47306 -2.079,17.62746 -11.68934,33.10646 -26.56164,42.78185 -5.880469,3.82562 -13.289037,6.79759 -20.569307,8.25145 -2.770455,0.55326 -5.133654,0.75142 -9.845065,0.82556 -3.409748,0.0537 -6.727341,0.0325 -7.372429,-0.047 z m -8.122664,-43.93729 -14.492148,-14.49502 -5.449306,5.4418 -5.449306,5.4418 14.492145,14.49502 14.492148,14.49502 5.449304,-5.4418 5.449308,-5.4418 z"
   id="path41" /><path
   style="fill:#ff5555;stroke-width:0.33511"
   d="m 135.90593,101.80248 c -5.27292,-8.399871 -13.04637,-16.242819 -21.63328,-21.82668 -1.84311,-1.198529 -3.41951,-2.233906 -3.50313,-2.300838 -0.0836,-0.06693 2.85575,-3.132294 6.53192,-6.811913 l 6.68394,-6.690219 8.71794,8.713277 c 4.79486,4.792303 8.86597,8.713279 9.0469,8.713279 0.18094,0 2.70616,-2.373697 5.6116,-5.274882 l 5.28262,-5.274879 -8.88136,-8.885936 -8.88137,-8.885932 8.29657,-8.291583 8.29656,-8.291583 8.54038,8.545316 c 4.69722,4.699923 8.68209,8.545315 8.85528,8.545315 0.17319,0 2.70252,-2.371714 5.62074,-5.270478 l 5.30586,-5.270477 -8.71906,-8.723715 -8.71905,-8.723715 4.83908,-4.830444 4.83908,-4.830445 11.83366,1.763156 c 6.50852,0.969736 11.85355,1.787738 11.87785,1.817783 0.0243,0.03005 0.83938,5.384327 1.81129,11.898405 l 1.76711,11.843777 -30.6301,30.631468 c -16.84655,16.847308 -30.7058,30.628513 -30.79834,30.624903 -0.0925,-0.004 -0.98924,-1.31444 -1.99269,-2.91296 z"
   id="path43" /></svg>
