<?xml version="1.0" encoding="UTF-8" standalone="no"?>
<svg
   xmlns:dc="http://purl.org/dc/elements/1.1/"
   xmlns:cc="http://creativecommons.org/ns#"
   xmlns:rdf="http://www.w3.org/1999/02/22-rdf-syntax-ns#"
   xmlns:svg="http://www.w3.org/2000/svg"
   xmlns="http://www.w3.org/2000/svg"
   xmlns:sodipodi="http://sodipodi.sourceforge.net/DTD/sodipodi-0.dtd"
   xmlns:inkscape="http://www.inkscape.org/namespaces/inkscape"
   version="1.1"
   id="Layer_1"
   x="0px"
   y="0px"
   viewBox="0 0 502 502"
   style="enable-background:new 0 0 502 502;"
   xml:space="preserve"
   sodipodi:docname="front-door-key.svg"
   inkscape:version="1.0.2 (1.0.2+r75+1)"><metadata
   id="metadata47"><rdf:RDF><cc:Work
       rdf:about=""><dc:format>image/svg+xml</dc:format><dc:type
         rdf:resource="http://purl.org/dc/dcmitype/StillImage" /><dc:title></dc:title></cc:Work></rdf:RDF></metadata><defs
   id="defs45" /><sodipodi:namedview
   pagecolor="#ffffff"
   bordercolor="#666666"
   borderopacity="1"
   objecttolerance="10"
   gridtolerance="10"
   guidetolerance="10"
   inkscape:pageopacity="0"
   inkscape:pageshadow="2"
   inkscape:window-width="1391"
   inkscape:window-height="839"
   id="namedview43"
   showgrid="false"
   inkscape:zoom="1.2808765"
   inkscape:cx="251"
   inkscape:cy="251"
   inkscape:window-x="49"
   inkscape:window-y="24"
   inkscape:window-maximized="1"
   inkscape:current-layer="Layer_1" />
<g
   id="g10">
	<g
   id="g8">
		<g
   id="g6">
			<path
   d="M499.088,79.419l-61-61.285c-1.874-1.882-4.42-2.942-7.076-2.945c-0.004,0-0.008,0-0.012,0     c-2.652,0-5.195,1.053-7.071,2.929L164.721,277.326l-31.695-31.462c-8.691-8.691-20.284-13.478-32.644-13.478     c-12.358,0-23.951,4.786-32.643,13.478l-54.262,54.262C4.787,308.817,0,320.41,0,332.769s4.786,23.952,13.478,32.643l107.9,107.9     c9,9,20.821,13.5,32.643,13.5c11.822,0,23.644-4.5,32.644-13.5l54.262-54.262c8.69-8.691,13.478-20.284,13.478-32.643     s-4.787-23.952-13.478-32.643l-33.469-33.469L362.27,165.481l25.361,25.362c3.906,3.905,10.236,3.905,14.143,0l23.701-23.701     c1.875-1.875,2.929-4.419,2.929-7.071s-1.054-5.196-2.929-7.071l-25.362-25.361l13.925-13.925l25.361,25.362     c3.906,3.905,10.236,3.905,14.143,0l45.53-45.53C502.97,89.646,502.978,83.327,499.088,79.419z M446.47,117.862L421.108,92.5     c-1.876-1.875-4.419-2.929-7.071-2.929c-2.652,0-5.195,1.054-7.071,2.929L378.9,120.567c-3.905,3.905-3.905,10.237,0,14.142     l25.361,25.361l-9.559,9.559l-25.361-25.362c-1.876-1.875-4.419-2.929-7.071-2.929c-2.652,0-5.195,1.054-7.071,2.929     L186.243,313.224c-3.905,3.905-3.905,10.237,0,14.142l40.54,40.541c4.914,4.913,7.62,11.483,7.62,18.5     c0,7.017-2.706,13.587-7.62,18.501l-54.262,54.262c-10.2,10.202-26.799,10.203-37.001,0l-107.9-107.9     c-4.914-4.913-7.62-11.483-7.62-18.5c0-7.017,2.706-13.587,7.62-18.501l54.262-54.262c4.913-4.914,11.483-7.62,18.501-7.62     c7.017,0,13.587,2.706,18.526,7.646l38.793,38.507c3.91,3.881,10.222,3.869,14.116-0.026L430.983,39.347l13.825,13.89     l-12.88,12.88c-3.905,3.905-3.905,10.237,0,14.143c1.953,1.953,4.512,2.929,7.071,2.929s5.118-0.976,7.071-2.929l12.847-12.847     l18.956,19.044L446.47,117.862z"
   id="path2" />
			<path
   d="M87.938,280.854l-39.47,39.471c-7.007,7.007-6.796,18.621,0.471,25.889l91.638,91.637     c3.721,3.72,8.58,5.591,13.378,5.591c4.573,0,9.091-1.701,12.511-5.12c0,0,0.001,0,0.001-0.001l39.468-39.469     c3.446-3.446,5.309-8.274,5.109-13.249c-0.189-4.744-2.171-9.233-5.578-12.642l-91.638-91.637     C106.559,274.058,94.946,273.848,87.938,280.854z M153.756,422.747l-89.713-89.713l36.604-36.604l89.713,89.713L153.756,422.747z     "
   id="path4" />
		</g>
	</g>
</g>
<g
   id="g12">
</g>
<g
   id="g14">
</g>
<g
   id="g16">
</g>
<g
   id="g18">
</g>
<g
   id="g20">
</g>
<g
   id="g22">
</g>
<g
   id="g24">
</g>
<g
   id="g26">
</g>
<g
   id="g28">
</g>
<g
   id="g30">
</g>
<g
   id="g32">
</g>
<g
   id="g34">
</g>
<g
   id="g36">
</g>
<g
   id="g38">
</g>
<g
   id="g40">
</g>
<path
   style="fill:#808080;stroke-width:0.780715"
   d="m 148.28939,465.79196 c -6.97053,-1.80322 -9.27712,-3.92901 -66.915445,-61.67046 -55.191865,-55.29062 -57.446831,-57.66259 -59.101406,-62.16816 -1.349416,-3.67459 -1.660779,-5.94642 -1.4445,-10.53965 0.477308,-10.13691 0.515584,-10.18612 34.126775,-43.87851 34.345075,-34.42806 34.476604,-34.52816 45.367116,-34.52816 10.43727,0 11.95279,1.06178 36.69362,25.70773 11.80832,11.76304 22.45868,21.75733 23.66747,22.20955 2.84378,1.06386 6.43705,1.04749 8.58837,-0.0391 0.9379,-0.47373 60.20447,-59.32385 131.70348,-130.77803 l 129.99818,-129.916712 6.59377,6.628198 6.59376,6.628199 -7.57873,7.713879 -7.57874,7.713879 v 4.37727 c 0,3.969507 0.25697,4.634241 2.75853,7.135799 2.67775,2.677746 4.25432,3.164775 8.9522,2.765467 3.06756,-0.260736 4.62213,-1.359836 11.74227,-8.301937 l 6.66761,-6.500891 8.93908,8.964515 8.93908,8.964514 -15.40856,15.40857 -15.40857,15.40857 -13.53533,-13.51876 C 420.36488,91.308219 418.81783,90.019222 415.90824,89.628964 c -1.76321,-0.236496 -4.17846,-0.185883 -5.36721,0.112474 -2.27354,0.570624 -28.26884,25.609732 -32.38253,31.191412 -2.63109,3.56999 -3.06347,9.03294 -0.96565,12.20059 0.70311,1.06168 6.85533,7.55945 13.6716,14.43948 l 12.3932,12.50915 -4.29221,4.23889 -4.29222,4.23891 -13.50107,-13.36232 c -11.10117,-10.98708 -14.00656,-13.45716 -16.34479,-13.89581 -6.60874,-1.23981 -2.18462,-5.2986 -92.63397,84.98471 -46.52644,46.44105 -85.61101,85.80845 -86.85458,87.4831 -2.43857,3.28387 -3.00393,7.70656 -1.3888,10.8642 0.47974,0.9379 10.96425,11.89362 23.29893,24.34603 26.01373,26.26204 26.19364,26.51966 26.16946,37.47434 -0.025,11.31927 0.6017,10.4857 -33.8688,45.04958 -26.24291,26.314 -30.72524,30.48529 -34.71001,32.30136 -4.86215,2.21595 -12.24062,3.10175 -16.5502,1.9869 z m 13.3187,-23.82897 c 5.04592,-2.40231 46.48911,-43.75635 48.36621,-48.26217 1.87422,-4.49889 1.5657,-11.30124 -0.72008,-15.87646 -1.47349,-2.94936 -13.32411,-15.23692 -50.16097,-52.01045 -48.06635,-47.98374 -48.24746,-48.1533 -52.83934,-49.47012 -5.31206,-1.52334 -9.915676,-1.1611 -14.32717,1.12735 -4.260547,2.21015 -45.882057,44.25246 -47.387824,47.86692 -1.550177,3.72107 -1.553458,11.54077 -0.0064,15.27411 0.834159,2.01299 15.968617,17.69434 49.380249,51.16461 26.497595,26.54411 49.229135,48.81848 50.514535,49.49861 5.84838,3.09452 11.63848,3.32624 17.18079,0.6876 z"
   id="path874" /></svg>
