<?xml version="1.0" encoding="iso-8859-1"?>
<!-- Generator: Adobe Illustrator 18.0.0, SVG Export Plug-In . SVG Version: 6.00 Build 0)  -->
<!DOCTYPE svg PUBLIC "-//W3C//DTD SVG 1.1//EN" "http://www.w3.org/Graphics/SVG/1.1/DTD/svg11.dtd">
<svg version="1.1" id="Capa_1" xmlns="http://www.w3.org/2000/svg" xmlns:xlink="http://www.w3.org/1999/xlink" x="0px" y="0px"
	 viewBox="0 0 102.446 102.446" style="enable-background:new 0 0 102.446 102.446;" xml:space="preserve">
<g>
	<g>
		<path style="fill:#666665;" d="M67.555,91.39c0,5.527-4.524,10.051-10.052,10.051H44.942c-5.528,0-10.051-4.523-10.051-10.051
			V11.056c0-5.528,4.522-10.051,10.051-10.051h12.562c5.528,0,10.052,4.523,10.052,10.051V91.39z"/>
		<g>
			<path style="fill:#30302E;" d="M57.503,102.446H44.942c-6.099,0-11.056-4.96-11.056-11.056V11.056
				C33.886,4.959,38.843,0,44.942,0h12.562C63.6,0,68.56,4.959,68.56,11.056V91.39C68.56,97.486,63.6,102.446,57.503,102.446z
				 M44.942,2.01c-4.988,0-9.046,4.058-9.046,9.045V91.39c0,4.987,4.058,9.045,9.046,9.045h12.562c4.988,0,9.046-4.058,9.046-9.045
				V11.056c0-4.987-4.058-9.045-9.046-9.045H44.942z"/>
		</g>
	</g>
	<g>
		<circle style="fill:#43C487;" cx="59.65" cy="11.271" r="2.58"/>
		<g>
			<g>
				<g>
					<rect x="40.167" y="43.626" style="fill:#8E8E8D;" width="6.03" height="3.267"/>
					<rect x="48.208" y="43.626" style="fill:#8E8E8D;" width="6.028" height="3.267"/>
					<rect x="56.247" y="43.626" style="fill:#8E8E8D;" width="6.03" height="3.267"/>
				</g>
				<g>
					<rect x="40.167" y="49.657" style="fill:#8E8E8D;" width="6.03" height="3.266"/>
					<rect x="48.208" y="49.657" style="fill:#8E8E8D;" width="6.028" height="3.266"/>
					<rect x="56.247" y="49.657" style="fill:#8E8E8D;" width="6.03" height="3.266"/>
				</g>
				<g>
					<rect x="40.167" y="55.687" style="fill:#8E8E8D;" width="6.03" height="3.267"/>
					<rect x="48.208" y="55.687" style="fill:#8E8E8D;" width="6.028" height="3.267"/>
					<rect x="56.247" y="55.687" style="fill:#8E8E8D;" width="6.03" height="3.267"/>
				</g>
				<g>
					<rect x="40.167" y="61.717" style="fill:#8E8E8D;" width="6.03" height="3.267"/>
					<rect x="48.208" y="61.717" style="fill:#8E8E8D;" width="6.028" height="3.267"/>
					<rect x="56.247" y="61.717" style="fill:#8E8E8D;" width="6.03" height="3.267"/>
				</g>
			</g>
			<g>
				<g>
					<g>
						<g>
							<path style="fill:#8E8E8D;" d="M47.113,22.144l-2.26-2.954c0,0,5.909-4.112,12.743,0l-1.911,2.954
								C55.686,22.144,51.689,20.522,47.113,22.144z"/>
							<g>
								<path style="fill:#F26038;" d="M57.409,19.482c-6.321-4.048-12.298-0.046-12.356-0.006l-0.396-0.573
									c0.063-0.043,6.406-4.309,13.128-0.006L57.409,19.482z"/>
							</g>
						</g>
						<g>
							<path style="fill:#8E8E8D;" d="M55.329,33.831l2.259,2.954c0,0-5.908,4.112-12.74,0l1.911-2.954
								C46.759,33.831,50.754,35.452,55.329,33.831z"/>
							<g>
								<path style="fill:#F9E382;" d="M45.034,36.492c6.323,4.048,12.297,0.047,12.356,0.006l0.395,0.573
									c-0.063,0.043-6.407,4.309-13.128,0.006L45.034,36.492z"/>
							</g>
						</g>
					</g>
					<g>
						<g>
							<path style="fill:#8E8E8D;" d="M57.064,23.88l2.955-2.259c0,0,4.112,5.908,0,12.742l-2.955-1.911
								C57.064,32.452,58.686,28.456,57.064,23.88z"/>
							<g>
								<path style="fill:#43C487;" d="M59.726,34.175c4.049-6.324,0.048-12.297,0.006-12.357l0.573-0.394
									c0.043,0.063,4.309,6.405,0.006,13.126L59.726,34.175z"/>
							</g>
						</g>
						<g>
							<path style="fill:#8E8E8D;" d="M45.378,32.095l-2.954,2.259c0,0-4.112-5.908,0-12.742l2.954,1.911
								C45.378,23.522,43.757,27.519,45.378,32.095z"/>
							<g>
								<path style="fill:#3AC9EF;" d="M42.717,21.799c-4.049,6.323-0.048,12.297-0.007,12.357l-0.572,0.394
									c-0.044-0.063-4.309-6.405-0.007-13.126L42.717,21.799z"/>
							</g>
						</g>
					</g>
				</g>
				<circle style="fill:#8E8E8D;" cx="51.22" cy="27.988" r="3.851"/>
			</g>
			<g>
				<circle style="fill:#F26038;" cx="42.176" cy="69.256" r="1.382"/>
				<circle style="fill:#3AC9EF;" cx="48.207" cy="69.256" r="1.382"/>
				<circle style="fill:#F9E382;" cx="54.238" cy="69.256" r="1.382"/>
				<circle style="fill:#43C487;" cx="60.269" cy="69.256" r="1.382"/>
			</g>
			<g>
				<circle style="fill:#8E8E8D;" cx="42.176" cy="74.281" r="1.382"/>
				<circle style="fill:#8E8E8D;" cx="48.207" cy="74.281" r="1.382"/>
				<circle style="fill:#8E8E8D;" cx="54.238" cy="74.281" r="1.382"/>
				<circle style="fill:#8E8E8D;" cx="60.269" cy="74.281" r="1.382"/>
			</g>
			<g>
				<circle style="fill:#8E8E8D;" cx="42.176" cy="79.307" r="1.382"/>
				<circle style="fill:#8E8E8D;" cx="48.207" cy="79.307" r="1.382"/>
				<circle style="fill:#8E8E8D;" cx="54.238" cy="79.307" r="1.382"/>
				<circle style="fill:#8E8E8D;" cx="60.269" cy="79.307" r="1.382"/>
			</g>
			<g>
				<circle style="fill:#8E8E8D;" cx="42.176" cy="84.332" r="1.382"/>
				<circle style="fill:#8E8E8D;" cx="48.207" cy="84.332" r="1.382"/>
				<circle style="fill:#8E8E8D;" cx="54.238" cy="84.332" r="1.382"/>
				<circle style="fill:#8E8E8D;" cx="60.269" cy="84.332" r="1.382"/>
			</g>
		</g>
		<circle style="fill:#F26038;" cx="42.563" cy="11.271" r="2.58"/>
	</g>
</g>
<g>
</g>
<g>
</g>
<g>
</g>
<g>
</g>
<g>
</g>
<g>
</g>
<g>
</g>
<g>
</g>
<g>
</g>
<g>
</g>
<g>
</g>
<g>
</g>
<g>
</g>
<g>
</g>
<g>
</g>
</svg>
