<?xml version="1.0" encoding="UTF-8" standalone="no"?>
<svg
   xmlns:dc="http://purl.org/dc/elements/1.1/"
   xmlns:cc="http://creativecommons.org/ns#"
   xmlns:rdf="http://www.w3.org/1999/02/22-rdf-syntax-ns#"
   xmlns:svg="http://www.w3.org/2000/svg"
   xmlns="http://www.w3.org/2000/svg"
   xmlns:sodipodi="http://sodipodi.sourceforge.net/DTD/sodipodi-0.dtd"
   xmlns:inkscape="http://www.inkscape.org/namespaces/inkscape"
   version="1.1"
   id="Layer_1"
   x="0px"
   y="0px"
   viewBox="0 0 251.5655 503.131"
   xml:space="preserve"
   width="251.56551"
   height="503.13101"
   sodipodi:docname="symbol-part-1.svg"
   inkscape:version="1.0.2 (1.0.2+r75+1)"><sodipodi:namedview
   pagecolor="#ffffff"
   bordercolor="#666666"
   borderopacity="1"
   objecttolerance="10"
   gridtolerance="10"
   guidetolerance="10"
   inkscape:pageopacity="0"
   inkscape:pageshadow="2"
   inkscape:window-width="1391"
   inkscape:window-height="839"
   id="namedview33"
   showgrid="false"
   inkscape:zoom="0.64144751"
   inkscape:cx="212.75372"
   inkscape:cy="284.69635"
   inkscape:window-x="49"
   inkscape:window-y="24"
   inkscape:window-maximized="1"
   inkscape:current-layer="Layer_1" /><metadata
   id="metadata63"><rdf:RDF><cc:Work
       rdf:about=""><dc:format>image/svg+xml</dc:format><dc:type
         rdf:resource="http://purl.org/dc/dcmitype/StillImage" /><dc:title /></cc:Work></rdf:RDF></metadata><defs
   id="defs61"><clipPath
     clipPathUnits="userSpaceOnUse"
     id="clipPath39"><rect
       style="fill:#ff6600"
       id="rect41"
       width="252.94176"
       height="504.72971"
       x="-1.3767575"
       y="-1.5987" /></clipPath><clipPath
     clipPathUnits="userSpaceOnUse"
     id="clipPath43"><rect
       style="fill:#ff6600"
       id="rect45"
       width="252.94176"
       height="504.72971"
       x="-1.3767575"
       y="-1.5987" /></clipPath><clipPath
     clipPathUnits="userSpaceOnUse"
     id="clipPath47"><rect
       style="fill:#ff6600"
       id="rect49"
       width="252.94176"
       height="504.72971"
       x="-1.3767575"
       y="-1.5987" /></clipPath><clipPath
     clipPathUnits="userSpaceOnUse"
     id="clipPath51"><rect
       style="fill:#ff6600"
       id="rect53"
       width="252.94176"
       height="504.72971"
       x="-1.3767575"
       y="-1.5987" /></clipPath><clipPath
     clipPathUnits="userSpaceOnUse"
     id="clipPath55"><rect
       style="fill:#ff6600"
       id="rect57"
       width="252.94176"
       height="504.72971"
       x="-1.3767575"
       y="-1.5987" /></clipPath><clipPath
     clipPathUnits="userSpaceOnUse"
     id="clipPath59"><rect
       style="fill:#ff6600"
       id="rect61"
       width="252.94176"
       height="504.72971"
       x="-1.3767575"
       y="-1.5987" /></clipPath><clipPath
     clipPathUnits="userSpaceOnUse"
     id="clipPath63"><rect
       style="fill:#ff6600"
       id="rect65"
       width="252.94176"
       height="504.72971"
       x="-1.3767575"
       y="-1.5987" /></clipPath><clipPath
     clipPathUnits="userSpaceOnUse"
     id="clipPath67"><rect
       style="fill:#ff6600"
       id="rect69"
       width="252.94176"
       height="504.72971"
       x="-1.3767575"
       y="-1.5987" /></clipPath><clipPath
     clipPathUnits="userSpaceOnUse"
     id="clipPath71"><rect
       style="fill:#ff6600"
       id="rect73"
       width="252.94176"
       height="504.72971"
       x="-1.3767575"
       y="-1.5987" /></clipPath><clipPath
     clipPathUnits="userSpaceOnUse"
     id="clipPath75"><rect
       style="fill:#ff6600"
       id="rect77"
       width="252.94176"
       height="504.72971"
       x="-1.3767575"
       y="-1.5987" /></clipPath><clipPath
     clipPathUnits="userSpaceOnUse"
     id="clipPath79"><rect
       style="fill:#ff6600"
       id="rect81"
       width="252.94176"
       height="504.72971"
       x="-1.3767575"
       y="-1.5987" /></clipPath><clipPath
     clipPathUnits="userSpaceOnUse"
     id="clipPath83"><rect
       style="fill:#ff6600"
       id="rect85"
       width="252.94176"
       height="504.72971"
       x="-1.3767575"
       y="-1.5987" /></clipPath><clipPath
     clipPathUnits="userSpaceOnUse"
     id="clipPath87"><rect
       style="fill:#ff6600"
       id="rect89"
       width="252.94176"
       height="504.72971"
       x="-1.3767575"
       y="-1.5987" /></clipPath><clipPath
     clipPathUnits="userSpaceOnUse"
     id="clipPath91"><rect
       style="fill:#ff6600"
       id="rect93"
       width="252.94176"
       height="504.72971"
       x="-1.3767575"
       y="-1.5987" /></clipPath><clipPath
     clipPathUnits="userSpaceOnUse"
     id="clipPath95"><rect
       style="fill:#ff6600"
       id="rect97"
       width="252.94176"
       height="504.72971"
       x="-1.3767575"
       y="-1.5987" /></clipPath><clipPath
     clipPathUnits="userSpaceOnUse"
     id="clipPath99"><rect
       style="fill:#ff6600"
       id="rect101"
       width="252.94176"
       height="504.72971"
       x="-1.3767575"
       y="-1.5987" /></clipPath><clipPath
     clipPathUnits="userSpaceOnUse"
     id="clipPath103"><rect
       style="fill:#ff6600"
       id="rect105"
       width="252.94176"
       height="504.72971"
       x="-1.3767575"
       y="-1.5987" /></clipPath><clipPath
     clipPathUnits="userSpaceOnUse"
     id="clipPath107"><rect
       style="fill:#ff6600"
       id="rect109"
       width="252.94176"
       height="504.72971"
       x="-1.3767575"
       y="-1.5987" /></clipPath><clipPath
     clipPathUnits="userSpaceOnUse"
     id="clipPath111"><rect
       style="fill:#ff6600"
       id="rect113"
       width="252.94176"
       height="504.72971"
       x="-1.3767575"
       y="-1.5987" /></clipPath><clipPath
     clipPathUnits="userSpaceOnUse"
     id="clipPath115"><rect
       style="fill:#ff6600"
       id="rect117"
       width="252.94176"
       height="504.72971"
       x="-1.3767575"
       y="-1.5987" /></clipPath><clipPath
     clipPathUnits="userSpaceOnUse"
     id="clipPath119"><rect
       style="fill:#ff6600"
       id="rect121"
       width="252.94176"
       height="504.72971"
       x="-1.3767575"
       y="-1.5987" /></clipPath><clipPath
     clipPathUnits="userSpaceOnUse"
     id="clipPath123"><rect
       style="fill:#ff6600"
       id="rect125"
       width="252.94176"
       height="504.72971"
       x="-1.3767575"
       y="-1.5987" /></clipPath><clipPath
     clipPathUnits="userSpaceOnUse"
     id="clipPath127"><rect
       style="fill:#ff6600"
       id="rect129"
       width="252.94176"
       height="504.72971"
       x="-1.3767575"
       y="-1.5987" /></clipPath><clipPath
     clipPathUnits="userSpaceOnUse"
     id="clipPath131"><rect
       style="fill:#ff6600"
       id="rect133"
       width="252.94176"
       height="504.72971"
       x="-1.3767575"
       y="-1.5987" /></clipPath><clipPath
     clipPathUnits="userSpaceOnUse"
     id="clipPath135"><rect
       style="fill:#ff6600"
       id="rect137"
       width="252.94176"
       height="504.72971"
       x="-1.3767575"
       y="-1.5987" /></clipPath></defs>
<circle
   style="fill:#61e1ff"
   cx="251.565"
   cy="332.31201"
   r="151.158"
   id="circle2"
   clip-path="url(#clipPath135)" />
<path
   style="fill:#49c3e8"
   d="m 251.565,181.169 c 83.48,0 151.142,67.663 151.142,151.142 0,83.464 -67.663,151.127 -151.142,151.127"
   id="path4"
   clip-path="url(#clipPath131)" />
<path
   style="fill:#526570"
   d="m 251.565,503.131 c -94.2,0 -170.835,-76.635 -170.835,-170.819 0,-94.2 76.635,-170.835 170.835,-170.835 94.2,0 170.835,76.634 170.835,170.835 0,94.184 -76.635,170.819 -170.835,170.819 z m 0,-302.269 c -72.476,0 -131.45,58.967 -131.45,131.45 0,72.468 58.967,131.434 131.45,131.434 72.483,0 131.45,-58.959 131.45,-131.434 0,-72.475 -58.974,-131.45 -131.45,-131.45 z"
   id="path6"
   clip-path="url(#clipPath127)" />
<path
   style="fill:#526570"
   d="m 251.565,199.546 c -10.878,0 -19.692,-8.814 -19.692,-19.692 V 19.692 C 231.873,8.814 240.687,0 251.565,0 c 10.878,0 19.692,8.814 19.692,19.692 v 160.154 c 10e-4,10.878 -8.814,19.7 -19.692,19.7 z"
   id="path8"
   clip-path="url(#clipPath123)" />
<path
   style="fill:#526570"
   d="M 325.734,105.677 H 177.396 c -10.878,0 -19.692,-8.814 -19.692,-19.692 0,-10.878 8.814,-19.692 19.692,-19.692 h 148.338 c 10.878,0 19.692,8.814 19.692,19.692 0,10.878 -8.814,19.692 -19.692,19.692 z"
   id="path10"
   clip-path="url(#clipPath119)" />
<path
   style="fill:#61e1ff"
   d="m 115.688,28.231 c 31.909,0 57.769,25.844 57.769,57.754 0,31.91 -25.86,57.769 -57.769,57.769"
   id="path12"
   clip-path="url(#clipPath115)" />
<path
   style="fill:#526570"
   d="m 115.688,163.446 c -10.878,0 -19.692,-8.814 -19.692,-19.692 0,-10.878 8.814,-19.692 19.692,-19.692 21,0 38.077,-17.085 38.077,-38.077 0,-20.984 -17.077,-38.061 -38.077,-38.061 -10.878,0 -19.692,-8.814 -19.692,-19.692 0,-10.878 8.814,-19.692 19.692,-19.692 42.709,0 77.462,34.737 77.462,77.446 0,42.715 -34.753,77.46 -77.462,77.46 z"
   id="path14"
   clip-path="url(#clipPath111)" />
<path
   style="fill:#49c3e8"
   d="m 387.442,143.754 c -31.909,0 -57.769,-25.86 -57.769,-57.769 0,-31.909 25.86,-57.754 57.769,-57.754"
   id="path16"
   clip-path="url(#clipPath107)" />
<path
   style="fill:#526570"
   d="m 387.442,163.446 c -42.709,0 -77.462,-34.745 -77.462,-77.462 0,-42.709 34.753,-77.446 77.462,-77.446 10.878,0 19.692,8.814 19.692,19.692 0,10.878 -8.814,19.692 -19.692,19.692 -20.984,0 -38.077,17.077 -38.077,38.061 0,20.992 17.093,38.077 38.077,38.077 10.878,0 19.692,8.814 19.692,19.692 0,10.878 -8.814,19.694 -19.692,19.694 z"
   id="path18"
   clip-path="url(#clipPath103)" />
<g
   id="g26"
   clip-path="url(#clipPath99)">
	<circle
   style="fill:#61e1ff"
   cx="290.272"
   cy="330.33499"
   r="8.3649998"
   id="circle20" />
	<circle
   style="fill:#61e1ff"
   cx="322.26099"
   cy="330.33499"
   r="8.3649998"
   id="circle22" />
	<path
   style="fill:#61e1ff"
   d="m 362.646,330.335 c 0,4.624 -3.757,8.365 -8.381,8.365 -4.6,0 -8.357,-3.749 -8.357,-8.365 0,-4.616 3.757,-8.365 8.357,-8.365 4.623,-0.001 8.381,3.741 8.381,8.365 z"
   id="path24" />
</g>
<g
   id="g28"
   clip-path="url(#clipPath95)">
</g>
<g
   id="g30"
   clip-path="url(#clipPath91)">
</g>
<g
   id="g32"
   clip-path="url(#clipPath87)">
</g>
<g
   id="g34"
   clip-path="url(#clipPath83)">
</g>
<g
   id="g36"
   clip-path="url(#clipPath79)">
</g>
<g
   id="g38"
   clip-path="url(#clipPath75)">
</g>
<g
   id="g40"
   clip-path="url(#clipPath71)">
</g>
<g
   id="g42"
   clip-path="url(#clipPath67)">
</g>
<g
   id="g44"
   clip-path="url(#clipPath63)">
</g>
<g
   id="g46"
   clip-path="url(#clipPath59)">
</g>
<g
   id="g48"
   clip-path="url(#clipPath55)">
</g>
<g
   id="g50"
   clip-path="url(#clipPath51)">
</g>
<g
   id="g52"
   clip-path="url(#clipPath47)">
</g>
<g
   id="g54"
   clip-path="url(#clipPath43)">
</g>
<g
   id="g56"
   clip-path="url(#clipPath39)">
</g>
</svg>
